<?xml version="1.0" encoding="UTF-8" standalone="no"?>
<svg
   xmlns:dc="http://purl.org/dc/elements/1.1/"
   xmlns:cc="http://creativecommons.org/ns#"
   xmlns:rdf="http://www.w3.org/1999/02/22-rdf-syntax-ns#"
   xmlns:svg="http://www.w3.org/2000/svg"
   xmlns="http://www.w3.org/2000/svg"
   xmlns:sodipodi="http://sodipodi.sourceforge.net/DTD/sodipodi-0.dtd"
   xmlns:inkscape="http://www.inkscape.org/namespaces/inkscape"
   viewBox="0 0 353.18 249"
   version="1.1"
   id="svg4088"
   sodipodi:docname="card3.svg"
   width="353.17999"
   height="249"
   inkscape:version="0.92.3 (2405546, 2018-03-11)">
  <metadata
     id="metadata4092">
    <rdf:RDF>
      <cc:Work
         rdf:about="">
        <dc:format>image/svg+xml</dc:format>
        <dc:type
           rdf:resource="http://purl.org/dc/dcmitype/StillImage" />
        <dc:title>card3</dc:title>
      </cc:Work>
    </rdf:RDF>
  </metadata>
  <sodipodi:namedview
     pagecolor="#ffffff"
     bordercolor="#666666"
     borderopacity="1"
     objecttolerance="10"
     gridtolerance="10"
     guidetolerance="10"
     inkscape:pageopacity="0"
     inkscape:pageshadow="2"
     inkscape:window-width="640"
     inkscape:window-height="480"
     id="namedview4090"
     showgrid="false"
     fit-margin-top="0"
     fit-margin-left="0"
     fit-margin-right="0"
     fit-margin-bottom="0"
     inkscape:zoom="0.69005848"
     inkscape:cx="176.11"
     inkscape:cy="78.724576"
     inkscape:window-x="346"
     inkscape:window-y="114"
     inkscape:window-maximized="0"
     inkscape:current-layer="图层_11" />
  <defs
     id="defs4035">
    <style
       id="style4030">.cls-1{fill:none;}.cls-2{clip-path:url(#clip-path);}.cls-3,.cls-8{fill:#fff;}.cls-3{stroke:#b3b3b3;stroke-miterlimit:10;}.cls-4{fill:#4d4d4d;}.cls-5{fill:#5ddaf4;}.cls-6{fill:#343231;}.cls-7{fill:#623fe9;}.cls-9{fill:#b52326;}.cls-10{fill:#6ba643;}.cls-11{fill:#f0a522;}.cls-12{fill:#d05e29;}.cls-13{fill:#f43425;}.cls-14{fill:#ffc107;}</style>
    <clipPath
       id="clip-path"
       transform="translate(0 -57.67)">
      <rect
         class="cls-1"
         x="0.63999999"
         y="57.669998"
         width="353"
         height="245.61"
         id="rect4032"
         style="fill:none" />
    </clipPath>
  </defs>
  <title
     id="title4037">card3</title>
  <g
     data-name="图层 11"
     id="图层_11"
     transform="translate(-0.98000002)">
    <rect
       style="fill:#5ddaf4"
       y="0"
       height="249"
       width="353.17999"
       x="0.98000002"
       class="cls-5"
       data-name="&lt;Path&gt;"
       id="_Path_" />
    <path
       style="fill:#343231"
       inkscape:connector-curvature="0"
       id="path4062"
       transform="translate(0,-57.67)"
       d="m 228.57,131.1 c -9.27,3.19 -21.35,-1.75 -31,-5.71 -8.24,-3.37 -14.75,-4.84 -19.23,-2.75 a 7,7 0 0 0 -3.74,4.39 32.58,32.58 0 0 0 -1.36,16.16 h -6.43 a 2.87,2.87 0 0 0 -2.67,3.05 v 6.4 a 2.88,2.88 0 0 0 2.67,3.05 h 18.87 a 2.88,2.88 0 0 0 2.66,-3.05 v -6.4 a 2.87,2.87 0 0 0 -2.66,-3.05 h -6.34 c -0.68,-2.69 -1.24,-7.62 0.94,-14.31 0.21,-0.66 0.45,-0.77 0.58,-0.83 2.12,-1 8.67,1.7 14.45,4.06 10.63,4.34 23.85,8.55 35.24,4.64 z"
       class="cls-6" />
    <path
       style="fill:#623fe9"
       inkscape:connector-curvature="0"
       id="path4064"
       transform="translate(0,-57.67)"
       d="M 231.72,149.44 H 117.48 v 0.1 a 53.34,53.34 0 1 0 45,86.28 h 27.34 a 53.34,53.34 0 1 0 41.86,-86.38 z"
       class="cls-7" />
    <path
       style="fill:#ffffff"
       inkscape:connector-curvature="0"
       id="path4066"
       transform="translate(0,-57.67)"
       d="m 270.14,202.78 a 36.58,36.58 0 1 1 -36.58,-36.57 36.58,36.58 0 0 1 36.58,36.57 z"
       class="cls-8" />
    <path
       style="fill:#b52326"
       inkscape:connector-curvature="0"
       id="path4068"
       transform="translate(0,-57.67)"
       d="m 224,202.8 a 9.38,9.38 0 1 1 -9.38,-9.37 9.38,9.38 0 0 1 9.38,9.37 z"
       class="cls-9" />
    <path
       style="fill:#6ba643"
       inkscape:connector-curvature="0"
       id="path4070"
       transform="translate(0,-57.67)"
       d="m 261.54,202.8 a 9.38,9.38 0 1 1 -9.38,-9.37 9.38,9.38 0 0 1 9.38,9.37 z"
       class="cls-10" />
    <path
       style="fill:#f0a522"
       inkscape:connector-curvature="0"
       id="path4072"
       transform="translate(0,-57.67)"
       d="m 242.79,181.17 a 9.38,9.38 0 1 1 -9.38,-9.38 9.38,9.38 0 0 1 9.38,9.38 z"
       class="cls-11" />
    <path
       style="fill:#d05e29"
       inkscape:connector-curvature="0"
       id="path4074"
       transform="translate(0,-57.67)"
       d="m 242.79,224.4 a 9.38,9.38 0 1 1 -9.38,-9.38 9.38,9.38 0 0 1 9.38,9.38 z"
       class="cls-12" />
    <path
       style="fill:#ffffff"
       inkscape:connector-curvature="0"
       id="path4076"
       transform="translate(0,-57.67)"
       d="M 157,203.28 A 36.57,36.57 0 1 1 120.43,166.7 36.57,36.57 0 0 1 157,203.28 Z"
       class="cls-8" />
    <path
       style="fill:#343231"
       inkscape:connector-curvature="0"
       id="path4078"
       transform="translate(0,-57.67)"
       d="M 142.87,198.49 H 125.2 V 180.82 A 3,3 0 0 0 122,178 h -3.26 a 3,3 0 0 0 -3.15,2.81 v 17.67 H 98 a 3,3 0 0 0 -2.8,3.15 v 3.27 a 3,3 0 0 0 2.8,3.15 h 17.68 v 17.68 a 3,3 0 0 0 3.15,2.8 H 122 a 3,3 0 0 0 3.16,-2.8 v -17.67 h 17.67 a 3,3 0 0 0 2.81,-3.15 v -3.27 a 3,3 0 0 0 -2.77,-3.15 z"
       class="cls-6" />
    <rect
       style="fill:#f43425"
       id="rect4080"
       ry="5.9699998"
       rx="5.9699998"
       height="25.48"
       width="14.23"
       y="102.51"
       x="159.77"
       class="cls-13" />
    <rect
       style="fill:#ffc107"
       id="rect4082"
       ry="5.9699998"
       rx="5.9699998"
       height="25.48"
       width="14.23"
       y="102.51"
       x="180.87"
       class="cls-14" />
    <path
       style="fill:#5ddaf4"
       inkscape:connector-curvature="0"
       id="path4084"
       transform="translate(0,-57.67)"
       d="m 185.57,202.8 a 9.38,9.38 0 1 1 -9.38,-9.37 9.38,9.38 0 0 1 9.38,9.37 z"
       class="cls-5" />
  </g>
</svg>
