<?xml version="1.0" encoding="UTF-8" standalone="no"?>
<svg
   xmlns:dc="http://purl.org/dc/elements/1.1/"
   xmlns:cc="http://creativecommons.org/ns#"
   xmlns:rdf="http://www.w3.org/1999/02/22-rdf-syntax-ns#"
   xmlns:svg="http://www.w3.org/2000/svg"
   xmlns="http://www.w3.org/2000/svg"
   xmlns:sodipodi="http://sodipodi.sourceforge.net/DTD/sodipodi-0.dtd"
   xmlns:inkscape="http://www.inkscape.org/namespaces/inkscape"
   viewBox="0 0 353.17999 245.85001"
   version="1.1"
   id="svg519"
   sodipodi:docname="card5.svg"
   width="353.17999"
   height="245.85001"
   inkscape:version="0.92.3 (2405546, 2018-03-11)">
  <metadata
     id="metadata523">
    <rdf:RDF>
      <cc:Work
         rdf:about="">
        <dc:format>image/svg+xml</dc:format>
        <dc:type
           rdf:resource="http://purl.org/dc/dcmitype/StillImage" />
        <dc:title>card5</dc:title>
      </cc:Work>
    </rdf:RDF>
  </metadata>
  <sodipodi:namedview
     pagecolor="#ffffff"
     bordercolor="#666666"
     borderopacity="1"
     objecttolerance="10"
     gridtolerance="10"
     guidetolerance="10"
     inkscape:pageopacity="0"
     inkscape:pageshadow="2"
     inkscape:window-width="640"
     inkscape:window-height="480"
     id="namedview521"
     showgrid="false"
     fit-margin-top="0"
     fit-margin-left="0"
     fit-margin-right="0"
     fit-margin-bottom="0"
     inkscape:zoom="2.536193"
     inkscape:cx="155.98439"
     inkscape:cy="42.013536"
     inkscape:window-x="0"
     inkscape:window-y="23"
     inkscape:window-maximized="0"
     inkscape:current-layer="Layer_2" />
  <defs
     id="defs297">
    <style
       id="style292">.cls-1{fill:none;}.cls-2{isolation:isolate;}.cls-3{opacity:0.75;mix-blend-mode:multiply;}.cls-24,.cls-4{fill:#fff;}.cls-4{stroke:#b3b3b3;stroke-miterlimit:10;}.cls-5{fill:#4398ed;}.cls-6{clip-path:url(#clip-path);}.cls-7,.cls-8{opacity:0.5;}.cls-8,.cls-9{fill:#6cbdff;}.cls-10{fill:#a1ccff;}.cls-11{fill:#efab95;}.cls-12{fill:#f9c9b7;}.cls-13{fill:#ff5543;}.cls-14{fill:#f43425;}.cls-15{fill:#b6c6cc;}.cls-16{fill:#1f418c;}.cls-17{fill:#c3c7cb;}.cls-18{fill:#ededed;}.cls-19{fill:#e8e8e8;}.cls-20{fill:#c64a4a;}.cls-21{fill:#bc342e;}.cls-22{fill:#ffe780;}.cls-23{fill:#f4d760;}.cls-25{fill:#fff1b6;}.cls-26{fill:#eab344;}.cls-27{fill:#166bc1;}.cls-28{fill:#9e9e9e;}.cls-29{fill:#c5c5c5;}.cls-30{fill:#efefef;}.cls-31{fill:#4d4d4d;}</style>
    <clipPath
       id="clip-path">
      <rect
         class="cls-1"
         x="14.34"
         y="9"
         width="353.17999"
         height="245.85001"
         id="rect294"
         style="fill:none" />
    </clipPath>
  </defs>
  <title
     id="title299">card5</title>
  <g
     class="cls-2"
     id="g517"
     style="isolation:isolate"
     transform="translate(-14.34,-9)">
    <g
       id="Layer_2"
       data-name="Layer 2">
      <rect
         style="fill:#4398ed"
         height="245.85001"
         width="353.17999"
         y="9"
         x="14.34"
         class="cls-5"
         data-name="&lt;Path&gt;"
         id="_Path_" />
      <g
         id="g489"
         clip-path="url(#clip-path)"
         class="cls-6">
        <g
           style="opacity:0.5"
           id="g312"
           class="cls-7">
          <circle
             style="opacity:0.5;fill:#6cbdff"
             id="circle306"
             transform="rotate(-45,187.3075,142.79469)"
             r="128.7"
             cy="142.8"
             cx="187.31"
             class="cls-8" />
          <circle
             style="opacity:0.5;fill:#6cbdff"
             id="circle308"
             transform="rotate(-45,186.06024,142.80132)"
             r="91.059998"
             cy="142.8"
             cx="186.06"
             class="cls-8" />
          <circle
             style="fill:#6cbdff"
             id="circle310"
             transform="rotate(-81,186.07464,142.79418)"
             r="53.68"
             cy="142.8"
             cx="186.06"
             class="cls-9" />
        </g>
        <path
           style="fill:#6cbdff"
           inkscape:connector-curvature="0"
           id="path314"
           d="M 240.9,49.75 A 10.86,10.86 0 0 0 230.63,64.23 L 244.49,50.37 A 11,11 0 0 0 240.9,49.75 Z"
           class="cls-9" />
        <path
           style="fill:#a1ccff"
           inkscape:connector-curvature="0"
           id="path316"
           d="m 244.49,50.37 -13.86,13.86 a 10.84,10.84 0 0 0 2.07,3.56 l 15.35,-15.35 a 10.84,10.84 0 0 0 -3.56,-2.07 z"
           class="cls-10" />
        <path
           style="fill:#a1ccff"
           inkscape:connector-curvature="0"
           id="path318"
           d="m 238.23,71.18 a 10.68,10.68 0 0 0 2.67,0.35 10.9,10.9 0 0 0 10.89,-10.89 10.68,10.68 0 0 0 -0.35,-2.67 z"
           class="cls-10" />
        <path
           style="fill:#6cbdff"
           inkscape:connector-curvature="0"
           id="path320"
           d="M 248.05,52.44 232.7,67.79 a 10.86,10.86 0 0 0 5.53,3.39 L 251.44,58 a 10.86,10.86 0 0 0 -3.39,-5.56 z"
           class="cls-9" />
        <path
           style="fill:#efab95"
           inkscape:connector-curvature="0"
           id="path322"
           d="M 243.19,82.69 236.14,80.53 236,79 l -16,11.69 0.05,15.58 h 10.07 v -1.74 a 2.35,2.35 0 0 1 1.2,-2.1 c 1.21,-0.67 3,-1.72 4.2,-2.49 1,-0.66 1.74,-0.89 2.08,-2.12 v 0 z"
           class="cls-11" />
        <path
           style="fill:#f9c9b7"
           inkscape:connector-curvature="0"
           d="m 219.7,105.45 c 0,3.31 1.14,2.4 3.94,2.4 v 0 c 5.18,0.12 6.24,-5.4 6.24,-8.72 v -2 c 0,-4.45 -4.47,-10.09 -7.27,-10.09 v 0 c -2.8,0 -2.87,2.69 -2.87,6 z"
           class="cls-12"
           data-name="&lt;Path&gt;"
           id="_Path_2" />
        <rect
           style="fill:#ff5543"
           height="106.27"
           width="20.690001"
           y="105.14"
           x="215.12"
           class="cls-13"
           data-name="&lt;Path&gt;"
           id="_Path_3" />
        <rect
           style="fill:#f43425"
           height="106.27"
           width="7.2600002"
           y="105.14"
           x="228.56"
           class="cls-14"
           data-name="&lt;Path&gt;"
           id="_Path_4" />
        <g
           data-name="&lt;Group&gt;"
           id="_Group_">
          <rect
             style="fill:#b6c6cc"
             transform="rotate(-67.27,234.59811,75.213353)"
             height="3.6600001"
             width="4.4000001"
             y="73.379997"
             x="232.39999"
             class="cls-15"
             data-name="&lt;Path&gt;"
             id="_Path_5" />
          <path
             style="fill:#1f418c"
             inkscape:connector-curvature="0"
             id="path328"
             d="M 246.37,47.85 A 13.87,13.87 0 1 0 253.81,66 13.88,13.88 0 0 0 246.37,47.85 Z m -9,21.41 a 9.35,9.35 0 1 1 12.24,-5 9.36,9.36 0 0 1 -12.21,5 z"
             class="cls-16" />
          <path
             style="fill:#1f418c"
             inkscape:connector-curvature="0"
             d="M 227.41,94.9 225.6,94.15 A 2.39,2.39 0 0 1 224.33,91 l 7.16,-17.11 6.21,2.6 -7.17,17.11 a 2.38,2.38 0 0 1 -3.12,1.3 z"
             class="cls-16"
             data-name="&lt;Path&gt;"
             id="_Path_6" />
        </g>
        <path
           style="fill:#f9c9b7"
           inkscape:connector-curvature="0"
           d="m 233,79.11 a 1.66,1.66 0 0 0 0.69,2.2 l 8.04,2.69 a 1.67,1.67 0 0 0 1.94,-1.26 v 0 a 1.66,1.66 0 0 0 -0.7,-2.2 l -8.07,-2.69 a 1.65,1.65 0 0 0 -1.9,1.26 z"
           class="cls-12"
           data-name="&lt;Path&gt;"
           id="_Path_7" />
        <path
           style="fill:#f9c9b7"
           inkscape:connector-curvature="0"
           d="m 228.7,87.44 a 1.65,1.65 0 0 0 0.69,2.2 l 9.44,3.13 a 1.67,1.67 0 0 0 1.93,-1.26 v 0 a 1.67,1.67 0 0 0 -0.7,-2.21 l -9.43,-3.12 a 1.66,1.66 0 0 0 -1.93,1.26 z"
           class="cls-12"
           data-name="&lt;Path&gt;"
           id="_Path_8" />
        <path
           style="fill:#f9c9b7"
           inkscape:connector-curvature="0"
           id="path334"
           d="m 241.68,84.76 -6.81,-2.25 a 4.22,4.22 0 0 1 -1.72,3.3 l 7.29,2.41 a 1.91,1.91 0 0 0 1.24,-3.46 z"
           class="cls-12" />
        <path
           style="fill:#f9c9b7"
           inkscape:connector-curvature="0"
           id="path336"
           d="m 232.25,81.64 a 1.21,1.21 0 0 0 -1,0.12 h 1.37 z"
           class="cls-12" />
        <path
           style="fill:#efab95"
           inkscape:connector-curvature="0"
           id="path338"
           d="m 234.87,82.51 -2.26,-0.75 h -1.37 a 2.15,2.15 0 0 0 -0.93,1.14 1.66,1.66 0 0 0 0.7,2.2 l 2.14,0.71 a 4.22,4.22 0 0 0 1.72,-3.3 z"
           class="cls-11" />
        <path
           style="fill:#f9c9b7"
           inkscape:connector-curvature="0"
           d="m 231.2,93.16 a 1.67,1.67 0 0 0 0.69,2.2 l 5.34,1.83 a 1.66,1.66 0 0 0 1.94,-1.26 v 0 a 1.66,1.66 0 0 0 -0.7,-2.2 l -5.34,-1.83 a 1.66,1.66 0 0 0 -1.93,1.26 z"
           class="cls-12"
           data-name="&lt;Path&gt;"
           id="_Path_9" />
        <path
           style="fill:#f9c9b7"
           inkscape:connector-curvature="0"
           d="m 219.7,105.08 -0.14,-16.43 a 2,2 0 0 1 0.29,-1.09 l 3.42,-6 a 2,2 0 0 1 1.72,-1 h 7.5 c 1,0.84 -0.58,4.16 -1.8,4.16 -1.22,0 -3.57,0.12 -3.57,0.12 l -0.82,3.8 z"
           class="cls-12"
           data-name="&lt;Path&gt;"
           id="_Path_10" />
        <g
           data-name="&lt;Group&gt;"
           id="_Group_2">
          <path
             style="fill:#ff5543"
             inkscape:connector-curvature="0"
             d="m 89.61,143.43 v -14 a 0.62,0.62 0 0 1 0.67,-0.57 v -8.74 H 86.5 l 0.11,7.33 v 0 l -0.06,16.44 a 2.14,2.14 0 0 0 2.33,1.81 h 1.4 V 144 a 0.62,0.62 0 0 1 -0.67,-0.57 z"
             class="cls-13"
             data-name="&lt;Path&gt;"
             id="_Path_11" />
          <path
             style="fill:#f43425"
             inkscape:connector-curvature="0"
             d="m 94,120.11 h -3.72 v 8.74 0 a 0.69,0.69 0 0 1 0.49,0.17 0.48,0.48 0 0 1 0.2,0.41 v 14 A 0.62,0.62 0 0 1 90.28,144 v 0 1.69 h 1.45 a 2.14,2.14 0 0 0 2.33,-1.81 V 127 Z"
             class="cls-14"
             data-name="&lt;Path&gt;"
             id="_Path_12" />
          <polygon
             style="fill:#c3c7cb"
             points="88.92,105.03 90.28,105.03 90.28,99.79 88.23,102.07 88.92,105.12 "
             class="cls-17"
             data-name="&lt;Path&gt;"
             id="_Path_13" />
          <polygon
             style="fill:#ededed"
             points="90.31,99.76 90.28,99.79 90.28,105.03 91.69,105.03 91.69,105.08 91.74,105.08 92.39,101.98 "
             class="cls-18"
             data-name="&lt;Path&gt;"
             id="_Path_14" />
          <polygon
             style="fill:#e8e8e8"
             points="90.28,120.11 91.69,120.11 91.69,105.08 90.28,105.1 "
             class="cls-19"
             data-name="&lt;Path&gt;"
             id="_Path_15" />
          <polygon
             style="fill:#c3c7cb"
             points="90.28,105.1 88.92,105.12 88.92,120.11 90.28,120.11 "
             class="cls-17"
             data-name="&lt;Path&gt;"
             id="_Path_16" />
          <rect
             style="fill:#ededed"
             height="0"
             width="1.36"
             y="120.11"
             x="88.919998"
             class="cls-18"
             data-name="&lt;Path&gt;"
             id="_Path_17" />
          <rect
             style="fill:#ededed"
             height="0"
             width="1.41"
             y="120.11"
             x="90.279999"
             class="cls-18"
             data-name="&lt;Path&gt;"
             id="_Path_18" />
          <polygon
             style="fill:#ededed"
             points="90.28,105.03 90.28,105.1 91.69,105.08 91.69,105.03 "
             class="cls-18"
             data-name="&lt;Path&gt;"
             id="_Path_19" />
          <polygon
             style="fill:#ededed"
             points="90.28,105.03 88.92,105.03 88.92,105.12 90.28,105.1 "
             class="cls-18"
             data-name="&lt;Path&gt;"
             id="_Path_20" />
          <path
             style="fill:#c64a4a"
             inkscape:connector-curvature="0"
             d="M 90.31,144 A 0.62,0.62 0 0 0 91,143.43 v -14 a 0.48,0.48 0 0 0 -0.2,-0.41 0.69,0.69 0 0 0 -0.49,-0.17 v 0 z"
             class="cls-20"
             data-name="&lt;Path&gt;"
             id="_Path_21" />
          <path
             style="fill:#bc342e"
             inkscape:connector-curvature="0"
             d="m 89.61,129.42 v 14 a 0.62,0.62 0 0 0 0.67,0.57 v -15.14 a 0.62,0.62 0 0 0 -0.67,0.57 z"
             class="cls-21"
             data-name="&lt;Path&gt;"
             id="_Path_22" />
        </g>
        <path
           style="fill:#f9c9b7"
           inkscape:connector-curvature="0"
           d="m 81.76,145.74 a 2.08,2.08 0 0 1 2.08,-2.08 h -2.19 a 2.08,2.08 0 0 1 0,-4.16 h -2.17 a 2.08,2.08 0 1 1 0,-4.15 h 2.17 a 2.08,2.08 0 0 1 0,-4.16 h 2.73 v -2.93 a 1.41,1.41 0 0 1 1.41,-1.4 H 95 a 1.89,1.89 0 0 1 1.76,1.14 l 0.79,1.7 a 1.92,1.92 0 0 0 1.73,1.11 h 4 v 13.79 h -4.51 a 1.68,1.68 0 0 0 -1.2,0.5 l -2.07,2.12 a 2,2 0 0 1 -1.42,0.59 H 83.84 a 2.08,2.08 0 0 1 -2.08,-2.07 z"
           class="cls-12"
           data-name="&lt;Path&gt;"
           id="_Path_23" />
        <path
           style="fill:#ffe780"
           inkscape:connector-curvature="0"
           id="path356"
           d="M 175.2,164.19 A 37.48,37.48 0 0 0 137.75,126.75 H 100.24 V 135 h 34 A 32.69,32.69 0 0 1 167,167.68 v 43.73 h 8.24 z"
           class="cls-22" />
        <path
           style="fill:#f4d760"
           inkscape:connector-curvature="0"
           id="path358"
           d="m 134.27,135 h -34 v 12.36 h 37.51 a 16.86,16.86 0 0 1 16.85,16.84 v 47.22 H 167 V 167.68 A 32.69,32.69 0 0 0 134.27,135 Z"
           class="cls-23" />
        <path
           style="fill:#efab95"
           inkscape:connector-curvature="0"
           d="m 266.52,150.07 v -0.33 c 0,-1.13 0.93,-2.48 2.06,-2.48 l 10,1.05 8.84,-0.63 a 2.07,2.07 0 0 1 2.07,2.06 v 0.33 a 2.07,2.07 0 0 1 -2.07,2.06 h -18.84 a 2.07,2.07 0 0 1 -2.06,-2.06 z"
           class="cls-11"
           data-name="&lt;Path&gt;"
           id="_Path_24" />
        <path
           style="fill:#f9c9b7"
           inkscape:connector-curvature="0"
           d="m 267.6,130.44 8.11,5.93 a 3.13,3.13 0 0 1 0.82,4.17 v 0 a 3.14,3.14 0 0 1 -4.33,1 l -6.49,-4.05 a 0.84,0.84 0 0 0 -1.28,0.71 v 2 l 9,8.46 c 0,0 5.66,0.81 6.45,1 h 9.8 a 2.36,2.36 0 0 1 2.36,2.35 v 0 a 2.35,2.35 0 0 1 -2.34,2.35 l -8.71,0.05 c -0.64,0.29 -10.37,0.22 -10.37,0.22 l -21,-10.17 V 129.1 h 15 a 6.29,6.29 0 0 1 2.98,1.34 z"
           class="cls-12"
           data-name="&lt;Path&gt;"
           id="_Path_25" />
        <path
           style="fill:#ffe780"
           inkscape:connector-curvature="0"
           id="path362"
           d="m 234.9,135.51 h 16.42 v -8.07 H 232.7 a 37.18,37.18 0 0 0 -37.14,37.14 v 46.83 h 8.07 v -44.63 a 31.27,31.27 0 0 1 31.27,-31.27 z"
           class="cls-22" />
        <path
           style="fill:#c3c7cb"
           inkscape:connector-curvature="0"
           id="path364"
           d="m 216,164.58 a 16.73,16.73 0 0 1 16.71,-16.71 h 18.62 V 135.51 H 234.9 a 31.27,31.27 0 0 0 -31.27,31.27 v 44.63 H 216 Z"
           class="cls-17" />
        <path
           style="fill:#f4d760"
           inkscape:connector-curvature="0"
           id="path366"
           d="m 216,164.58 a 16.73,16.73 0 0 1 16.71,-16.71 h 18.62 V 135.51 H 234.9 a 31.27,31.27 0 0 0 -31.27,31.27 v 44.63 H 216 Z"
           class="cls-23" />
        <path
           style="fill:#c3c7cb"
           inkscape:connector-curvature="0"
           d="m 288.13,126.44 h 2.45 a 0.9,0.9 0 0 0 0.9,-0.9 v -3.13 a 0.9,0.9 0 0 0 -0.9,-0.9 h -1.92 a 0.73,0.73 0 0 1 -0.7,-0.5 c -0.07,-0.18 -0.14,-0.35 -0.22,-0.53 a 0.74,0.74 0 0 1 0.14,-0.85 l 1.35,-1.36 a 0.89,0.89 0 0 0 0,-1.27 L 287,114.79 a 0.9,0.9 0 0 0 -1.27,0 l -1.37,1.37 a 0.72,0.72 0 0 1 -0.81,0.16 l -0.59,-0.24 a 0.74,0.74 0 0 1 -0.47,-0.69 v -1.94 a 0.9,0.9 0 0 0 -0.9,-0.9 h -3.13 a 0.89,0.89 0 0 0 -0.89,0.9 v 1.92 a 0.75,0.75 0 0 1 -0.51,0.7 l -0.55,0.23 a 0.75,0.75 0 0 1 -0.86,-0.14 l -1.36,-1.35 a 0.9,0.9 0 0 0 -1.27,0 l -2.2,2.22 a 0.9,0.9 0 0 0 0,1.27 l 1.37,1.37 a 0.72,0.72 0 0 1 0.16,0.81 l -0.23,0.59 a 0.75,0.75 0 0 1 -0.69,0.47 h -1.94 a 0.9,0.9 0 0 0 -0.9,0.9 v 3.13 a 0.89,0.89 0 0 0 0.9,0.89 h 1.92 a 0.74,0.74 0 0 1 0.7,0.5 c 0.07,0.18 0.14,0.35 0.22,0.53 a 0.73,0.73 0 0 1 -0.14,0.85 l -1.35,1.36 a 0.9,0.9 0 0 0 0,1.27 l 2.22,2.21 a 0.89,0.89 0 0 0 1.27,0 l 1.36,-1.37 a 0.75,0.75 0 0 1 0.82,-0.15 l 0.59,0.23 a 0.75,0.75 0 0 1 0.47,0.69 v 1.94 a 0.9,0.9 0 0 0 0.9,0.9 h 3.13 a 0.9,0.9 0 0 0 0.9,-0.9 v -1.92 a 0.77,0.77 0 0 1 0.5,-0.7 l 0.53,-0.22 a 0.78,0.78 0 0 1 0.86,0.14 l 1.36,1.36 a 0.89,0.89 0 0 0 1.27,0 l 2.21,-2.21 a 0.9,0.9 0 0 0 0,-1.27 l -1.37,-1.37 a 0.73,0.73 0 0 1 -0.15,-0.81 c 0.21,-0.52 0.41,-1.05 0.42,-1.08 z m -12.44,-3.25 a 4.43,4.43 0 0 1 6,-3.34 4.49,4.49 0 0 1 2.76,4.93 4.4318873,4.4318873 0 0 1 -8.72,-1.59 z"
           class="cls-17"
           data-name="&lt;Compound Path&gt;"
           id="_Compound_Path_" />
        <path
           style="fill:#c3c7cb"
           inkscape:connector-curvature="0"
           d="m 288.13,126.44 h 2.45 a 0.9,0.9 0 0 0 0.9,-0.9 v -3.13 a 0.9,0.9 0 0 0 -0.9,-0.9 h -1.92 a 0.73,0.73 0 0 1 -0.7,-0.5 c -0.07,-0.18 -0.14,-0.35 -0.22,-0.53 a 0.74,0.74 0 0 1 0.14,-0.85 l 1.35,-1.36 a 0.89,0.89 0 0 0 0,-1.27 L 287,114.79 a 0.9,0.9 0 0 0 -1.27,0 l -1.37,1.37 a 0.72,0.72 0 0 1 -0.81,0.16 l -0.59,-0.24 a 0.74,0.74 0 0 1 -0.47,-0.69 v -1.94 a 0.9,0.9 0 0 0 -0.9,-0.9 h -3.13 a 0.89,0.89 0 0 0 -0.89,0.9 v 1.92 a 0.75,0.75 0 0 1 -0.51,0.7 l -0.55,0.23 a 0.75,0.75 0 0 1 -0.86,-0.14 l -1.36,-1.35 a 0.9,0.9 0 0 0 -1.27,0 l -2.2,2.22 a 0.9,0.9 0 0 0 0,1.27 l 1.37,1.37 a 0.72,0.72 0 0 1 0.16,0.81 l -0.23,0.59 a 0.75,0.75 0 0 1 -0.69,0.47 h -1.94 a 0.9,0.9 0 0 0 -0.9,0.9 v 3.13 a 0.89,0.89 0 0 0 0.9,0.89 h 1.92 a 0.74,0.74 0 0 1 0.7,0.5 c 0.07,0.18 0.14,0.35 0.22,0.53 a 0.73,0.73 0 0 1 -0.14,0.85 l -1.35,1.36 a 0.9,0.9 0 0 0 0,1.27 l 2.22,2.21 a 0.89,0.89 0 0 0 1.27,0 l 1.36,-1.37 a 0.75,0.75 0 0 1 0.82,-0.15 l 0.59,0.23 a 0.75,0.75 0 0 1 0.47,0.69 v 1.94 a 0.9,0.9 0 0 0 0.9,0.9 h 3.13 a 0.9,0.9 0 0 0 0.9,-0.9 v -1.92 a 0.77,0.77 0 0 1 0.5,-0.7 l 0.53,-0.22 a 0.78,0.78 0 0 1 0.86,0.14 l 1.36,1.36 a 0.89,0.89 0 0 0 1.27,0 l 2.21,-2.21 a 0.9,0.9 0 0 0 0,-1.27 l -1.37,-1.37 a 0.73,0.73 0 0 1 -0.15,-0.81 c 0.21,-0.52 0.41,-1.05 0.42,-1.08 z m -12.44,-3.25 a 4.43,4.43 0 0 1 6,-3.34 4.49,4.49 0 0 1 2.76,4.93 4.4318873,4.4318873 0 0 1 -8.72,-1.59 z"
           class="cls-17"
           data-name="&lt;Compound Path&gt;"
           id="_Compound_Path_2" />
        <path
           style="fill:#ffffff"
           inkscape:connector-curvature="0"
           id="path370"
           d="m 285.25,122.08 5.14,-5.15 -2.05,-2.05 -5.14,5.12 a 4.47,4.47 0 0 1 2.05,2.08 z"
           class="cls-24" />
        <path
           style="fill:#ededed"
           inkscape:connector-curvature="0"
           id="path372"
           d="m 276.92,123.19 a 4.43,4.43 0 0 1 6,-3.34 l 0.32,0.16 5.14,-5.13 -0.09,-0.09 a 0.9,0.9 0 0 0 -1.27,0 l -1.37,1.37 a 0.72,0.72 0 0 1 -0.81,0.16 l -0.59,-0.24 a 0.74,0.74 0 0 1 -0.47,-0.69 v -1.94 a 0.9,0.9 0 0 0 -0.9,-0.9 h -3.13 a 0.9,0.9 0 0 0 -0.9,0.9 v 1.92 a 0.74,0.74 0 0 1 -0.5,0.7 l -0.55,0.23 a 0.75,0.75 0 0 1 -0.86,-0.14 l -1.36,-1.35 a 0.9,0.9 0 0 0 -1.27,0 l -2.2,2.22 a 0.9,0.9 0 0 0 0,1.27 l 1.37,1.37 a 0.72,0.72 0 0 1 0.16,0.81 l -0.24,0.59 a 0.73,0.73 0 0 1 -0.69,0.47 h -1.93 a 0.9,0.9 0 0 0 -0.9,0.9 v 3.13 a 0.89,0.89 0 0 0 0.9,0.89 h 1.92 a 0.75,0.75 0 0 1 0.7,0.5 c 0.07,0.18 0.14,0.35 0.22,0.53 a 0.74,0.74 0 0 1 -0.14,0.85 l -1.35,1.36 a 0.9,0.9 0 0 0 0,1.27 l 0.07,0.07 5.14,-5.14 a 4.38,4.38 0 0 1 -0.42,-2.71 z"
           class="cls-18" />
        <path
           style="fill:#ffffff"
           inkscape:connector-curvature="0"
           id="path374"
           d="m 277.31,125.91 -5.14,5.14 2.06,2 5.14,-5.14 a 4.45,4.45 0 0 1 -2.06,-2 z"
           class="cls-24" />
        <path
           style="fill:#ffffff"
           inkscape:connector-curvature="0"
           id="path376"
           d="m 292.53,121.9 -13.33,13.33 a 0.9,0.9 0 0 0 0.53,0.19 h 3.13 a 0.9,0.9 0 0 0 0.9,-0.9 v -1.92 a 0.77,0.77 0 0 1 0.5,-0.7 l 0.53,-0.22 a 0.78,0.78 0 0 1 0.86,0.14 l 1.35,1.36 a 0.9,0.9 0 0 0 1.28,0 l 2.2,-2.21 a 0.9,0.9 0 0 0 0,-1.27 l -1.37,-1.37 a 0.73,0.73 0 0 1 -0.15,-0.81 c 0.2,-0.47 0.4,-1 0.41,-1.06 h 2.45 a 0.9,0.9 0 0 0 0.9,-0.9 v -3.13 a 0.93,0.93 0 0 0 -0.19,-0.53 z"
           class="cls-24" />
        <path
           style="fill:#ededed"
           inkscape:connector-curvature="0"
           id="path378"
           d="m 291.81,121.51 h -1.92 a 0.73,0.73 0 0 1 -0.7,-0.5 c -0.07,-0.18 -0.14,-0.35 -0.22,-0.53 a 0.73,0.73 0 0 1 0.14,-0.85 l 1.35,-1.36 a 0.9,0.9 0 0 0 0,-1.27 l -0.07,-0.07 -5.14,5.15 a 4.31,4.31 0 0 1 0.38,2.7 4.42,4.42 0 0 1 -5.95,3.33 3,3 0 0 1 -0.31,-0.15 l -5.14,5.14 0.09,0.09 a 0.89,0.89 0 0 0 1.27,0 l 1.36,-1.37 a 0.75,0.75 0 0 1 0.82,-0.15 l 0.59,0.23 a 0.75,0.75 0 0 1 0.47,0.69 v 1.94 a 0.87,0.87 0 0 0 0.37,0.71 l 13.33,-13.33 a 0.88,0.88 0 0 0 -0.72,-0.4 z"
           class="cls-18" />
        <g
           data-name="&lt;Group&gt;"
           id="_Group_3">
          <g
             data-name="&lt;Group&gt;"
             id="_Group_4">
            <path
               style="fill:#6cbdff"
               inkscape:connector-curvature="0"
               d="m 178.41,29.82 -1.89,-2.24 a 0.57,0.57 0 0 0 -0.8,-0.07 L 175,28.12 a 0.56,0.56 0 0 0 -0.07,0.79 l 1.9,2.24 z"
               class="cls-9"
               data-name="&lt;Path&gt;"
               id="_Path_26" />
          </g>
          <g
             data-name="&lt;Group&gt;"
             id="_Group_5">
            <path
               style="fill:#6cbdff"
               inkscape:connector-curvature="0"
               d="m 172.43,37.22 1,-1.81 -5.63,-3.09 a 0.57,0.57 0 0 0 -0.77,0.22 l -0.45,0.83 a 0.56,0.56 0 0 0 0.22,0.76 z"
               class="cls-9"
               data-name="&lt;Path&gt;"
               id="_Path_27" />
          </g>
          <g
             data-name="&lt;Group&gt;"
             id="_Group_6">
            <path
               style="fill:#6cbdff"
               inkscape:connector-curvature="0"
               d="m 170.37,44.42 0.31,-2 -2.89,-0.45 a 0.57,0.57 0 0 0 -0.65,0.47 L 167,43.37 a 0.57,0.57 0 0 0 0.47,0.65 z"
               class="cls-9"
               data-name="&lt;Path&gt;"
               id="_Path_28" />
          </g>
          <g
             data-name="&lt;Group&gt;"
             id="_Group_7">
            <path
               style="fill:#6cbdff"
               inkscape:connector-curvature="0"
               d="m 170.89,51.9 -0.4,-2 -6.31,1.26 a 0.57,0.57 0 0 0 -0.44,0.66 l 0.18,0.93 a 0.58,0.58 0 0 0 0.67,0.44 z"
               class="cls-9"
               data-name="&lt;Path&gt;"
               id="_Path_29" />
          </g>
          <g
             data-name="&lt;Group&gt;"
             id="_Group_8">
            <path
               style="fill:#6cbdff"
               inkscape:connector-curvature="0"
               d="m 173.94,58.74 -1.07,-1.74 -2.5,1.51 a 0.57,0.57 0 0 0 -0.19,0.78 l 0.49,0.81 a 0.56,0.56 0 0 0 0.78,0.18 z"
               class="cls-9"
               data-name="&lt;Path&gt;"
               id="_Path_30" />
          </g>
          <g
             data-name="&lt;Group&gt;"
             id="_Group_9">
            <path
               style="fill:#6cbdff"
               inkscape:connector-curvature="0"
               d="m 174.78,69.58 4.37,-5.46 -1.62,-1.29 -4,5 a 0.58,0.58 0 0 0 0.09,0.8 z"
               class="cls-9"
               data-name="&lt;Path&gt;"
               id="_Path_31" />
          </g>
          <g
             data-name="&lt;Group&gt;"
             id="_Group_10">
            <path
               style="fill:#6cbdff"
               inkscape:connector-curvature="0"
               d="M 210.29,68.4 211,67.78 a 0.58,0.58 0 0 0 0.05,-0.8 l -4.25,-4.83 -1.55,1.37 4.24,4.83 a 0.58,0.58 0 0 0 0.8,0.05 z"
               class="cls-9"
               data-name="&lt;Path&gt;"
               id="_Path_32" />
          </g>
          <g
             data-name="&lt;Group&gt;"
             id="_Group_11">
            <rect
               style="fill:#6cbdff"
               transform="rotate(-60.37,212.29684,57.899)"
               ry="0.56"
               rx="0.56"
               height="3.6700001"
               width="2.0699999"
               y="56.07"
               x="211.25999"
               class="cls-9"
               data-name="&lt;Path&gt;"
               id="_Path_33" />
          </g>
          <g
             data-name="&lt;Group&gt;"
             id="_Group_12">
            <path
               style="fill:#6cbdff"
               inkscape:connector-curvature="0"
               d="m 219.93,51.42 0.14,-0.93 a 0.57,0.57 0 0 0 -0.47,-0.65 l -6.36,-1 -0.31,2 6.36,1 a 0.56,0.56 0 0 0 0.64,-0.42 z"
               class="cls-9"
               data-name="&lt;Path&gt;"
               id="_Path_34" />
          </g>
          <g
             data-name="&lt;Group&gt;"
             id="_Group_13">
            <rect
               style="fill:#6cbdff"
               transform="rotate(-11.38,214.54621,42.054322)"
               height="2.0699999"
               width="3.5"
               y="41.040001"
               x="212.87"
               class="cls-9"
               data-name="&lt;Path&gt;"
               id="_Path_35" />
          </g>
          <g
             data-name="&lt;Group&gt;"
             id="_Group_14">
            <path
               style="fill:#6cbdff"
               inkscape:connector-curvature="0"
               d="m 216.39,32.22 -0.49,-0.81 a 0.56,0.56 0 0 0 -0.78,-0.18 l -5.48,3.34 1.08,1.77 5.48,-3.34 a 0.56,0.56 0 0 0 0.19,-0.78 z"
               class="cls-9"
               data-name="&lt;Path&gt;"
               id="_Path_36" />
          </g>
          <g
             data-name="&lt;Group&gt;"
             id="_Group_15">
            <path
               style="fill:#6cbdff"
               inkscape:connector-curvature="0"
               d="m 206,30.52 1.9,-2.23 a 0.57,0.57 0 0 0 -0.07,-0.8 l -0.71,-0.61 a 0.57,0.57 0 0 0 -0.8,0.07 l -1.9,2.23 z"
               class="cls-9"
               data-name="&lt;Path&gt;"
               id="_Path_37" />
          </g>
          <g
             data-name="&lt;Group&gt;"
             id="_Group_16">
            <path
               style="fill:#6cbdff"
               inkscape:connector-curvature="0"
               d="m 199.64,26.6 2.05,-6.09 a 0.57,0.57 0 0 0 -0.36,-0.72 l -0.89,-0.3 a 0.57,0.57 0 0 0 -0.72,0.36 l -2,6.09 z"
               class="cls-9"
               data-name="&lt;Path&gt;"
               id="_Path_38" />
          </g>
          <g
             data-name="&lt;Group&gt;"
             id="_Group_17">
            <path
               style="fill:#6cbdff"
               inkscape:connector-curvature="0"
               d="m 192.3,25.17 v -3 a 0.55,0.55 0 0 0 -0.55,-0.57 h -0.95 a 0.57,0.57 0 0 0 -0.57,0.56 l -0.05,3 z"
               class="cls-9"
               data-name="&lt;Path&gt;"
               id="_Path_39" />
          </g>
          <g
             data-name="&lt;Group&gt;"
             id="_Group_18">
            <path
               style="fill:#6cbdff"
               inkscape:connector-curvature="0"
               d="m 184.89,26.26 -2.35,-6 a 0.57,0.57 0 0 0 -0.73,-0.32 l -0.88,0.35 a 0.57,0.57 0 0 0 -0.32,0.73 L 183,27 Z"
               class="cls-9"
               data-name="&lt;Path&gt;"
               id="_Path_40" />
          </g>
        </g>
        <path
           style="fill:#efab95"
           inkscape:connector-curvature="0"
           d="m 181.28,87.93 h 10.49 v -1.86 c 0,0 3.58,-1.94 5.43,-3.18 1.37,-0.91 2.29,-1 2.29,-4 v -7.36 l -18.51,2.28 z"
           class="cls-11"
           data-name="&lt;Path&gt;"
           id="_Path_41" />
        <path
           style="fill:#f9c9b7"
           inkscape:connector-curvature="0"
           d="m 176,89 c 0,3.32 1.14,2.41 3.94,2.41 v 0 c 5.18,0.11 6.23,-5.41 6.23,-8.72 v -2 c 0,-4.46 -4.46,-10.1 -7.26,-10.1 v 0 c -2.8,0 -2.87,2.69 -2.87,6 z"
           class="cls-12"
           data-name="&lt;Path&gt;"
           id="_Path_42" />
        <rect
           style="fill:#ff5543"
           height="123.5"
           width="22.690001"
           y="87.900002"
           x="173.3"
           class="cls-13"
           data-name="&lt;Path&gt;"
           id="_Path_43" />
        <rect
           style="fill:#f43425"
           height="123.5"
           width="8.2200003"
           y="87.900002"
           x="187.77"
           class="cls-14"
           data-name="&lt;Path&gt;"
           id="_Path_44" />
        <g
           data-name="&lt;Group&gt;"
           id="_Group_19">
          <g
             data-name="&lt;Group&gt;"
             id="_Group_20">
            <path
               style="fill:#fff1b6"
               inkscape:connector-curvature="0"
               d="m 180.05,45.25 a 18.06,18.06 0 0 0 7.2,14.5 2.46,2.46 0 0 1 1,2 v 9.58 h -6.15 v -10.3 a 2.42,2.42 0 0 0 -1,-1.95 18.13,18.13 0 0 1 12.15,-32.54 17.7,17.7 0 0 1 3.94,0.73 18.12,18.12 0 0 0 -17.14,17.98 z"
               class="cls-25"
               data-name="&lt;Path&gt;"
               id="_Path_45" />
            <path
               style="fill:#ffe780"
               inkscape:connector-curvature="0"
               d="m 210.14,44.24 a 18.07,18.07 0 0 1 -7.29,14.85 2.44,2.44 0 0 0 -1,1.95 v 10.29 h -13.66 v -9.58 a 2.46,2.46 0 0 0 -1,-2 18.11,18.11 0 0 1 9.93,-32.54 18.25,18.25 0 0 1 13.02,17.03 z"
               class="cls-22"
               data-name="&lt;Path&gt;"
               id="_Path_46" />
          </g>
          <g
             data-name="&lt;Group&gt;"
             id="_Group_21">
            <path
               style="fill:#eab344"
               inkscape:connector-curvature="0"
               d="m 185.88,52.09 c -3.41,-1.19 -4.15,-3.44 -4.3,-4.14 a 2.61,2.61 0 0 1 0.71,-2.62 1.86,1.86 0 0 1 2,-0.18 c 1.06,0.47 2,2.89 2.8,5.83 v 0 a 4.75,4.75 0 0 0 4.33,-0.62 5.73,5.73 0 0 1 -0.65,-1.12 c -0.76,-1.74 -0.57,-3.49 0.41,-4.13 a 2.19,2.19 0 0 1 2.44,0 c 1,0.68 1.2,2.43 0.43,4.16 a 6.09,6.09 0 0 1 -0.66,1.12 4.77,4.77 0 0 0 4.33,0.64 v 0 c 0.81,-2.93 1.78,-5.34 2.84,-5.81 a 1.86,1.86 0 0 1 2,0.2 2.6,2.6 0 0 1 0.69,2.62 c -0.16,0.7 -0.91,2.94 -4.33,4.11 a 106,106 0 0 0 -2.22,11.6 h -1.42 c 0,-0.09 0.78,-6 2,-11.17 a 5.93,5.93 0 0 1 -4.92,-1.14 5.93,5.93 0 0 1 -4.92,1.11 c 1.22,5.15 2,11.09 2,11.19 H 188 a 105.91,105.91 0 0 0 -2.12,-11.65 z m 15.25,-5.59 c -0.52,0.23 -1.14,1.8 -1.75,3.91 a 4.17,4.17 0 0 0 2.48,-2.7 1.29,1.29 0 0 0 -0.2,-1.22 0.38,0.38 0 0 0 -0.22,-0.07 0.83,0.83 0 0 0 -0.31,0.08 z m -17.95,-0.07 a 1.31,1.31 0 0 0 -0.21,1.22 4.21,4.21 0 0 0 2.46,2.72 c -0.59,-2.12 -1.2,-3.69 -1.72,-3.93 a 0.83,0.83 0 0 0 -0.31,-0.08 0.38,0.38 0 0 0 -0.22,0.07 z M 192,46.27 c -0.31,0.21 -0.43,1.24 0.07,2.4 a 5.31,5.31 0 0 0 0.34,0.62 5.31,5.31 0 0 0 0.34,-0.62 c 0.52,-1.15 0.4,-2.19 0.1,-2.38 a 0.92,0.92 0 0 0 -0.47,-0.13 0.55,0.55 0 0 0 -0.38,0.11 z"
               class="cls-26"
               data-name="&lt;Compound Path&gt;"
               id="_Compound_Path_3" />
          </g>
          <g
             data-name="&lt;Group&gt;"
             id="_Group_22">
            <g
               data-name="&lt;Group&gt;"
               id="_Group_23">
              <path
                 style="fill:#ffffff"
                 inkscape:connector-curvature="0"
                 id="path420"
                 d="m 203.13,72.14 -6.61,5.49 h -9.81 l -6,-5.53 v -8 a 0.63,0.63 0 0 1 0.63,-0.63 l 21.14,0.07 a 0.63,0.63 0 0 1 0.62,0.63 z"
                 class="cls-24" />
            </g>
            <path
               style="fill:#1f418c"
               inkscape:connector-curvature="0"
               d="m 193.33,80.62 h -3.66 a 3.26,3.26 0 0 1 -3.24,-3.27 v 0 h 10.17 v 0 a 3.27,3.27 0 0 1 -3.27,3.27 z"
               class="cls-16"
               data-name="&lt;Path&gt;"
               id="_Path_47" />
            <rect
               style="fill:#b6c6cc"
               transform="rotate(-89.82,191.94004,65.717366)"
               height="22.389999"
               width="1.54"
               y="54.52"
               x="191.17999"
               class="cls-15"
               data-name="&lt;Path&gt;"
               id="_Path_48" />
            <rect
               style="fill:#b6c6cc"
               transform="rotate(-89.82,191.93441,68.511771)"
               height="22.389999"
               width="1.54"
               y="57.310001"
               x="191.17"
               class="cls-15"
               data-name="&lt;Path&gt;"
               id="_Path_49" />
            <rect
               style="fill:#b6c6cc"
               transform="rotate(-89.82,191.92377,71.301176)"
               height="22.389999"
               width="1.54"
               y="60.110001"
               x="191.17"
               class="cls-15"
               data-name="&lt;Path&gt;"
               id="_Path_50" />
          </g>
        </g>
        <path
           style="fill:#f9c9b7"
           inkscape:connector-curvature="0"
           d="m 176,86.85 -0.86,-16.92 a 3.32,3.32 0 0 1 0.48,-1.79 l 1.81,-3 a 3.3,3.3 0 0 1 2.83,-1.59 h 6.77 c 1,0.83 -0.58,4.15 -1.8,4.15 -1.22,0 -3.58,0.13 -3.58,0.13 l -0.82,3.79 z"
           class="cls-12"
           data-name="&lt;Path&gt;"
           id="_Path_51" />
        <path
           style="fill:#f9c9b7"
           inkscape:connector-curvature="0"
           d="m 194.14,59.57 a 1.94,1.94 0 0 0 1.56,2.18 l 9.84,0.07 c 0.9,0 1.65,-0.9 1.68,-2.08 v 0 a 1.92,1.92 0 0 0 -1.55,-2.17 l -9.85,-0.08 a 1.94,1.94 0 0 0 -1.68,2.08 z"
           class="cls-12"
           data-name="&lt;Path&gt;"
           id="_Path_52" />
        <path
           style="fill:#f9c9b7"
           inkscape:connector-curvature="0"
           d="m 190.37,64.87 a 1.92,1.92 0 0 0 1.55,2.13 h 14.27 a 1.93,1.93 0 0 0 1.67,-2 v 0 a 1.93,1.93 0 0 0 -1.55,-2.18 h -14.26 c -0.9,0 -1.65,0.9 -1.68,2.08 z"
           class="cls-12"
           data-name="&lt;Path&gt;"
           id="_Path_53" />
        <path
           style="fill:#f9c9b7"
           inkscape:connector-curvature="0"
           d="m 191.59,70.09 a 1.93,1.93 0 0 0 1.56,2.17 l 11.5,0.06 c 0.89,0 1.65,-0.9 1.68,-2.08 v 0 a 1.92,1.92 0 0 0 -1.55,-2.17 L 193.27,68 c -0.89,0 -1.64,0.9 -1.68,2.08 z"
           class="cls-12"
           data-name="&lt;Path&gt;"
           id="_Path_54" />
        <path
           style="fill:#f9c9b7"
           inkscape:connector-curvature="0"
           d="m 195,75.12 a 1.93,1.93 0 0 0 1.55,2.18 l 6.54,0.11 a 1.93,1.93 0 0 0 1.67,-2.08 v 0 a 1.93,1.93 0 0 0 -1.55,-2.18 L 196.69,73 A 1.93,1.93 0 0 0 195,75.12 Z"
           class="cls-12"
           data-name="&lt;Path&gt;"
           id="_Path_55" />
        <path
           style="fill:#efab95"
           inkscape:connector-curvature="0"
           d="m 146.63,95 h -11.1 v -2 c 0,0 -3.79,-2.06 -5.74,-3.36 -1.44,-1 -2.42,-1 -2.42,-4.27 V 66.52 L 147,68 Z"
           class="cls-11"
           data-name="&lt;Path&gt;"
           id="_Path_56" />
        <g
           data-name="&lt;Group&gt;"
           id="_Group_24">
          <path
             style="fill:#ffe780"
             inkscape:connector-curvature="0"
             d="m 134.88,63.19 v 5.33 a 1.76,1.76 0 0 0 1.76,1.76 3.48,3.48 0 0 1 3.48,3.48 V 88 a 3.32,3.32 0 0 0 2.88,3.34 3.18,3.18 0 0 0 3.51,-3.17 V 73.76 a 3.48,3.48 0 0 1 3.49,-3.48 1.76,1.76 0 0 0 1.76,-1.76 v -5.33 z m 8.42,25.87 a 1.11,1.11 0 0 1 0,-2.21 1.11,1.11 0 1 1 0,2.21 z"
             class="cls-22"
             data-name="&lt;Compound Path&gt;"
             id="_Compound_Path_4" />
          <rect
             style="fill:#166bc1"
             height="12.13"
             width="16.84"
             y="46.799999"
             x="134.88"
             class="cls-27"
             data-name="&lt;Path&gt;"
             id="_Path_57" />
          <rect
             style="fill:#1f418c"
             height="12.13"
             width="6.6999998"
             y="46.799999"
             x="144.95"
             class="cls-16"
             data-name="&lt;Path&gt;"
             id="_Path_58" />
          <rect
             style="fill:#9e9e9e"
             height="4.9699998"
             width="16.84"
             y="58.209999"
             x="134.88"
             class="cls-28"
             data-name="&lt;Path&gt;"
             id="_Path_59" />
          <rect
             style="fill:#c5c5c5"
             height="0.75"
             width="16.84"
             y="58.5"
             x="134.88"
             class="cls-29"
             data-name="&lt;Path&gt;"
             id="_Path_60" />
          <rect
             style="fill:#c5c5c5"
             height="0.75"
             width="16.84"
             y="60.27"
             x="134.88"
             class="cls-29"
             data-name="&lt;Path&gt;"
             id="_Path_61" />
          <rect
             style="fill:#c5c5c5"
             height="0.75"
             width="16.84"
             y="62.040001"
             x="134.88"
             class="cls-29"
             data-name="&lt;Path&gt;"
             id="_Path_62" />
          <path
             style="fill:#eab344"
             inkscape:connector-curvature="0"
             d="m 143.3,63.19 v 23.66 a 1.11,1.11 0 1 1 0,2.21 v 2.27 a 3.16,3.16 0 0 0 3.18,-3.16 V 73.76 a 3.48,3.48 0 0 1 3.52,-3.48 1.76,1.76 0 0 0 1.76,-1.76 v -5.33 z"
             class="cls-26"
             data-name="&lt;Path&gt;"
             id="_Path_63" />
        </g>
        <path
           style="fill:#f9c9b7"
           inkscape:connector-curvature="0"
           d="m 152.16,96.12 c 0,3.51 -1.2,2.54 -4.16,2.54 v 0 c -5.48,0.12 -6.6,-5.72 -6.6,-9.22 v -2.17 c 0,-4.71 4.73,-10.67 7.69,-10.67 v 0 c 3,0 3,2.84 3,6.35 z"
           class="cls-12"
           data-name="&lt;Path&gt;"
           id="_Path_64" />
        <rect
           style="fill:#ff5543"
           height="116.16"
           width="22.82"
           y="95.010002"
           x="131.89"
           class="cls-13"
           data-name="&lt;Path&gt;"
           id="_Path_65" />
        <rect
           style="fill:#f43425"
           height="116.16"
           width="9.1000004"
           y="95.010002"
           x="145.61"
           class="cls-14"
           data-name="&lt;Path&gt;"
           id="_Path_66" />
        <path
           style="fill:#f9c9b7"
           inkscape:connector-curvature="0"
           d="m 136.83,65.93 a 2,2 0 0 1 -1.65,2.3 l -10.41,0.08 c -0.94,0 -1.74,-1 -1.77,-2.2 v 0 a 2,2 0 0 1 1.64,-2.3 l 10.41,-0.08 c 0.95,0 1.74,1 1.78,2.2 z"
           class="cls-12"
           data-name="&lt;Path&gt;"
           id="_Path_67" />
        <path
           style="fill:#f9c9b7"
           inkscape:connector-curvature="0"
           id="path448"
           d="m 136.67,69.34 h -12.71 a 2,2 0 0 0 -1.64,2.3 c 0,1.24 0.83,2.22 1.77,2.19 h 15.09 a 1.41,1.41 0 0 0 0.83,-0.33 h -1.24 c -1.19,-0.03 -2.7,-3.01 -2.1,-4.16 z"
           class="cls-12" />
        <path
           style="fill:#efab95"
           inkscape:connector-curvature="0"
           id="path450"
           d="m 140.82,71.53 c 0,-1.24 -0.83,-2.23 -1.78,-2.2 h -2.37 c -0.6,1.15 0.91,4.13 2.1,4.13 h 1.24 a 2.44,2.44 0 0 0 0.81,-1.93 z"
           class="cls-11" />
        <path
           style="fill:#f9c9b7"
           inkscape:connector-curvature="0"
           d="m 139.52,77.05 a 2,2 0 0 1 -1.64,2.3 l -12.16,0.06 c -1,0 -1.74,-1 -1.78,-2.2 v 0 a 2,2 0 0 1 1.65,-2.3 l 12.16,-0.06 c 0.94,0 1.74,1 1.77,2.2 z"
           class="cls-12"
           data-name="&lt;Path&gt;"
           id="_Path_68" />
        <path
           style="fill:#f9c9b7"
           inkscape:connector-curvature="0"
           d="m 135.92,82.37 a 2,2 0 0 1 -1.65,2.3 l -6.91,0.11 a 2,2 0 0 1 -1.77,-2.19 v 0 a 2,2 0 0 1 1.64,-2.3 l 6.91,-0.12 a 2.05,2.05 0 0 1 1.78,2.2 z"
           class="cls-12"
           data-name="&lt;Path&gt;"
           id="_Path_69" />
        <path
           style="fill:#f9c9b7"
           inkscape:connector-curvature="0"
           d="M 152.16,94.6 V 75.43 a 2.29,2.29 0 0 0 -0.34,-1.22 l -2.43,-4 a 2.36,2.36 0 0 0 -2,-1.13 h -7.81 c -1.07,0.88 0.61,4.39 1.91,4.39 1.3,0 3.78,0.13 3.78,0.13 l 0.86,4 z"
           class="cls-12"
           data-name="&lt;Path&gt;"
           id="_Path_70" />
        <path
           style="fill:#ffffff"
           inkscape:connector-curvature="0"
           id="path455"
           d="m 270.7,200.48 a 5.34,5.34 0 0 0 -5.24,-4.31 h -66.7 a 19.22,19.22 0 0 0 -13.95,6 19.26,19.26 0 0 0 -14,-6 h -66.7 a 5.34,5.34 0 0 0 -5.24,4.31 l -5.71,22 h 80 q 0.06,-0.36 0.15,-0.72 c 2.8,-11.84 20.14,-11.84 22.93,0 q 0.09,0.36 0.15,0.72 h 80 z"
           class="cls-24" />
        <path
           style="fill:#1f418c"
           inkscape:connector-curvature="0"
           id="path457"
           d="m 281.56,221.92 a 2.33,2.33 0 0 0 -1.95,-1 v 0 a 2.33,2.33 0 0 1 1.95,1 z"
           class="cls-16" />
        <path
           style="fill:#1f418c"
           inkscape:connector-curvature="0"
           id="path459"
           d="m 279.61,225.58 v 0 a 2.34,2.34 0 0 0 1.95,-1 2.34,2.34 0 0 1 -1.95,1 z"
           class="cls-16" />
        <path
           style="fill:#1f418c"
           inkscape:connector-curvature="0"
           id="path461"
           d="m 88.05,224.55 a 2.36,2.36 0 0 0 2,1 v 0 a 2.36,2.36 0 0 1 -2,-1 z"
           class="cls-16" />
        <path
           style="fill:#1f418c"
           inkscape:connector-curvature="0"
           id="path463"
           d="m 90,220.88 v 0 a 2.34,2.34 0 0 0 -2,1 2.34,2.34 0 0 1 2,-1 z"
           class="cls-16" />
        <path
           style="fill:#1f418c"
           inkscape:connector-curvature="0"
           id="path465"
           d="m 281.56,221.92 a 2.33,2.33 0 0 0 -1.95,-1 h -83.93 v -0.16 c -2.27,-11.81 -19.42,-11.81 -21.69,0 v 0.16 H 90 a 2.35,2.35 0 0 0 -2.35,2.35 2.39,2.39 0 0 0 0.4,1.32 2.36,2.36 0 0 0 2,1 h 86.37 a 2.06,2.06 0 0 0 2.06,-2.05 8.44,8.44 0 0 1 0,-0.87 c 0.7,-7.48 12,-7.48 12.68,0 0,0.29 0,0.58 0,0.87 a 2,2 0 0 0 2,2.05 h 86.38 a 2.34,2.34 0 0 0 1.95,-1 2.31,2.31 0 0 0 0.4,-1.32 2.28,2.28 0 0 0 -0.33,-1.35 z"
           class="cls-16" />
        <path
           style="fill:#efefef"
           inkscape:connector-curvature="0"
           d="m 264.7,207.42 h -66.35 a 1,1 0 0 1 -1,-1 v -2 a 1,1 0 0 1 1,-1 h 65.82 a 1,1 0 0 1 1,0.76 l 0.53,2.05 a 1,1 0 0 1 -1,1.19 z"
           class="cls-30"
           data-name="&lt;Path&gt;"
           id="_Path_71" />
        <path
           style="fill:#efefef"
           inkscape:connector-curvature="0"
           d="M 101.92,209.43 H 167 a 1,1 0 0 1 0.88,1 v 2.42 a 1,1 0 0 1 -0.88,1 h -65.62 a 1,1 0 0 1 -0.85,-1.28 l 0.54,-2.43 a 0.91,0.91 0 0 1 0.85,-0.71 z"
           class="cls-30"
           data-name="&lt;Path&gt;"
           id="_Path_72" />
        <path
           style="fill:#efefef"
           inkscape:connector-curvature="0"
           d="m 103.51,202.32 h 67.74 a 1,1 0 0 1 0.88,1 v 0 a 1,1 0 0 1 -0.88,1 h -68.88 l 0.29,-1.28 a 0.91,0.91 0 0 1 0.85,-0.72 z"
           class="cls-30"
           data-name="&lt;Path&gt;"
           id="_Path_73" />
        <path
           style="fill:#efefef"
           inkscape:connector-curvature="0"
           d="m 267.51,213.14 h -61.2 a 1,1 0 0 1 -1,-1 v 0 a 1,1 0 0 1 1,-1 h 59.88 a 1,1 0 0 1 1,0.76 z"
           class="cls-30"
           data-name="&lt;Path&gt;"
           id="_Path_74" />
        <path
           style="fill:#6cbdff"
           inkscape:connector-curvature="0"
           d="m 52.18,51 -1.74,1.6 a 0.86,0.86 0 0 0 -0.06,1.22 l 2,2.23 a 0.86,0.86 0 0 0 1.22,0 L 55,54.87 a 0.73,0.73 0 0 1 0.83,-0.1 l 0.5,0.23 a 0.74,0.74 0 0 1 0.46,0.7 l -0.09,1.85 a 0.86,0.86 0 0 0 0.83,0.9 l 3,0.14 a 0.86,0.86 0 0 0 0.9,-0.83 L 61.52,55.9 A 0.71,0.71 0 0 1 62,55.26 l 0.57,-0.21 a 0.73,0.73 0 0 1 0.79,0.18 l 1.26,1.38 a 0.86,0.86 0 0 0 1.22,0.06 l 2.23,-2 a 0.86,0.86 0 0 0 0,-1.22 l -1.24,-1.37 a 0.73,0.73 0 0 1 -0.1,-0.83 c 0.09,-0.17 0.17,-0.35 0.24,-0.52 a 0.73,0.73 0 0 1 0.7,-0.46 l 1.85,0.08 a 0.86,0.86 0 0 0 0.9,-0.83 l 0.13,-3 a 0.86,0.86 0 0 0 -0.83,-0.9 L 67.86,45.54 A 0.73,0.73 0 0 1 67.22,45.06 C 67.15,44.87 67.07,44.66 67,44.49 a 0.73,0.73 0 0 1 0.19,-0.79 l 1.38,-1.26 a 0.87,0.87 0 0 0 0.05,-1.22 l -2,-2.23 A 0.87,0.87 0 0 0 65.4,38.94 l -1.36,1.25 a 0.73,0.73 0 0 1 -0.83,0.1 l -0.5,-0.23 a 0.75,0.75 0 0 1 -0.46,-0.7 l 0.08,-1.85 a 0.85,0.85 0 0 0 -0.82,-0.9 l -3,-0.14 A 0.87,0.87 0 0 0 57.6,37.3 l -0.08,1.86 a 0.71,0.71 0 0 1 -0.48,0.65 l -0.57,0.21 A 0.71,0.71 0 0 1 55.68,39.83 L 54.42,38.46 A 0.86,0.86 0 0 0 53.2,38.4 l -2.2,2 a 0.87,0.87 0 0 0 0,1.22 L 52.18,43 a 0.71,0.71 0 0 1 0.1,0.82 c -0.09,0.17 -0.16,0.33 -0.24,0.5 a 0.72,0.72 0 0 1 -0.69,0.46 L 49.5,44.7 a 0.86,0.86 0 0 0 -0.91,0.82 l -0.13,3 a 0.87,0.87 0 0 0 0.82,0.91 l 1.87,0.08 a 0.71,0.71 0 0 1 0.64,0.48 C 52,50.45 52.17,51 52.18,51 Z m 11,-5.76 A 4.27,4.27 0 1 1 58,43.53 a 4.31,4.31 0 0 1 5.16,1.72 z"
           class="cls-9"
           data-name="&lt;Compound Path&gt;"
           id="_Compound_Path_5" />
        <path
           style="fill:#6cbdff"
           inkscape:connector-curvature="0"
           d="m 73,81.13 -1.43,0.2 a 0.53,0.53 0 0 0 -0.45,0.6 l 0.25,1.82 a 0.54,0.54 0 0 0 0.6,0.45 L 73.05,84 a 0.46,0.46 0 0 1 0.45,0.24 2.75,2.75 0 0 0 0.17,0.29 0.45,0.45 0 0 1 0,0.51 L 73,86 a 0.53,0.53 0 0 0 0.1,0.74 l 1.47,1.11 a 0.53,0.53 0 0 0 0.74,-0.1 L 76,86.84 a 0.45,0.45 0 0 1 0.46,-0.16 2.7,2.7 0 0 0 0.36,0.09 0.44,0.44 0 0 1 0.33,0.37 l 0.16,1.13 a 0.52,0.52 0 0 0 0.59,0.45 l 1.83,-0.25 a 0.53,0.53 0 0 0 0.45,-0.6 L 80,86.73 a 0.45,0.45 0 0 1 0.24,-0.45 2.38,2.38 0 0 0 0.3,-0.18 0.45,0.45 0 0 1 0.51,0 l 0.91,0.68 a 0.53,0.53 0 0 0 0.74,-0.1 l 1.1,-1.47 a 0.53,0.53 0 0 0 -0.1,-0.74 l -0.91,-0.69 a 0.42,0.42 0 0 1 -0.16,-0.46 c 0,-0.12 0.06,-0.25 0.09,-0.36 a 0.41,0.41 0 0 1 0.36,-0.33 l 1.13,-0.16 a 0.53,0.53 0 0 0 0.45,-0.6 L 84.4,80.05 A 0.52,0.52 0 0 0 83.81,79.6 l -1.12,0.16 a 0.46,0.46 0 0 1 -0.45,-0.24 c -0.06,-0.1 -0.11,-0.2 -0.17,-0.29 a 0.45,0.45 0 0 1 0,-0.51 l 0.68,-0.9 A 0.53,0.53 0 0 0 82.64,77.08 L 81.18,76 a 0.53,0.53 0 0 0 -0.74,0.11 l -0.68,0.9 a 0.43,0.43 0 0 1 -0.47,0.16 L 78.93,77.08 A 0.44,0.44 0 0 1 78.6,76.72 L 78.44,75.59 A 0.52,0.52 0 0 0 77.85,75.14 L 76,75.37 a 0.54,0.54 0 0 0 -0.45,0.6 l 0.16,1.12 a 0.44,0.44 0 0 1 -0.23,0.45 l -0.3,0.17 a 0.44,0.44 0 0 1 -0.5,0 L 73.79,77 a 0.53,0.53 0 0 0 -0.74,0.1 L 72,78.59 a 0.53,0.53 0 0 0 0.1,0.74 L 73,80 a 0.45,0.45 0 0 1 0.16,0.46 C 73,80.77 73,81.11 73,81.13 Z m 7.52,0.89 a 2.61,2.61 0 1 1 -2,-2.65 2.62,2.62 0 0 1 1.96,2.63 z"
           class="cls-9"
           data-name="&lt;Compound Path&gt;"
           id="_Compound_Path_6" />
        <path
           style="fill:#6cbdff"
           inkscape:connector-curvature="0"
           d="m 130.37,23.8 -1,0.14 a 0.38,0.38 0 0 0 -0.32,0.43 l 0.18,1.32 a 0.38,0.38 0 0 0 0.43,0.32 l 0.81,-0.11 a 0.31,0.31 0 0 1 0.32,0.17 l 0.12,0.21 a 0.29,0.29 0 0 1 0,0.36 l -0.49,0.65 a 0.39,0.39 0 0 0 0.08,0.54 l 1.06,0.8 a 0.38,0.38 0 0 0 0.53,-0.08 l 0.49,-0.65 a 0.32,0.32 0 0 1 0.34,-0.12 l 0.26,0.07 a 0.32,0.32 0 0 1 0.24,0.26 l 0.11,0.82 a 0.38,0.38 0 0 0 0.43,0.32 l 1.31,-0.18 a 0.38,0.38 0 0 0 0.33,-0.43 l -0.11,-0.81 a 0.31,0.31 0 0 1 0.17,-0.32 l 0.22,-0.13 a 0.32,0.32 0 0 1 0.36,0 l 0.65,0.49 a 0.39,0.39 0 0 0 0.54,-0.08 l 0.79,-1.06 a 0.37,0.37 0 0 0 -0.07,-0.53 l -0.66,-0.49 a 0.31,0.31 0 0 1 -0.11,-0.34 l 0.06,-0.26 a 0.32,0.32 0 0 1 0.26,-0.24 l 0.82,-0.11 a 0.38,0.38 0 0 0 0.32,-0.43 L 138.62,23 a 0.39,0.39 0 0 0 -0.43,-0.32 l -0.81,0.11 a 0.31,0.31 0 0 1 -0.32,-0.17 1.37,1.37 0 0 0 -0.13,-0.2 0.33,0.33 0 0 1 0,-0.37 l 0.49,-0.65 a 0.39,0.39 0 0 0 -0.07,-0.54 l -1.06,-0.79 a 0.38,0.38 0 0 0 -0.54,0.07 l -0.49,0.66 a 0.31,0.31 0 0 1 -0.34,0.11 l -0.26,-0.06 a 0.31,0.31 0 0 1 -0.23,-0.27 l -0.12,-0.81 a 0.38,0.38 0 0 0 -0.43,-0.32 l -1.31,0.18 a 0.39,0.39 0 0 0 -0.33,0.43 l 0.12,0.81 a 0.31,0.31 0 0 1 -0.17,0.32 l -0.21,0.12 a 0.32,0.32 0 0 1 -0.37,0 l -0.65,-0.49 a 0.37,0.37 0 0 0 -0.53,0.07 l -0.8,1.06 a 0.38,0.38 0 0 0 0.07,0.53 l 0.66,0.5 a 0.3,0.3 0 0 1 0.11,0.33 c -0.04,0.23 -0.1,0.47 -0.1,0.49 z m 5.42,0.64 a 1.88,1.88 0 1 1 -1.45,-1.91 1.89,1.89 0 0 1 1.45,1.91 z"
           class="cls-9"
           data-name="&lt;Compound Path&gt;"
           id="_Compound_Path_7" />
        <path
           style="fill:#6cbdff"
           inkscape:connector-curvature="0"
           id="path474"
           d="M 92,60.31 H 90.28 A 0.38,0.38 0 0 1 89.9,59.93 v -1.74 a 0.38,0.38 0 0 0 -0.38,-0.38 h -0.69 a 0.38,0.38 0 0 0 -0.38,0.38 v 1.74 a 0.38,0.38 0 0 1 -0.38,0.38 h -1.74 a 0.39,0.39 0 0 0 -0.38,0.39 v 0.68 a 0.38,0.38 0 0 0 0.38,0.38 h 1.74 a 0.38,0.38 0 0 1 0.38,0.38 v 1.74 a 0.38,0.38 0 0 0 0.38,0.39 h 0.69 a 0.38,0.38 0 0 0 0.38,-0.39 v -1.74 a 0.38,0.38 0 0 1 0.38,-0.38 H 92 a 0.38,0.38 0 0 0 0.38,-0.38 V 60.7 A 0.39,0.39 0 0 0 92,60.31 Z"
           class="cls-9" />
        <path
           style="fill:#6cbdff"
           inkscape:connector-curvature="0"
           id="path476"
           d="m 109.21,33.69 h -3.08 a 0.67,0.67 0 0 1 -0.68,-0.68 v -3.08 a 0.67,0.67 0 0 0 -0.67,-0.67 h -1.21 a 0.67,0.67 0 0 0 -0.68,0.67 V 33 a 0.67,0.67 0 0 1 -0.67,0.68 h -3.09 a 0.67,0.67 0 0 0 -0.67,0.67 v 1.22 a 0.67,0.67 0 0 0 0.67,0.67 h 3.09 a 0.67,0.67 0 0 1 0.67,0.68 V 40 a 0.67,0.67 0 0 0 0.68,0.67 h 1.21 A 0.67,0.67 0 0 0 105.45,40 v -3.07 a 0.67,0.67 0 0 1 0.68,-0.68 h 3.08 a 0.68,0.68 0 0 0 0.68,-0.67 v -1.22 a 0.68,0.68 0 0 0 -0.68,-0.67 z"
           class="cls-9" />
        <path
           style="fill:#6cbdff"
           inkscape:connector-curvature="0"
           id="path478"
           d="m 103.39,95.61 h -2 a 0.44,0.44 0 0 1 -0.44,-0.44 v -2 a 0.44,0.44 0 0 0 -0.44,-0.44 h -0.79 a 0.44,0.44 0 0 0 -0.44,0.44 v 2 a 0.44,0.44 0 0 1 -0.44,0.44 h -2 a 0.44,0.44 0 0 0 -0.44,0.44 v 0.79 a 0.44,0.44 0 0 0 0.44,0.44 h 2 a 0.44,0.44 0 0 1 0.44,0.44 v 2 a 0.44,0.44 0 0 0 0.44,0.44 h 0.79 a 0.44,0.44 0 0 0 0.44,-0.44 v -2 a 0.44,0.44 0 0 1 0.44,-0.44 h 2 a 0.44,0.44 0 0 0 0.44,-0.44 v -0.79 a 0.44,0.44 0 0 0 -0.44,-0.44 z"
           class="cls-9" />
        <path
           style="fill:#6cbdff"
           inkscape:connector-curvature="0"
           d="m 322.69,240.61 1.75,-1.59 a 0.88,0.88 0 0 0 0.05,-1.23 l -2,-2.22 a 0.87,0.87 0 0 0 -1.23,-0.06 l -1.36,1.25 a 0.74,0.74 0 0 1 -0.83,0.1 4.59,4.59 0 0 0 -0.5,-0.24 0.72,0.72 0 0 1 -0.45,-0.7 l 0.08,-1.84 a 0.87,0.87 0 0 0 -0.83,-0.91 l -3,-0.14 a 0.87,0.87 0 0 0 -0.9,0.83 l -0.09,1.86 a 0.7,0.7 0 0 1 -0.48,0.64 l -0.57,0.22 a 0.71,0.71 0 0 1 -0.78,-0.19 l -1.3,-1.39 a 0.88,0.88 0 0 0 -1.25,0 l -2.22,2 a 0.87,0.87 0 0 0 -0.06,1.23 l 1.25,1.36 a 0.74,0.74 0 0 1 0.09,0.83 c -0.08,0.17 -0.17,0.35 -0.24,0.53 a 0.72,0.72 0 0 1 -0.7,0.45 l -1.85,-0.08 a 0.86,0.86 0 0 0 -0.9,0.83 l -0.13,3 a 0.88,0.88 0 0 0 0.83,0.91 l 1.86,0.08 a 0.72,0.72 0 0 1 0.65,0.48 c 0.06,0.19 0.14,0.39 0.21,0.57 a 0.72,0.72 0 0 1 -0.19,0.78 l -1.37,1.26 a 0.87,0.87 0 0 0 -0.06,1.23 l 2,2.22 a 0.86,0.86 0 0 0 1.22,0.05 l 1.37,-1.25 a 0.73,0.73 0 0 1 0.82,-0.1 l 0.5,0.24 a 0.72,0.72 0 0 1 0.46,0.69 l -0.08,1.85 a 0.87,0.87 0 0 0 0.83,0.91 l 3,0.13 a 0.86,0.86 0 0 0 0.9,-0.83 l 0.08,-1.86 a 0.73,0.73 0 0 1 0.48,-0.64 l 0.58,-0.22 a 0.72,0.72 0 0 1 0.78,0.19 l 1.26,1.38 a 0.87,0.87 0 0 0 1.22,0 l 2.23,-2 a 0.87,0.87 0 0 0 0.05,-1.23 l -1.25,-1.36 a 0.76,0.76 0 0 1 -0.1,-0.83 4.59,4.59 0 0 0 0.24,-0.5 0.72,0.72 0 0 1 0.7,-0.45 l 1.85,0.08 a 0.87,0.87 0 0 0 0.9,-0.83 l 0.13,-3 a 0.85,0.85 0 0 0 -0.82,-0.9 l -1.86,-0.09 a 0.71,0.71 0 0 1 -0.65,-0.48 c -0.09,-0.46 -0.31,-0.99 -0.32,-1.02 z m -11,5.76 a 4.27,4.27 0 1 1 5.17,1.72 4.27,4.27 0 0 1 -5.15,-1.72 z"
           class="cls-9"
           data-name="&lt;Compound Path&gt;"
           id="_Compound_Path_8" />
        <path
           style="fill:#6cbdff"
           inkscape:connector-curvature="0"
           d="m 301.91,210.49 1.43,-0.2 a 0.53,0.53 0 0 0 0.45,-0.59 l -0.25,-1.83 a 0.53,0.53 0 0 0 -0.6,-0.45 l -1.12,0.16 a 0.45,0.45 0 0 1 -0.45,-0.24 c -0.05,-0.1 -0.11,-0.19 -0.17,-0.29 a 0.45,0.45 0 0 1 0,-0.51 l 0.69,-0.9 a 0.53,0.53 0 0 0 -0.11,-0.74 l -1.47,-1.11 a 0.53,0.53 0 0 0 -0.74,0.11 l -0.68,0.9 a 0.43,0.43 0 0 1 -0.47,0.16 l -0.36,-0.09 a 0.45,0.45 0 0 1 -0.33,-0.37 l -0.15,-1.12 a 0.54,0.54 0 0 0 -0.6,-0.46 l -1.82,0.26 a 0.51,0.51 0 0 0 -0.45,0.59 l 0.15,1.12 a 0.43,0.43 0 0 1 -0.24,0.45 l -0.3,0.18 a 0.45,0.45 0 0 1 -0.51,0 l -0.9,-0.68 a 0.53,0.53 0 0 0 -0.74,0.11 l -1.11,1.47 a 0.53,0.53 0 0 0 0.11,0.74 l 0.91,0.68 a 0.46,0.46 0 0 1 0.16,0.47 c 0,0.12 -0.07,0.25 -0.1,0.36 a 0.44,0.44 0 0 1 -0.36,0.33 l -1.13,0.16 a 0.53,0.53 0 0 0 -0.45,0.59 l 0.26,1.83 a 0.53,0.53 0 0 0 0.6,0.45 l 1.11,-0.16 a 0.45,0.45 0 0 1 0.46,0.23 2.75,2.75 0 0 0 0.17,0.29 0.44,0.44 0 0 1 0,0.51 l -0.67,0.9 a 0.53,0.53 0 0 0 0.1,0.74 l 1.47,1.11 a 0.53,0.53 0 0 0 0.74,-0.1 l 0.68,-0.91 a 0.45,0.45 0 0 1 0.47,-0.16 l 0.36,0.09 a 0.42,0.42 0 0 1 0.33,0.36 l 0.16,1.13 a 0.52,0.52 0 0 0 0.6,0.45 l 1.82,-0.25 a 0.53,0.53 0 0 0 0.45,-0.6 l -0.16,-1.12 a 0.45,0.45 0 0 1 0.24,-0.45 l 0.29,-0.17 a 0.45,0.45 0 0 1 0.51,0 l 0.9,0.68 a 0.53,0.53 0 0 0 0.74,-0.1 l 1.11,-1.47 a 0.53,0.53 0 0 0 -0.11,-0.74 l -0.91,-0.68 a 0.44,0.44 0 0 1 -0.15,-0.47 c 0.07,-0.29 0.14,-0.63 0.14,-0.65 z m -7.51,-0.89 a 2.61,2.61 0 1 1 2,2.65 2.6,2.6 0 0 1 -2,-2.65 z"
           class="cls-9"
           data-name="&lt;Compound Path&gt;"
           id="_Compound_Path_9" />
        <path
           style="fill:#6cbdff"
           inkscape:connector-curvature="0"
           d="m 244.5,267.82 1,-0.14 a 0.38,0.38 0 0 0 0.33,-0.43 l -0.19,-1.31 a 0.38,0.38 0 0 0 -0.43,-0.33 l -0.8,0.12 a 0.36,0.36 0 0 1 -0.33,-0.17 l -0.12,-0.21 a 0.33,0.33 0 0 1 0,-0.37 l 0.49,-0.65 a 0.38,0.38 0 0 0 -0.07,-0.53 l -1.06,-0.8 a 0.38,0.38 0 0 0 -0.54,0.07 l -0.49,0.66 a 0.33,0.33 0 0 1 -0.34,0.11 l -0.26,-0.07 a 0.3,0.3 0 0 1 -0.23,-0.26 l -0.12,-0.81 a 0.38,0.38 0 0 0 -0.43,-0.33 l -1.31,0.18 a 0.38,0.38 0 0 0 -0.32,0.43 l 0.11,0.81 a 0.31,0.31 0 0 1 -0.17,0.32 l -0.22,0.13 a 0.3,0.3 0 0 1 -0.37,0 l -0.65,-0.48 a 0.37,0.37 0 0 0 -0.53,0.07 l -0.8,1.06 a 0.37,0.37 0 0 0 0.08,0.53 l 0.65,0.5 a 0.32,0.32 0 0 1 0.12,0.33 c 0,0.09 0,0.18 -0.07,0.26 a 0.31,0.31 0 0 1 -0.26,0.24 l -0.82,0.12 a 0.38,0.38 0 0 0 -0.32,0.43 l 0.19,1.31 a 0.38,0.38 0 0 0 0.43,0.32 l 0.8,-0.11 a 0.32,0.32 0 0 1 0.33,0.17 l 0.12,0.21 a 0.32,0.32 0 0 1 0,0.36 l -0.49,0.65 a 0.39,0.39 0 0 0 0.08,0.54 l 1.06,0.8 a 0.38,0.38 0 0 0 0.53,-0.08 l 0.49,-0.65 a 0.32,0.32 0 0 1 0.34,-0.12 l 0.26,0.07 a 0.32,0.32 0 0 1 0.24,0.26 l 0.11,0.81 a 0.38,0.38 0 0 0 0.43,0.33 l 1.31,-0.19 a 0.38,0.38 0 0 0 0.33,-0.43 l -0.11,-0.8 a 0.33,0.33 0 0 1 0.16,-0.33 l 0.21,-0.12 a 0.33,0.33 0 0 1 0.37,0 l 0.65,0.49 a 0.38,0.38 0 0 0 0.53,-0.08 l 0.8,-1.06 a 0.37,0.37 0 0 0 -0.07,-0.53 l -0.66,-0.49 a 0.33,0.33 0 0 1 -0.11,-0.34 4.65,4.65 0 0 0 0.14,-0.47 z m -5.41,-0.64 a 1.87,1.87 0 0 1 2.3,-1.74 1.87,1.87 0 1 1 -2.3,1.74 z"
           class="cls-9"
           data-name="&lt;Compound Path&gt;"
           id="_Compound_Path_10" />
        <path
           style="fill:#6cbdff"
           inkscape:connector-curvature="0"
           id="path483"
           d="m 286.38,237.44 h 1.74 a 0.39,0.39 0 0 1 0.39,0.38 v 1.74 a 0.38,0.38 0 0 0 0.38,0.38 h 0.68 a 0.38,0.38 0 0 0 0.38,-0.38 v -1.74 a 0.38,0.38 0 0 1 0.38,-0.38 h 1.75 a 0.39,0.39 0 0 0 0.38,-0.39 v -0.68 a 0.38,0.38 0 0 0 -0.38,-0.38 h -1.75 a 0.38,0.38 0 0 1 -0.38,-0.38 v -1.74 a 0.38,0.38 0 0 0 -0.38,-0.39 h -0.68 a 0.38,0.38 0 0 0 -0.38,0.39 v 1.74 a 0.39,0.39 0 0 1 -0.39,0.38 h -1.74 a 0.38,0.38 0 0 0 -0.38,0.38 v 0.68 a 0.39,0.39 0 0 0 0.38,0.39 z"
           class="cls-9" />
        <path
           style="fill:#6cbdff"
           inkscape:connector-curvature="0"
           id="path485"
           d="m 269.19,266.67 h 3.09 a 0.67,0.67 0 0 1 0.67,0.67 v 3.09 a 0.67,0.67 0 0 0 0.68,0.67 h 1.21 a 0.67,0.67 0 0 0 0.67,-0.67 v -3.09 a 0.68,0.68 0 0 1 0.68,-0.67 h 3.08 A 0.69,0.69 0 0 0 280,266 v -1.21 a 0.69,0.69 0 0 0 -0.68,-0.68 h -3.08 a 0.68,0.68 0 0 1 -0.68,-0.67 v -3.08 a 0.67,0.67 0 0 0 -0.67,-0.68 h -1.21 a 0.67,0.67 0 0 0 -0.68,0.68 v 3.08 a 0.67,0.67 0 0 1 -0.67,0.67 h -3.09 a 0.68,0.68 0 0 0 -0.67,0.68 V 266 a 0.68,0.68 0 0 0 0.62,0.67 z"
           class="cls-9" />
        <path
           style="fill:#6cbdff"
           inkscape:connector-curvature="0"
           id="path487"
           d="m 275,185.76 h 2 a 0.44,0.44 0 0 1 0.44,0.44 v 2 a 0.44,0.44 0 0 0 0.44,0.44 h 0.79 a 0.43,0.43 0 0 0 0.44,-0.44 v -2 a 0.44,0.44 0 0 1 0.44,-0.44 h 2 a 0.43,0.43 0 0 0 0.44,-0.44 v -0.79 a 0.44,0.44 0 0 0 -0.44,-0.44 h -2 a 0.44,0.44 0 0 1 -0.44,-0.44 v -2 a 0.44,0.44 0 0 0 -0.44,-0.44 h -0.79 a 0.44,0.44 0 0 0 -0.44,0.44 v 2 a 0.43,0.43 0 0 1 -0.44,0.44 h -2 a 0.44,0.44 0 0 0 -0.44,0.44 v 0.79 a 0.44,0.44 0 0 0 0.44,0.44 z"
           class="cls-9" />
      </g>
    </g>
  </g>
</svg>
