<?xml version="1.0" encoding="UTF-8" standalone="no"?>
<svg
   xmlns:dc="http://purl.org/dc/elements/1.1/"
   xmlns:cc="http://creativecommons.org/ns#"
   xmlns:rdf="http://www.w3.org/1999/02/22-rdf-syntax-ns#"
   xmlns:svg="http://www.w3.org/2000/svg"
   xmlns="http://www.w3.org/2000/svg"
   xmlns:sodipodi="http://sodipodi.sourceforge.net/DTD/sodipodi-0.dtd"
   xmlns:inkscape="http://www.inkscape.org/namespaces/inkscape"
   viewBox="0 0 353 246"
   version="1.1"
   id="svg1725"
   sodipodi:docname="card6.svg"
   width="353"
   height="246"
   inkscape:version="0.92.3 (2405546, 2018-03-11)">
  <metadata
     id="metadata1729">
    <rdf:RDF>
      <cc:Work
         rdf:about="">
        <dc:format>image/svg+xml</dc:format>
        <dc:type
           rdf:resource="http://purl.org/dc/dcmitype/StillImage" />
        <dc:title>card6</dc:title>
      </cc:Work>
    </rdf:RDF>
  </metadata>
  <sodipodi:namedview
     pagecolor="#ffffff"
     bordercolor="#666666"
     borderopacity="1"
     objecttolerance="10"
     gridtolerance="10"
     guidetolerance="10"
     inkscape:pageopacity="0"
     inkscape:pageshadow="2"
     inkscape:window-width="640"
     inkscape:window-height="480"
     id="namedview1727"
     showgrid="false"
     fit-margin-top="0"
     fit-margin-left="0"
     fit-margin-right="0"
     fit-margin-bottom="0"
     inkscape:zoom="0.51641138"
     inkscape:cx="180.5"
     inkscape:cy="83.5"
     inkscape:window-x="0"
     inkscape:window-y="23"
     inkscape:window-maximized="0"
     inkscape:current-layer="svg1725" />
  <defs
     id="defs1345">
    <style
       id="style1337">.cls-1,.cls-11,.cls-12,.cls-18,.cls-28{fill:none;}.cls-2{isolation:isolate;}.cls-3{opacity:0.75;mix-blend-mode:multiply;}.cls-4{clip-path:url(#clip-path);}.cls-10,.cls-13,.cls-5{fill:#fff;}.cls-5{stroke:#b3b3b3;}.cls-11,.cls-12,.cls-28,.cls-5{stroke-miterlimit:10;}.cls-6{fill:#cfd6e0;}.cls-7{clip-path:url(#clip-path-3);}.cls-8{fill:#c1cad6;}.cls-9{fill:#a7b5c6;}.cls-10,.cls-11{opacity:0.72;}.cls-11{stroke:#fff;}.cls-12{stroke:#a4b1c1;}.cls-14{fill:#b0b5c4;}.cls-15{fill:#6f7b9e;}.cls-16{fill:#cbd3e0;}.cls-17{fill:#b0b9c8;}.cls-18{stroke:#b5bfcd;stroke-linecap:round;stroke-linejoin:round;stroke-width:0.75px;}.cls-19{fill:#e56b53;}.cls-20{fill:#fad7a1;}.cls-21{fill:#eab170;}.cls-22{fill:#c94621;}.cls-23{fill:#e9b39e;}.cls-24{fill:#713833;}.cls-25{fill:#445069;}.cls-26{fill:#262223;}.cls-27{fill:#364256;}.cls-28{stroke:#445069;}.cls-29{fill:#191717;}.cls-30{fill:#734a54;}.cls-31{fill:#eac38f;}.cls-32{fill:#515e75;}.cls-33{fill:#a4b1c1;}.cls-34{opacity:0.46;}.cls-35{fill:#8298af;}.cls-36{fill:#4d4d4d;}.cls-37{opacity:0.56;}.cls-38{fill:#623fe9;opacity:0.98;}</style>
    <clipPath
       id="clip-path">
      <rect
         class="cls-1"
         x="32"
         y="66"
         width="353"
         height="245.61"
         id="rect1339"
         style="fill:none" />
    </clipPath>
    <clipPath
       id="clip-path-3">
      <rect
         class="cls-1"
         x="32.139999"
         y="8.3299999"
         width="356.44"
         height="356.44"
         id="rect1342"
         style="fill:none" />
    </clipPath>
  </defs>
  <title
     id="title1347">card6</title>
  <g
     style="isolation:isolate"
     id="g1679"
     clip-path="url(#clip-path)"
     class="cls-4"
     transform="translate(-32,-66)">
    <rect
       style="fill:#cfd6e0"
       id="rect1353"
       height="356.44"
       width="356.44"
       y="16.82"
       x="32.139999"
       class="cls-6" />
    <g
       id="g1357"
       clip-path="url(#clip-path-3)"
       class="cls-7">
      <circle
         style="fill:#c1cad6"
         id="circle1355"
         r="197"
         cy="237.14"
         cx="210.36"
         class="cls-8" />
    </g>
    <rect
       style="fill:#a7b5c6"
       id="rect1359"
       height="85.949997"
       width="356.44"
       y="287.31"
       x="32.139999"
       class="cls-9" />
    <circle
       style="opacity:0.72000002;fill:#ffffff"
       id="circle1361"
       transform="rotate(-45,137.29003,125.44261)"
       r="14.69"
       cy="125.44"
       cx="137.28999"
       class="cls-10" />
    <circle
       style="opacity:0.72000002;fill:none;stroke:#ffffff;stroke-miterlimit:10"
       id="circle1363"
       transform="rotate(-67.66,137.29287,125.44274)"
       r="16.5"
       cy="125.44"
       cx="137.28999"
       class="cls-11" />
    <polyline
       style="fill:none;stroke:#a4b1c1;stroke-miterlimit:10"
       id="polyline1365"
       points="130.72 123.6 137.29 129.11 147.75 120.93"
       class="cls-12" />
    <rect
       style="opacity:0.72000002;fill:#ffffff"
       id="rect1367"
       height="123.29"
       width="147.19"
       y="106.08"
       x="179.64"
       class="cls-10" />
    <rect
       style="fill:#ffffff"
       id="rect1369"
       height="2.74"
       width="163.07001"
       y="103.34"
       x="172.78"
       class="cls-13" />
    <rect
       style="fill:#b0b5c4"
       id="rect1371"
       height="12.27"
       width="12.84"
       y="115.17"
       x="188.89999"
       class="cls-14" />
    <rect
       style="fill:#6f7b9e"
       id="rect1373"
       height="12.27"
       width="12.84"
       y="115.17"
       x="205.02"
       class="cls-15" />
    <rect
       style="fill:#b0b5c4"
       id="rect1375"
       height="12.27"
       width="12.84"
       y="115.17"
       x="221.32001"
       class="cls-14" />
    <rect
       style="fill:#6f7b9e"
       id="rect1377"
       height="12.27"
       width="12.84"
       y="115.17"
       x="236.42"
       class="cls-15" />
    <rect
       style="fill:#6f7b9e"
       id="rect1379"
       height="12.27"
       width="12.84"
       y="129.67"
       x="188.89999"
       class="cls-15" />
    <rect
       style="fill:#b0b5c4"
       id="rect1381"
       height="12.27"
       width="12.84"
       y="129.67"
       x="205.02"
       class="cls-14" />
    <rect
       style="fill:#b0b5c4"
       id="rect1383"
       height="12.27"
       width="12.84"
       y="129.67"
       x="221.32001"
       class="cls-14" />
    <rect
       style="fill:#b0b5c4"
       id="rect1385"
       height="12.27"
       width="12.84"
       y="129.67"
       x="236.42"
       class="cls-14" />
    <path
       style="fill:#cbd3e0"
       inkscape:connector-curvature="0"
       id="path1387"
       d="m 314.1,150.15 h -23.5 a 185.81,185.81 0 0 1 0,-35 h 23.5 a 185.81,185.81 0 0 0 0,35 z"
       class="cls-16" />
    <path
       style="fill:#ffffff"
       inkscape:connector-curvature="0"
       id="path1389"
       d="m 311,148.43 h -23.14 a 213.18,213.18 0 0 1 2.74,-33.26 h 23.5 a 213.77,213.77 0 0 0 -3.1,33.26 z"
       class="cls-13" />
    <rect
       style="fill:#b0b9c8"
       id="rect1391"
       height="1.2"
       width="22.809999"
       y="156.32001"
       x="292.14999"
       class="cls-17" />
    <rect
       style="fill:#b0b9c8"
       id="rect1393"
       height="1.2"
       width="22.809999"
       y="160.61"
       x="292.14999"
       class="cls-17" />
    <rect
       style="fill:#b0b9c8"
       id="rect1395"
       height="1.2"
       width="22.809999"
       y="164.89999"
       x="292.14999"
       class="cls-17" />
    <rect
       style="fill:#b0b9c8"
       id="rect1397"
       height="1.2"
       width="22.809999"
       y="169.17999"
       x="292.14999"
       class="cls-17" />
    <rect
       style="fill:#b0b9c8"
       id="rect1399"
       height="1.2"
       width="14.65"
       y="178.3"
       x="300.29999"
       class="cls-17" />
    <path
       style="fill:#b0b9c8"
       inkscape:connector-curvature="0"
       id="path1401"
       d="m 298.15,178.9 a 1,1 0 1 1 -1,-1 1,1 0 0 1 1,1 z"
       class="cls-17" />
    <rect
       style="fill:#b0b9c8"
       id="rect1403"
       height="1.2"
       width="14.65"
       y="183.64"
       x="300.29999"
       class="cls-17" />
    <path
       style="fill:#b0b9c8"
       inkscape:connector-curvature="0"
       id="path1405"
       d="m 298.15,184.24 a 1,1 0 1 1 -1,-1 1,1 0 0 1 1,1 z"
       class="cls-17" />
    <rect
       style="fill:#b0b9c8"
       id="rect1407"
       height="1.2"
       width="14.65"
       y="188.99001"
       x="300.29999"
       class="cls-17" />
    <path
       style="fill:#b0b9c8"
       inkscape:connector-curvature="0"
       id="path1409"
       d="m 298.15,189.59 a 1,1 0 1 1 -1,-1 1,1 0 0 1 1,1 z"
       class="cls-17" />
    <rect
       style="fill:#b0b9c8"
       id="rect1411"
       height="0.88"
       width="22.809999"
       y="153.74001"
       x="188.53"
       class="cls-17" />
    <rect
       style="fill:#b0b9c8"
       id="rect1413"
       height="0.88"
       width="22.809999"
       y="156.89"
       x="188.53"
       class="cls-17" />
    <rect
       style="fill:#b0b9c8"
       id="rect1415"
       height="0.88"
       width="22.809999"
       y="160.03999"
       x="188.53"
       class="cls-17" />
    <rect
       style="fill:#b0b9c8"
       id="rect1417"
       height="0.88"
       width="22.809999"
       y="163.19"
       x="188.53"
       class="cls-17" />
    <rect
       style="fill:#b0b9c8"
       id="rect1419"
       height="0.88"
       width="22.809999"
       y="153.74001"
       x="214.78999"
       class="cls-17" />
    <rect
       style="fill:#b0b9c8"
       id="rect1421"
       height="0.88"
       width="22.809999"
       y="156.89"
       x="214.78999"
       class="cls-17" />
    <rect
       style="fill:#b0b9c8"
       id="rect1423"
       height="0.88"
       width="22.809999"
       y="160.03999"
       x="214.78999"
       class="cls-17" />
    <rect
       style="fill:#b0b9c8"
       id="rect1425"
       height="0.88"
       width="22.809999"
       y="163.19"
       x="214.78999"
       class="cls-17" />
    <rect
       style="fill:none;stroke:#b5bfcd;stroke-width:0.75px;stroke-linecap:round;stroke-linejoin:round"
       id="rect1427"
       height="7.3200002"
       width="8.6099997"
       y="173.42999"
       x="189.12"
       class="cls-18" />
    <rect
       style="fill:none;stroke:#b5bfcd;stroke-width:0.75px;stroke-linecap:round;stroke-linejoin:round"
       id="rect1429"
       height="7.3200002"
       width="8.6099997"
       y="178.75"
       x="208.00999"
       class="cls-18" />
    <rect
       style="fill:none;stroke:#b5bfcd;stroke-width:0.75px;stroke-linecap:round;stroke-linejoin:round"
       id="rect1431"
       height="7.3200002"
       width="8.6099997"
       y="184.27"
       x="189.12"
       class="cls-18" />
    <polyline
       style="fill:none;stroke:#b5bfcd;stroke-width:0.75px;stroke-linecap:round;stroke-linejoin:round"
       id="polyline1433"
       points="197.73 176.52 202.04 176.52 202.04 188.31 197.73 188.31"
       class="cls-18" />
    <line
       style="fill:none;stroke:#b5bfcd;stroke-width:0.75px;stroke-linecap:round;stroke-linejoin:round"
       id="line1435"
       y2="182"
       x2="202.28"
       y1="182"
       x1="207.77"
       class="cls-18" />
    <line
       style="fill:none;stroke:#b5bfcd;stroke-width:0.75px;stroke-linecap:round;stroke-linejoin:round"
       id="line1437"
       y2="182"
       x2="216.63"
       y1="182"
       x1="222.12"
       class="cls-18" />
    <line
       style="fill:none;stroke:#b5bfcd;stroke-width:0.75px;stroke-linecap:round;stroke-linejoin:round"
       id="line1439"
       y2="186.07001"
       x2="212.32001"
       y1="191.57001"
       x1="212.32001"
       class="cls-18" />
    <line
       style="fill:none;stroke:#b5bfcd;stroke-width:0.75px;stroke-linecap:round;stroke-linejoin:round"
       id="line1441"
       y2="173.00999"
       x2="212.32001"
       y1="178.50999"
       x1="212.32001"
       class="cls-18" />
    <path
       style="fill:none;stroke:#b5bfcd;stroke-width:0.75px;stroke-linecap:round;stroke-linejoin:round"
       inkscape:connector-curvature="0"
       id="path1443"
       d="m 225.42,182 a 1.65,1.65 0 1 1 -1.65,-1.65 1.65,1.65 0 0 1 1.65,1.65 z"
       class="cls-18" />
    <circle
       style="fill:none;stroke:#b5bfcd;stroke-width:0.75px;stroke-linecap:round;stroke-linejoin:round"
       id="circle1445"
       r="1.65"
       cy="193.21001"
       cx="212.38"
       class="cls-18" />
    <path
       style="fill:none;stroke:#b5bfcd;stroke-width:0.75px;stroke-linecap:round;stroke-linejoin:round"
       inkscape:connector-curvature="0"
       id="path1447"
       d="m 214,171.2 a 1.65,1.65 0 1 1 -1.65,-1.64 1.65,1.65 0 0 1 1.65,1.64 z"
       class="cls-18" />
    <path
       style="fill:#e56b53"
       inkscape:connector-curvature="0"
       id="path1449"
       d="m 244,205 a 13.89,13.89 0 1 1 -0.33,-3 c 0,0 0,0.07 0,0.1 A 13.92,13.92 0 0 1 244,205 Z"
       class="cls-19" />
    <path
       style="fill:#fad7a1"
       inkscape:connector-curvature="0"
       id="path1451"
       d="m 243.62,202 -13.56,3 V 191.12 A 13.88,13.88 0 0 1 243.62,202 Z"
       class="cls-20" />
    <path
       style="fill:#b0b9c8"
       inkscape:connector-curvature="0"
       id="path1453"
       d="m 244,205 a 13.89,13.89 0 0 1 -22,11.24 l 8.06,-11.24 13.58,-2.9 A 13.92,13.92 0 0 1 244,205 Z"
       class="cls-17" />
    <polygon
       style="fill:#eab170"
       id="polygon1455"
       points="145.05,308.42 143.85,308.42 145.91,256.75 150.54,256.75 "
       class="cls-21" />
    <polygon
       style="fill:#eab170"
       id="polygon1457"
       points="169.18,308.42 170.38,308.42 168.32,256.75 163.69,256.75 "
       class="cls-21" />
    <path
       style="fill:#c94621"
       inkscape:connector-curvature="0"
       id="path1459"
       d="m 148.23,248.18 a 9,9 0 0 1 -8.49,-6.39 C 130,211.36 125.88,210 125.88,210 a 2.44,2.44 0 0 0 -3.9,2.27 l 4.33,30.94 a 15.68,15.68 0 0 0 15.52,13.51 h 31.89 a 8,8 0 0 0 8,-8 v -0.59 z"
       class="cls-22" />
    <polygon
       style="fill:#ffffff"
       id="polygon1461"
       points="200.93,296.23 202.58,303.39 207.75,304.75 205.37,292.52 "
       class="cls-13" />
    <polygon
       style="fill:#ffffff"
       id="polygon1463"
       points="185.02,297.42 186.67,304.57 191.84,305.94 189.46,293.71 "
       class="cls-13" />
    <path
       style="fill:#e9b39e"
       inkscape:connector-curvature="0"
       id="path1465"
       d="M 160.23,172.41 V 160 H 144 v 12.65 a 8.14,8.14 0 1 0 16.28,0 1.49,1.49 0 0 0 -0.05,-0.24 z"
       class="cls-23" />
    <path
       style="fill:#713833"
       inkscape:connector-curvature="0"
       id="path1467"
       d="m 164.38,151 v 3.67 A 5.35,5.35 0 0 1 159,160 h -12.34 a 2.7,2.7 0 0 0 -2.69,2.69 v 7.56 a 2.4,2.4 0 0 0 -2.4,-2.41 2.35,2.35 0 0 0 -1.71,0.72 V 157.62 A 6.68,6.68 0 0 1 146,151 v 0 z"
       class="cls-24" />
    <ellipse
       style="fill:#e9b39e"
       id="ellipse1469"
       ry="3.0899999"
       rx="2.7"
       cy="170.89"
       cx="141.61"
       class="cls-23" />
    <rect
       style="fill:#e9b39e"
       id="rect1471"
       height="15.56"
       width="8.4899998"
       y="171.75"
       x="141.61"
       class="cls-23" />
    <path
       style="fill:#445069"
       inkscape:connector-curvature="0"
       id="path1473"
       d="m 141.61,185.28 -6.87,5.12 a 7.22,7.22 0 0 0 -3,7.24 l 5.06,22.87 c 0.48,2.11 2.65,2.1 3.58,2.19 l 29.27,3 2,-4.12 L 161.39,193 c -0.25,-0.67 -1.49,-3.37 -2.12,-3.71 l -9.17,-5.06 z"
       class="cls-25" />
    <polygon
       style="fill:#445069"
       id="polygon1475"
       points="167.04,238.66 141.61,237.14 133.63,196.95 159.04,199.65 "
       class="cls-25" />
    <path
       style="fill:#445069"
       inkscape:connector-curvature="0"
       id="path1477"
       d="m 207.66,297.06 -7.19,0.28 -12.36,-47.89 v 0 l -7.63,-0.2 -34,-0.93 a 6.9,6.9 0 0 1 -3.72,-4.9 l -1.19,-6.27 53.85,1.49 a 2.59,2.59 0 0 1 2.49,2.15 z"
       class="cls-25" />
    <path
       style="fill:#445069"
       inkscape:connector-curvature="0"
       id="path1479"
       d="m 191.22,297.87 -7.19,0.28 -12.36,-48.7 -22.21,-0.45 a 7,7 0 0 1 -6.66,-5.63 l -1.19,-6.27 37.39,1.53 a 2.59,2.59 0 0 1 2.49,2.15 l 1.46,8.46 z"
       class="cls-25" />
    <path
       style="fill:#262223"
       inkscape:connector-curvature="0"
       id="path1481"
       d="m 219.79,306 -17.83,0.16 a 0.66,0.66 0 0 1 -0.66,-0.65 l -0.05,-5.33 a 0.65,0.65 0 0 1 0.83,-0.63 L 220,304.7 a 0.65842615,0.65842615 0 0 1 -0.21,1.3 z"
       class="cls-26" />
    <path
       style="fill:#262223"
       inkscape:connector-curvature="0"
       id="path1483"
       d="m 203.17,307.16 -17.84,0.16 a 0.66,0.66 0 0 1 -0.65,-0.65 l -0.05,-5.34 a 0.65,0.65 0 0 1 0.83,-0.62 l 17.89,5.18 a 0.65,0.65 0 0 1 -0.18,1.27 z"
       class="cls-26" />
    <path
       style="fill:#b0b9c8"
       inkscape:connector-curvature="0"
       id="path1485"
       d="m 204.17,229.31 h -36.75 l 5.69,-25.3 A 3,3 0 0 1 176,201.7 h 30.69 a 3,3 0 0 1 2.88,3.61 z"
       class="cls-17" />
    <path
       style="fill:#ffffff"
       inkscape:connector-curvature="0"
       id="path1487"
       d="m 193.56,215.51 a 3.66,3.66 0 1 1 -3.65,-3.66 3.64,3.64 0 0 1 3.65,3.66 z"
       class="cls-13" />
    <rect
       style="fill:#b0b9c8"
       id="rect1489"
       height="1.77"
       width="27.1"
       y="227.53999"
       x="142.06"
       class="cls-17" />
    <polygon
       style="fill:#e9b39e"
       id="polygon1491"
       points="141.61,185.28 149.09,191.59 150.1,184.27 145.86,182.41 "
       class="cls-23" />
    <polygon
       style="fill:#ffffff"
       id="polygon1493"
       points="139.63,186.76 148.38,195.81 149.09,191.59 141.61,185.28 "
       class="cls-13" />
    <polygon
       style="fill:#ffffff"
       id="polygon1495"
       points="149.09,191.59 152.12,194.81 153.28,186.03 150.1,184.27 "
       class="cls-13" />
    <polygon
       style="fill:#364256"
       id="polygon1497"
       points="139.87,200.99 143.11,216.1 167.66,220.33 144.21,215.04 "
       class="cls-27" />
    <polygon
       style="fill:#364256"
       id="polygon1499"
       points="138.7,222.46 164.27,225.18 164.52,226.4 138.91,223.55 "
       class="cls-27" />
    <polygon
       style="fill:#364256"
       id="polygon1501"
       points="157.44,200.58 159.17,203.67 162.29,215.51 "
       class="cls-27" />
    <path
       style="fill:#e9b39e"
       inkscape:connector-curvature="0"
       id="path1503"
       d="m 267.86,303.41 c -1.48,0 -1,-0.25 -1.15,-1.75 l -6.23,-50.34 c 0,-0.24 1.18,-3.21 1.22,-3.45 l 3.58,-24.75 a 2.93,2.93 0 1 1 5.79,0.84 l -0.09,30 -0.21,46.25 a 2.93,2.93 0 0 1 -2.59,3.23 z"
       class="cls-23" />
    <path
       style="fill:#e9b39e"
       inkscape:connector-curvature="0"
       id="path1505"
       d="m 281,304 c -1.48,0 -1,-1.29 -1.16,-2.79 l -6.58,-48 a 3,3 0 0 1 0,-0.73 L 276,223.12 a 2.93,2.93 0 1 1 5.79,0.84 l 2.16,26.84 v 50 a 2.92,2.92 0 0 1 -2.59,3.23 z"
       class="cls-23" />
    <path
       style="fill:#e9b39e"
       inkscape:connector-curvature="0"
       id="path1507"
       d="m 261.27,174.27 -11,11.43 -15.53,-21.62 -2.3,5 16.2,23.92 a 2.77,2.77 0 0 0 4.13,0.53 l 10.19,-9 z"
       class="cls-23" />
    <path
       style="fill:#713833"
       inkscape:connector-curvature="0"
       id="path1509"
       d="m 280.08,155.89 h -17.19 a 6.32,6.32 0 0 1 -6.32,-6.32 v -13.66 a 6.32,6.32 0 0 1 6.32,-6.32 h 14.85 a 6.32,6.32 0 0 1 6.32,6.32 v 16 a 4,4 0 0 1 -3.98,3.98 z"
       class="cls-24" />
    <path
       style="fill:#713833"
       inkscape:connector-curvature="0"
       id="path1511"
       d="m 256.57,160.92 v 0 V 144 h 5.7 v 11.21 a 5.7,5.7 0 0 1 -5.7,5.71 z"
       class="cls-24" />
    <path
       style="fill:#e9b39e"
       inkscape:connector-curvature="0"
       id="path1513"
       d="m 276.71,150.12 v -7.5 a 3.78,3.78 0 0 0 -3.77,-3.78 h -4.13 a 8.36,8.36 0 0 0 -8.36,8.36 v 2.84 a 8.32,8.32 0 0 0 8,8.42 8.12,8.12 0 0 0 8.27,-8.13 c 0,-0.07 -0.01,-0.14 -0.01,-0.21 z"
       class="cls-23" />
    <path
       style="fill:#e9b39e"
       inkscape:connector-curvature="0"
       id="path1515"
       d="m 278.65,146.51 a 2,2 0 1 1 -1.93,-2.5 2.27,2.27 0 0 1 1.93,2.5 z"
       class="cls-23" />
    <polygon
       style="fill:#e9b39e"
       id="polygon1517"
       points="276.72,162.91 270.62,164.08 270.62,150.58 276.72,150.58 "
       class="cls-23" />
    <path
       style="fill:#c94621"
       inkscape:connector-curvature="0"
       id="path1519"
       d="m 294.47,251.32 -6.35,-4.39 -38.33,5.07 14.62,-55 -4.69,-20 a 3.41,3.41 0 0 1 0.71,-3 l 8.71,-10.33 a 1.14,1.14 0 0 1 0.67,-0.4 L 277,162 a 0.92,0.92 0 0 1 1.07,0.74 z"
       class="cls-22" />
    <path
       style="fill:#e9b39e"
       inkscape:connector-curvature="0"
       id="path1521"
       d="m 268.58,212.44 a 2.92,2.92 0 0 1 -1.95,-0.74 3,3 0 0 1 0,-4.33 l 17.67,-18.28 -10.12,-18.94 a 2.93,2.93 0 0 1 5.16,-2.76 l 11.13,20.82 a 2.91,2.91 0 0 1 -0.48,3.41 l -19.26,19.93 a 2.91,2.91 0 0 1 -2.15,0.89 z"
       class="cls-23" />
    <line
       style="fill:none;stroke:#445069;stroke-miterlimit:10"
       id="line1523"
       y2="136.34"
       x2="213.02"
       y1="168.58"
       x1="236.34"
       class="cls-28" />
    <rect
       style="fill:#e9b39e"
       id="rect1525"
       ry="1.16"
       rx="1.16"
       height="7.9000001"
       width="4.8099999"
       y="161.89999"
       x="230.06"
       class="cls-23" />
    <path
       style="fill:#191717"
       inkscape:connector-curvature="0"
       id="path1527"
       d="m 256.7,311.88 14.13,-6 a 0.45,0.45 0 0 0 0.27,-0.42 v -5.61 a 0.45,0.45 0 0 0 -0.6,-0.42 l -3.38,1.21 -0.16,0.1 -10.76,10.4 a 0.45,0.45 0 0 0 0.5,0.74 z"
       class="cls-29" />
    <polygon
       style="fill:#191717"
       id="polygon1529"
       points="268.38,304.77 269.24,311.53 271.1,311.33 271.1,301.18 "
       class="cls-29" />
    <path
       style="fill:#262223"
       inkscape:connector-curvature="0"
       id="path1531"
       d="m 269.89,311 13.69,-5.82 a 0.55,0.55 0 0 0 0.32,-0.49 v -5.45 a 0.53,0.53 0 0 0 -0.71,-0.5 l -3.26,1.16 -0.19,0.12 -10.43,10.11 a 0.53,0.53 0 0 0 0.58,0.87 z"
       class="cls-26" />
    <polygon
       style="fill:#262223"
       id="polygon1533"
       points="281.18,304.06 282.04,310.83 283.9,310.62 283.9,300.47 "
       class="cls-26" />
    <path
       style="fill:#c94621"
       inkscape:connector-curvature="0"
       id="path1535"
       d="m 249.79,252 c 0,0 7.55,6.67 25.7,0.8 0,0 11.44,-4.08 19,-1.48 l -7.1,-9.86 z"
       class="cls-22" />
    <polygon
       style="fill:#eab170"
       id="polygon1537"
       points="97.68,318.48 96.49,318.48 94.43,231.37 100.43,231.37 "
       class="cls-21" />
    <polygon
       style="fill:#eab170"
       id="polygon1539"
       points="323.55,318.48 322.35,318.48 320.29,231.37 326.29,231.37 "
       class="cls-21" />
    <rect
       style="fill:#734a54"
       id="rect1541"
       height="4.1199999"
       width="266.89001"
       y="229.31"
       x="76.910004"
       class="cls-30" />
    <rect
       style="fill:#fad7a1"
       id="rect1543"
       height="16.83"
       width="34.16"
       y="203.78"
       x="307.63"
       class="cls-20" />
    <rect
       style="fill:#fad7a1"
       id="rect1545"
       height="5.6500001"
       width="38.360001"
       y="198.13"
       x="305.10999"
       class="cls-20" />
    <rect
       style="fill:#eac38f"
       id="rect1547"
       height="2.52"
       width="34.16"
       y="203.78"
       x="307.63"
       class="cls-31" />
    <rect
       style="fill:#515e75"
       id="rect1549"
       height="4.3699999"
       width="39.110001"
       y="220.61"
       x="305.92999"
       class="cls-32" />
    <rect
       style="fill:#445069"
       id="rect1551"
       height="4.3699999"
       width="43.880001"
       y="225"
       x="303.54999"
       class="cls-25" />
    <path
       style="fill:#c94621"
       inkscape:connector-curvature="0"
       id="path1553"
       d="m 307.29,220.44 v 0 -0.52 H 297.2 v 3.41 a 5.31,5.31 0 0 0 3.22,5 h -2.66 a 0.46,0.46 0 0 0 -0.46,0.45 v 0 a 0.46,0.46 0 0 0 0.46,0.45 h 9.08 a 0.45,0.45 0 0 0 0.45,-0.45 v 0 a 0.45,0.45 0 0 0 -0.45,-0.45 h -2.77 a 5.09,5.09 0 0 0 2.57,-2.36 2.38,2.38 0 0 0 0.65,0.1 2.8,2.8 0 0 0 0,-5.59 z m 0,4.94 a 1.64,1.64 0 0 1 -0.38,0 5.57,5.57 0 0 0 0.38,-2 v -2.24 0 a 2.16,2.16 0 0 1 0,4.29 z"
       class="cls-22" />
    <path
       style="fill:#c94621"
       inkscape:connector-curvature="0"
       id="path1555"
       d="m 303.66,215.46 a 1.5,1.5 0 0 0 0,2.73 c 0.39,0.28 0.62,0.48 0.62,0.85 h 0.65 a 1.68,1.68 0 0 0 -0.88,-1.37 c -0.38,-0.28 -0.62,-0.48 -0.62,-0.84 0,-0.36 0.24,-0.57 0.62,-0.85 a 1.5,1.5 0 0 0 0,-2.73 c -0.38,-0.28 -0.62,-0.47 -0.62,-0.84 h -0.65 a 1.68,1.68 0 0 0 0.88,1.37 c 0.39,0.28 0.62,0.47 0.62,0.84 0,0.37 -0.23,0.56 -0.62,0.84 z"
       class="cls-22" />
    <path
       style="fill:#c94621"
       inkscape:connector-curvature="0"
       id="path1557"
       d="m 301.29,215.46 a 1.5,1.5 0 0 0 0,2.73 c 0.39,0.28 0.62,0.48 0.62,0.85 h 0.65 a 1.68,1.68 0 0 0 -0.88,-1.37 c -0.38,-0.28 -0.62,-0.48 -0.62,-0.84 0,-0.36 0.24,-0.57 0.62,-0.85 a 1.5,1.5 0 0 0 0,-2.73 c -0.38,-0.28 -0.62,-0.47 -0.62,-0.84 h -0.65 a 1.68,1.68 0 0 0 0.88,1.37 c 0.39,0.28 0.62,0.47 0.62,0.84 0,0.37 -0.23,0.56 -0.62,0.84 z"
       class="cls-22" />
    <rect
       style="fill:#a4b1c1"
       id="rect1559"
       ry="5.9299998"
       rx="5.9299998"
       height="24.67"
       width="31.959999"
       y="152.81"
       x="96.239998"
       class="cls-33" />
    <path
       style="fill:#a4b1c1"
       inkscape:connector-curvature="0"
       id="path1561"
       d="m 126.91,167.56 c -0.2,0.08 -0.39,-0.23 -0.39,-0.64 v -3.07 c 0,-0.41 0.19,-0.72 0.39,-0.64 l 3.88,1.53 c 0.35,0.14 0.35,1.15 0,1.29 z"
       class="cls-33" />
    <path
       style="fill:#c1cad6"
       inkscape:connector-curvature="0"
       id="path1563"
       d="m 106.19,165.15 a 2.05,2.05 0 1 1 -2,-2.06 2,2 0 0 1 2,2.06 z"
       class="cls-8" />
    <path
       style="fill:#c1cad6"
       inkscape:connector-curvature="0"
       id="path1565"
       d="m 114.27,165.15 a 2.05,2.05 0 1 1 -2,-2.06 2.05,2.05 0 0 1 2,2.06 z"
       class="cls-8" />
    <path
       style="fill:#c1cad6"
       inkscape:connector-curvature="0"
       id="path1567"
       d="m 122,165.15 a 2.06,2.06 0 1 1 -2,-2.06 2.05,2.05 0 0 1 2,2.06 z"
       class="cls-8" />
    <rect
       style="fill:#a4b1c1"
       id="rect1569"
       ry="5.9299998"
       rx="5.9299998"
       height="24.67"
       width="27.200001"
       y="167.2"
       x="336.95999"
       class="cls-33" />
    <path
       style="fill:#a4b1c1"
       inkscape:connector-curvature="0"
       id="path1571"
       d="m 338.25,177.12 c 0.2,-0.08 0.39,0.23 0.39,0.65 v 3.06 c 0,0.41 -0.19,0.72 -0.39,0.64 l -3.88,-1.53 c -0.35,-0.14 -0.35,-1.15 0,-1.29 z"
       class="cls-33" />
    <path
       style="fill:#c1cad6"
       inkscape:connector-curvature="0"
       id="path1573"
       d="m 345,179.16 a 2.06,2.06 0 1 1 -2.05,-2 2.05,2.05 0 0 1 2.05,2 z"
       class="cls-8" />
    <path
       style="fill:#c1cad6"
       inkscape:connector-curvature="0"
       id="path1575"
       d="m 353.12,179.16 a 2.06,2.06 0 1 1 -2.05,-2 2.05,2.05 0 0 1 2.05,2 z"
       class="cls-8" />
    <path
       style="fill:#c1cad6"
       inkscape:connector-curvature="0"
       id="path1577"
       d="m 360.8,179.16 a 2.06,2.06 0 1 1 -2.06,-2 2.06,2.06 0 0 1 2.06,2 z"
       class="cls-8" />
    <rect
       style="fill:#b0b5c4"
       id="rect1579"
       height="0.75"
       width="12.95"
       y="180.00999"
       x="70.400002"
       class="cls-14" />
    <rect
       style="fill:#b0b5c4"
       id="rect1581"
       height="0.75"
       width="12.95"
       y="183.89999"
       x="63.150002"
       class="cls-14" />
    <rect
       style="fill:#b0b5c4"
       id="rect1583"
       height="0.75"
       width="12.95"
       y="186.63"
       x="71.230003"
       class="cls-14" />
    <rect
       style="fill:#b0b5c4"
       id="rect1585"
       height="0.75"
       width="12.95"
       y="208.89999"
       x="99.279999"
       class="cls-14" />
    <rect
       style="fill:#b0b5c4"
       id="rect1587"
       height="0.75"
       width="12.95"
       y="212.78"
       x="92.040001"
       class="cls-14" />
    <rect
       style="fill:#b0b5c4"
       id="rect1589"
       height="0.75"
       width="12.95"
       y="215.50999"
       x="100.12"
       class="cls-14" />
    <rect
       style="fill:#b0b5c4"
       id="rect1591"
       height="0.75"
       width="12.95"
       y="155.55"
       x="352.29001"
       class="cls-14" />
    <rect
       style="fill:#b0b5c4"
       id="rect1593"
       height="0.75"
       width="12.95"
       y="159.42999"
       x="345.04001"
       class="cls-14" />
    <rect
       style="fill:#b0b5c4"
       id="rect1595"
       height="0.75"
       width="12.95"
       y="162.16"
       x="353.12"
       class="cls-14" />
    <rect
       style="fill:#b0b5c4"
       id="rect1597"
       height="0.75"
       width="12.95"
       y="72.389999"
       x="212.88"
       class="cls-14" />
    <rect
       style="fill:#b0b5c4"
       id="rect1599"
       height="0.75"
       width="12.95"
       y="76.279999"
       x="205.64"
       class="cls-14" />
    <rect
       style="fill:#b0b5c4"
       id="rect1601"
       height="0.75"
       width="12.95"
       y="79.010002"
       x="213.72"
       class="cls-14" />
    <rect
       style="fill:#b0b5c4"
       id="rect1603"
       height="0.75"
       width="12.95"
       y="253.06"
       x="62.439999"
       class="cls-14" />
    <rect
       style="fill:#b0b5c4"
       id="rect1605"
       height="0.75"
       width="12.95"
       y="256.95001"
       x="55.189999"
       class="cls-14" />
    <rect
       style="fill:#b0b5c4"
       id="rect1607"
       height="0.75"
       width="12.95"
       y="259.67999"
       x="63.27"
       class="cls-14" />
    <g
       style="opacity:0.46000001"
       id="g1615"
       class="cls-34">
      <rect
         style="fill:#8298af"
         id="rect1609"
         height="0.75"
         width="12.95"
         y="329.23001"
         x="125.52"
         class="cls-35" />
      <rect
         style="fill:#8298af"
         id="rect1611"
         height="0.75"
         width="12.95"
         y="333.12"
         x="118.27"
         class="cls-35" />
      <rect
         style="fill:#8298af"
         id="rect1613"
         height="0.75"
         width="12.95"
         y="335.85001"
         x="126.35"
         class="cls-35" />
    </g>
    <g
       style="opacity:0.46000001"
       id="g1623"
       class="cls-34">
      <rect
         style="fill:#8298af"
         id="rect1617"
         height="0.75"
         width="12.95"
         y="328.60999"
         x="239.57001"
         class="cls-35" />
      <rect
         style="fill:#8298af"
         id="rect1619"
         height="0.75"
         width="12.95"
         y="332.48999"
         x="232.32001"
         class="cls-35" />
      <rect
         style="fill:#8298af"
         id="rect1621"
         height="0.75"
         width="12.95"
         y="335.22"
         x="240.39999"
         class="cls-35" />
    </g>
    <g
       style="opacity:0.46000001"
       id="g1631"
       class="cls-34">
      <rect
         style="fill:#8298af"
         id="rect1625"
         height="0.75"
         width="12.95"
         y="345.63"
         x="310.64001"
         class="cls-35" />
      <rect
         style="fill:#8298af"
         id="rect1627"
         height="0.75"
         width="12.95"
         y="349.51999"
         x="303.39001"
         class="cls-35" />
      <rect
         style="fill:#8298af"
         id="rect1629"
         height="0.75"
         width="12.95"
         y="352.25"
         x="311.47"
         class="cls-35" />
    </g>
    <g
       style="opacity:0.46000001"
       id="g1639"
       class="cls-34">
      <rect
         style="fill:#8298af"
         id="rect1633"
         height="0.75"
         width="12.95"
         y="316.22"
         x="358.70001"
         class="cls-35" />
      <rect
         style="fill:#8298af"
         id="rect1635"
         height="0.75"
         width="12.95"
         y="320.10999"
         x="351.45999"
         class="cls-35" />
      <rect
         style="fill:#8298af"
         id="rect1637"
         height="0.75"
         width="12.95"
         y="322.82999"
         x="359.53"
         class="cls-35" />
    </g>
    <g
       style="opacity:0.46000001"
       id="g1647"
       class="cls-34">
      <rect
         style="fill:#8298af"
         id="rect1641"
         height="0.75"
         width="12.95"
         y="338.57001"
         x="58.400002"
         class="cls-35" />
      <rect
         style="fill:#8298af"
         id="rect1643"
         height="0.75"
         width="12.95"
         y="342.45001"
         x="51.150002"
         class="cls-35" />
      <rect
         style="fill:#8298af"
         id="rect1645"
         height="0.75"
         width="12.95"
         y="345.17999"
         x="59.23"
         class="cls-35" />
    </g>
    <rect
       style="fill:#b0b5c4"
       id="rect1649"
       height="0.75"
       width="12.95"
       y="271.23999"
       x="306.60001"
       class="cls-14" />
    <rect
       style="fill:#b0b5c4"
       id="rect1651"
       height="0.75"
       width="12.95"
       y="275.13"
       x="299.35001"
       class="cls-14" />
    <rect
       style="fill:#b0b5c4"
       id="rect1653"
       height="0.75"
       width="12.95"
       y="277.85999"
       x="307.42999"
       class="cls-14" />
    <rect
       style="fill:#b0b5c4"
       id="rect1655"
       height="0.75"
       width="12.95"
       y="212.58"
       x="361.97"
       class="cls-14" />
    <rect
       style="fill:#b0b5c4"
       id="rect1657"
       height="0.75"
       width="12.95"
       y="216.46001"
       x="354.72"
       class="cls-14" />
    <rect
       style="fill:#b0b5c4"
       id="rect1659"
       height="0.75"
       width="12.95"
       y="219.19"
       x="362.79999"
       class="cls-14" />
    <circle
       style="fill:none;stroke:#a4b1c1;stroke-miterlimit:10"
       id="circle1661"
       r="1.6900001"
       cy="138.84"
       cx="341.79001"
       class="cls-12" />
    <path
       style="fill:none;stroke:#a4b1c1;stroke-miterlimit:10"
       inkscape:connector-curvature="0"
       id="path1663"
       d="m 100.69,138.84 a 1.69,1.69 0 1 1 -1.69,-1.68 1.69,1.69 0 0 1 1.69,1.68 z"
       class="cls-12" />
    <path
       style="fill:none;stroke:#a4b1c1;stroke-miterlimit:10"
       inkscape:connector-curvature="0"
       id="path1665"
       d="m 355.49,125.44 a 2.37,2.37 0 1 1 -2.37,-2.37 2.37,2.37 0 0 1 2.37,2.37 z"
       class="cls-12" />
    <path
       style="fill:none;stroke:#a4b1c1;stroke-miterlimit:10"
       inkscape:connector-curvature="0"
       id="path1667"
       d="m 113.11,146.51 a 2.37,2.37 0 1 1 -2.37,-2.37 2.37,2.37 0 0 1 2.37,2.37 z"
       class="cls-12" />
    <path
       style="fill:none;stroke:#a4b1c1;stroke-miterlimit:10"
       inkscape:connector-curvature="0"
       id="path1669"
       d="m 169.58,132.66 a 1.29,1.29 0 1 1 -1.29,-1.29 1.29,1.29 0 0 1 1.29,1.29 z"
       class="cls-12" />
    <line
       style="fill:none;stroke:#a4b1c1;stroke-miterlimit:10"
       id="line1671"
       y2="191.12"
       x2="122.6"
       y1="186.63"
       x1="122.6"
       class="cls-12" />
    <line
       style="fill:none;stroke:#a4b1c1;stroke-miterlimit:10"
       id="line1673"
       y2="188.87"
       x2="120.35"
       y1="188.87"
       x1="124.84"
       class="cls-12" />
    <line
       style="fill:none;stroke:#a4b1c1;stroke-miterlimit:10"
       id="line1675"
       y2="149.06"
       x2="169.67"
       y1="144.57001"
       x1="169.67"
       class="cls-12" />
    <line
       style="fill:none;stroke:#a4b1c1;stroke-miterlimit:10"
       id="line1677"
       y2="146.81"
       x2="167.42"
       y1="146.81"
       x1="171.91"
       class="cls-12" />
  </g>
  <rect
     style="opacity:0.56000001;isolation:isolate"
     id="rect1709"
     height="246"
     width="353"
     y="0"
     x="0"
     class="cls-37" />
  <rect
     style="opacity:0.98000004;isolation:isolate;fill:#623fe9"
     id="rect1711"
     height="35"
     width="353"
     y="102"
     x="0"
     class="cls-38" />
  <path
     style="isolation:isolate;fill:#ffffff"
     inkscape:connector-curvature="0"
     id="path1713"
     d="m 147.74,115.11 c -0.17,3.56 -0.34,6.06 -0.51,7.47 a 6.16,6.16 0 0 1 -0.7,2.68 1.2,1.2 0 0 1 -1,0.48 14.48,14.48 0 0 1 -1.71,0 1.79,1.79 0 0 0 -0.22,-0.78 h 1 0.68 a 0.65,0.65 0 0 0 0.56,-0.22 6,6 0 0 0 0.62,-2.47 q 0.27,-2.2 0.48,-6.91 h -2.64 c -0.05,1.1 -0.13,2.1 -0.24,3 a 22.36,22.36 0 0 1 -0.48,2.91 14.58,14.58 0 0 1 -0.83,2.61 9.13,9.13 0 0 1 -1.29,2.13 2.32,2.32 0 0 0 -0.64,-0.47 7.65,7.65 0 0 0 1.24,-2 13.25,13.25 0 0 0 0.8,-2.49 24.32,24.32 0 0 0 0.47,-2.8 c 0.09,-0.87 0.17,-1.83 0.22,-2.9 h -2.43 v -0.75 h 2.45 c 0,-1 0.05,-2 0.05,-3 h 0.76 c 0,0.94 0,1.92 0,3 h 3.4 z m 6.71,-1.34 v 12.09 h -0.79 v -1.08 H 150 V 126 h -0.75 V 113.77 Z M 153.66,124 v -9.5 H 150 v 9.5 z"
     class="cls-13" />
  <path
     style="isolation:isolate;fill:#ffffff"
     inkscape:connector-curvature="0"
     id="path1715"
     d="m 161.42,112.17 a 10.05,10.05 0 0 1 1.67,1.45 12.57,12.57 0 0 1 1.26,1.65 18,18 0 0 1 1,1.76 l 1.31,2.71 c 0.16,0.33 0.31,0.63 0.45,0.89 a 14,14 0 0 0 1,1.68 10.66,10.66 0 0 0 1.34,1.54 9.15,9.15 0 0 0 1.76,1.31 2.08,2.08 0 0 0 -0.38,0.83 9.76,9.76 0 0 1 -2.42,-1.92 10.71,10.71 0 0 1 -0.91,-1.15 13.78,13.78 0 0 1 -0.77,-1.23 c -0.21,-0.38 -0.44,-0.8 -0.68,-1.28 l -1.25,-2.61 c -0.24,-0.48 -0.46,-0.91 -0.67,-1.28 a 18.1,18.1 0 0 1 -2.52,5.74 12.57,12.57 0 0 1 -4.19,3.84 7.66,7.66 0 0 0 -0.7,-0.6 11.82,11.82 0 0 0 4.37,-4 18.33,18.33 0 0 0 2.43,-6 14,14 0 0 0 -1.15,-1.46 10.06,10.06 0 0 0 -1.46,-1.26 z"
     class="cls-13" />
  <path
     style="isolation:isolate;fill:#ffffff"
     inkscape:connector-curvature="0"
     id="path1717"
     d="m 177.7,122.09 a 3.7,3.7 0 0 0 0.28,0.59 l -2.41,2 a 4,4 0 0 0 -0.64,0.64 1.48,1.48 0 0 0 -0.51,-0.56 l 0.24,-0.21 a 2.88,2.88 0 0 0 0.27,-0.34 1.7,1.7 0 0 0 0.3,-1 v -5.84 h -2.43 v -0.72 h 3.2 v 6.75 z m -1.76,-7.25 a 15.27,15.27 0 0 0 -2.18,-2.32 l 0.51,-0.46 a 14.75,14.75 0 0 1 2.21,2.22 z m 7.34,5.95 a 11.76,11.76 0 0 0 4.11,3.94 3.38,3.38 0 0 0 -0.54,0.59 13.61,13.61 0 0 1 -4.19,-4.34 v 5.19 H 181.9 V 121 a 11.66,11.66 0 0 1 -4.57,4.52 2.65,2.65 0 0 0 -0.51,-0.6 10.32,10.32 0 0 0 4.48,-4.11 h -3.91 v -0.72 h 4.51 v -1.61 h -3.58 V 112.4 H 186 v 6.08 h -3.37 v 1.61 h 4.54 v 0.72 z M 179,115.06 h 2.88 v -2 H 179 Z m 0,2.71 h 2.88 v -2 H 179 Z m 6.26,-4.71 h -2.66 v 2 h 2.66 z m 0,2.68 h -2.66 v 2 h 2.66 z"
     class="cls-13" />
  <path
     style="isolation:isolate;fill:#ffffff"
     inkscape:connector-curvature="0"
     id="path1719"
     d="m 193.44,120.94 c -0.12,-0.26 -0.31,-0.63 -0.58,-1.12 -0.27,-0.49 -0.51,-0.9 -0.76,-1.33 v 7.69 h -0.74 v -7.48 a 25.85,25.85 0 0 1 -1,2.52 12.18,12.18 0 0 1 -1.17,2 3.15,3.15 0 0 0 -0.49,-0.7 15.71,15.71 0 0 0 2.59,-5.5 H 189 v -0.74 h 2.37 v -3 c -0.58,0.13 -1.19,0.26 -1.84,0.38 a 2.48,2.48 0 0 0 -0.24,-0.62 c 0.8,-0.16 1.56,-0.34 2.27,-0.54 a 12.7,12.7 0 0 0 1.89,-0.69 l 0.56,0.62 a 12.47,12.47 0 0 1 -1.9,0.67 v 3.14 h 2.17 V 117 h -2.18 v 0.41 c 0.21,0.29 0.55,0.78 1,1.46 0.45,0.68 0.76,1.17 0.88,1.39 z m 9.71,4.06 v 0.74 h -9.29 V 125 h 4.43 v -2.69 H 195 v -0.7 h 3.31 v -2.5 h -3.68 v -0.72 h 8.19 v 0.72 h -3.74 v 2.5 h 3.4 v 0.7 h -3.4 V 125 Z m -1,-8.22 H 195 v -4.48 h 7.2 z m -0.73,-3.8 h -5.75 v 3.11 h 5.75 z"
     class="cls-13" />
</svg>
