<?xml version="1.0" encoding="UTF-8" standalone="no"?>
<svg
   xmlns:dc="http://purl.org/dc/elements/1.1/"
   xmlns:cc="http://creativecommons.org/ns#"
   xmlns:rdf="http://www.w3.org/1999/02/22-rdf-syntax-ns#"
   xmlns:svg="http://www.w3.org/2000/svg"
   xmlns="http://www.w3.org/2000/svg"
   xmlns:sodipodi="http://sodipodi.sourceforge.net/DTD/sodipodi-0.dtd"
   xmlns:inkscape="http://www.inkscape.org/namespaces/inkscape"
   viewBox="0 0 353.51999 251.06"
   version="1.1"
   id="svg868"
   sodipodi:docname="card1.svg"
   width="353.51999"
   height="251.06"
   inkscape:version="0.92.3 (2405546, 2018-03-11)">
  <metadata
     id="metadata872">
    <rdf:RDF>
      <cc:Work
         rdf:about="">
        <dc:format>image/svg+xml</dc:format>
        <dc:type
           rdf:resource="http://purl.org/dc/dcmitype/StillImage" />
        <dc:title>card1</dc:title>
      </cc:Work>
    </rdf:RDF>
  </metadata>
  <sodipodi:namedview
     pagecolor="#ffffff"
     bordercolor="#666666"
     borderopacity="1"
     objecttolerance="10"
     gridtolerance="10"
     guidetolerance="10"
     inkscape:pageopacity="0"
     inkscape:pageshadow="2"
     inkscape:window-width="1271"
     inkscape:window-height="794"
     id="namedview870"
     showgrid="false"
     fit-margin-top="0"
     fit-margin-left="0"
     fit-margin-right="0"
     fit-margin-bottom="0"
     inkscape:zoom="1.7895678"
     inkscape:cx="173.5"
     inkscape:cy="118.26353"
     inkscape:window-x="0"
     inkscape:window-y="23"
     inkscape:window-maximized="0"
     inkscape:current-layer="Layer_2" />
  <defs
     id="defs680">
    <style
       id="style672">.cls-1{fill:none;}.cls-2{fill:#4398ed;}.cls-3{isolation:isolate;}.cls-4{opacity:0.75;mix-blend-mode:multiply;}.cls-5{clip-path:url(#clip-path);}.cls-11,.cls-6{fill:#fff;}.cls-6{stroke:#b3b3b3;stroke-miterlimit:10;}.cls-7{clip-path:url(#clip-path-2);}.cls-8{fill:#4d4d4d;}.cls-9{fill:#333;}.cls-10{fill:#545454;}.cls-12{fill:#30a0d2;}.cls-13{fill:#dae2e5;}.cls-14{fill:#ccd3d6;}.cls-15{fill:#d5eaf5;}.cls-16{fill:#86bc43;}.cls-17{fill:#1c4b77;}.cls-18{fill:#ec8f26;}.cls-19{fill:#e45827;}.cls-20{fill:#989898;}.cls-21{opacity:0.5;}</style>
    <clipPath
       id="clip-path">
      <rect
         class="cls-1"
         x="42"
         y="9"
         width="353"
         height="251.06"
         id="rect674"
         style="fill:none" />
    </clipPath>
    <clipPath
       id="clip-path-2">
      <rect
         class="cls-2"
         x="42"
         y="9"
         width="353"
         height="249"
         id="rect677"
         style="fill:#4398ed" />
    </clipPath>
  </defs>
  <title
     id="title682">card1</title>
  <g
     class="cls-3"
     id="g866"
     style="isolation:isolate"
     transform="translate(-42,-9)">
    <g
       id="Layer_2"
       data-name="Layer 2">
      <rect
         style="fill:none"
         id="rect688"
         height="251.06"
         width="353"
         y="9"
         x="42"
         class="cls-1" />
      <rect
         style="fill:#4398ed"
         id="rect690"
         height="249"
         width="353"
         y="9"
         x="42"
         class="cls-2" />
      <g
         id="g698"
         clip-path="url(#clip-path-2)"
         class="cls-7">
        <rect
           style="fill:#4398ed"
           id="rect692"
           height="143.64999"
           width="81.349998"
           y="82.919998"
           x="42.209999"
           class="cls-2" />
        <rect
           style="fill:#4398ed"
           id="rect694"
           transform="rotate(-2,232.09964,229.556)"
           height="65.260002"
           width="135.5"
           y="196.42999"
           x="163.75"
           class="cls-2" />
        <rect
           style="fill:#4398ed"
           id="rect696"
           transform="rotate(-0.14,368.11983,172.33726)"
           height="140.39999"
           width="72.720001"
           y="95.160004"
           x="322.12"
           class="cls-2" />
      </g>
      <rect
         style="fill:none"
         id="rect724"
         height="245.85001"
         width="353.17999"
         y="12"
         x="42.34"
         class="cls-1" />
      <path
         style="fill:#333333"
         inkscape:connector-curvature="0"
         id="path726"
         d="M 300.72,186.54 V 83.88 a 4.24,4.24 0 0 0 -4.23,-4.23 H 135.23 A 4.23,4.23 0 0 0 131,83.88 v 102.66 z"
         class="cls-9" />
      <path
         style="fill:#545454"
         inkscape:connector-curvature="0"
         id="path728"
         d="M 300.72,186.76 H 131 a 0.22,0.22 0 0 1 -0.22,-0.22 V 83.88 a 4.45,4.45 0 0 1 4.44,-4.45 h 161.27 a 4.46,4.46 0 0 1 4.45,4.45 v 102.66 a 0.22,0.22 0 0 1 -0.22,0.22 z M 131.23,186.32 H 300.49 V 83.88 a 4,4 0 0 0 -4,-4 H 135.23 a 4,4 0 0 0 -4,4 z"
         class="cls-10" />
      <path
         style="fill:#ffffff"
         inkscape:connector-curvature="0"
         id="path730"
         d="m 244.08,216.71 h -56.43 a 2.86,2.86 0 0 0 -2.6,3 v 1.14 h 61.62 v -1.14 a 2.85,2.85 0 0 0 -2.59,-3 z"
         class="cls-11" />
      <path
         style="fill:#ffffff"
         inkscape:connector-curvature="0"
         id="path732"
         d="m 131,186.54 v 12.13 a 4.22,4.22 0 0 0 4.22,4.22 h 161.27 a 4.23,4.23 0 0 0 4.23,-4.22 v -12.13 z"
         class="cls-11" />
      <rect
         style="fill:#30a0d2"
         id="rect734"
         height="93.279999"
         width="155.8"
         y="86.25"
         x="137.96001"
         class="cls-12" />
      <path
         style="fill:#dae2e5"
         inkscape:connector-curvature="0"
         id="path736"
         d="m 240.88,216.71 q -1.69,-6.92 -3.38,-13.82 h -43.27 q -1.69,6.92 -3.38,13.82 z"
         class="cls-13" />
      <path
         style="fill:#ccd3d6"
         inkscape:connector-curvature="0"
         id="path738"
         d="m 190.85,216.71 h 22.94 l 13.83,-13.82 h -33.39 q -1.69,6.92 -3.38,13.82 z"
         class="cls-14" />
      <rect
         style="fill:#d5eaf5"
         id="rect740"
         height="2.3399999"
         width="26.040001"
         y="99.559998"
         x="179.07001"
         class="cls-15" />
      <rect
         style="fill:#d5eaf5"
         id="rect742"
         height="2.3399999"
         width="36.23"
         y="104.33"
         x="191.73"
         class="cls-15" />
      <rect
         style="fill:#d5eaf5"
         id="rect744"
         height="2.3399999"
         width="32.639999"
         y="109.09"
         x="191.73"
         class="cls-15" />
      <rect
         style="fill:#d5eaf5"
         id="rect746"
         height="2.3399999"
         width="26.040001"
         y="113.86"
         x="191.73"
         class="cls-15" />
      <rect
         style="fill:#d5eaf5"
         id="rect748"
         height="2.3399999"
         width="26.040001"
         y="153.47"
         x="179.07001"
         class="cls-15" />
      <rect
         style="fill:#d5eaf5"
         id="rect750"
         height="2.3399999"
         width="66.489998"
         y="158.24001"
         x="191.73"
         class="cls-15" />
      <rect
         style="fill:#d5eaf5"
         id="rect752"
         height="2.3399999"
         width="58.860001"
         y="163.00999"
         x="191.73"
         class="cls-15" />
      <rect
         style="fill:#d5eaf5"
         id="rect754"
         height="2.3399999"
         width="26.040001"
         y="167.78"
         x="198.33"
         class="cls-15" />
      <rect
         style="fill:#d5eaf5"
         id="rect756"
         height="2.3399999"
         width="26.040001"
         y="127.62"
         x="179.07001"
         class="cls-15" />
      <rect
         style="fill:#d5eaf5"
         id="rect758"
         height="2.3399999"
         width="56.799999"
         y="132.38"
         x="191.73"
         class="cls-15" />
      <rect
         style="fill:#d5eaf5"
         id="rect760"
         height="2.3399999"
         width="53.209999"
         y="137.14999"
         x="191.73"
         class="cls-15" />
      <rect
         style="fill:#d5eaf5"
         id="rect762"
         height="2.3399999"
         width="26.040001"
         y="141.92"
         x="191.73"
         class="cls-15" />
      <path
         style="fill:#ffffff"
         inkscape:connector-curvature="0"
         id="path764"
         d="m 157.31,134.37 7.42,-3.87 v 1.65 a 0.69,0.69 0 0 1 -0.09,0.34 0.74,0.74 0 0 1 -0.31,0.26 l -3.4,1.75 a 3.71,3.71 0 0 1 -0.46,0.19 c -0.16,0.05 -0.32,0.1 -0.51,0.14 l 0.51,0.15 a 3.71,3.71 0 0 1 0.46,0.19 l 3.4,1.75 a 0.84,0.84 0 0 1 0.31,0.27 0.67,0.67 0 0 1 0.09,0.34 v 1.65 l -7.42,-3.88 z"
         class="cls-11" />
      <path
         style="fill:#ffffff"
         inkscape:connector-curvature="0"
         id="path766"
         d="m 168.92,141.18 a 1.34,1.34 0 0 1 -0.22,0.37 1,1 0 0 1 -0.3,0.27 1.23,1.23 0 0 1 -0.35,0.16 1.24,1.24 0 0 1 -0.37,0.06 h -1 l 5.47,-14 a 1.34,1.34 0 0 1 0.46,-0.6 1.22,1.22 0 0 1 0.72,-0.21 h 1 z"
         class="cls-11" />
      <path
         style="fill:#ffffff"
         inkscape:connector-curvature="0"
         id="path768"
         d="m 176.27,139.18 v -1.65 a 0.67,0.67 0 0 1 0.1,-0.34 0.77,0.77 0 0 1 0.31,-0.27 l 3.4,-1.75 a 4.3,4.3 0 0 1 1,-0.34 l -0.51,-0.14 a 3,3 0 0 1 -0.45,-0.19 l -3.4,-1.75 a 0.68,0.68 0 0 1 -0.31,-0.26 0.7,0.7 0 0 1 -0.1,-0.34 v -1.65 l 7.43,3.87 v 0.93 z"
         class="cls-11" />
      <polygon
         style="fill:#ffffff"
         id="polygon770"
         points="238.26,145.87 218.13,145.87 218.13,149.23 209.5,142.84 218.13,136.44 218.13,139.8 238.26,139.8 "
         class="cls-11" />
      <polygon
         style="fill:#ffffff"
         id="polygon772"
         points="209.5,124.34 229.63,124.34 229.63,120.99 238.26,127.38 229.63,133.78 229.63,130.42 209.5,130.42 "
         class="cls-11" />
      <path
         style="fill:#ffffff"
         inkscape:connector-curvature="0"
         id="path774"
         d="M 261.49,144.85 247,128.7 h 29 z M 249.92,130 261.49,142.91 273.06,130 Z"
         class="cls-11" />
      <path
         style="fill:#ffffff"
         inkscape:connector-curvature="0"
         id="path776"
         d="m 261.49,145.65 -6.7,-17 h 13.4 z m -4.78,-15.65 4.78,12.11 4.79,-12.11 z"
         class="cls-11" />
      <path
         style="fill:#ffffff"
         inkscape:connector-curvature="0"
         id="path778"
         d="m 275.85,128.56 h -28.71 l 4.59,-5.92 h 19.52 z m -26.06,-1.3 h 23.4 l -2.57,-3.32 h -18.25 z"
         class="cls-11" />
      <path
         style="fill:#ffffff"
         inkscape:connector-curvature="0"
         id="path780"
         d="m 269.07,128.56 h -15.15 l 7.57,-6.15 z m -11.49,-1.3 h 7.82 l -3.91,-3.18 z"
         class="cls-11" />
      <path
         style="fill:#ffffff"
         inkscape:connector-curvature="0"
         id="path782"
         d="m 257,128.56 h -9.9 l 4.59,-5.92 h 0.63 l 0.21,0.25 z m -7.25,-1.3 h 4.57 l -2.3,-2.92 z"
         class="cls-11" />
      <path
         style="fill:#ffffff"
         inkscape:connector-curvature="0"
         id="path784"
         d="m 275.85,128.56 h -9.91 l 4.67,-5.92 h 0.64 l 0.2,0.25 z m -7.23,-1.3 h 4.57 l -2.26,-2.92 z"
         class="cls-11" />
      <path
         style="fill:#ffffff"
         inkscape:connector-curvature="0"
         id="path786"
         d="m 107.58,87 c 0,4.25 2.81,7.7 6.27,7.7 h 3.67 v 8.44 L 127,94.66 h 37.9 c 3.47,0 6.27,-3.45 6.27,-7.7 V 71.29 c 0,-4.25 -2.8,-7.7 -6.27,-7.7 h -51.05 c -3.46,0 -6.27,3.45 -6.27,7.7 z"
         class="cls-11" />
      <path
         style="fill:#86bc43"
         inkscape:connector-curvature="0"
         id="path788"
         d="m 162.22,134.26 a 6.6,6.6 0 0 1 -6.6,6.6 h -3.85 v 7.23 l -10,-7.23 h -39.83 a 6.6,6.6 0 0 1 -6.6,-6.6 v -13.42 a 6.6,6.6 0 0 1 6.6,-6.6 h 53.68 a 6.6,6.6 0 0 1 6.6,6.6 z"
         class="cls-16" />
      <path
         style="fill:#1c4b77"
         inkscape:connector-curvature="0"
         id="path790"
         d="m 191.09,90 c 1,4.52 4.5,8.27 7.79,8.42 l 3.52,0.14 q 0.57,4.8 1.12,9.61 3.64,-4.35 8,-9.19 10.55,0.55 21.06,1.41 c 3.27,0.3 6.78,-4.24 7.84,-10.18 q 1.84,-10.87 3.7,-21.76 c 1.06,-5.93 -1.69,-10.41 -6.13,-10 q -22.25,2.16 -44.34,5.35 a 7.58,7.58 0 0 0 -6.15,9.4 q 1.83,8.47 3.59,16.8 z"
         class="cls-17" />
      <path
         style="fill:#ec8f26"
         inkscape:connector-curvature="0"
         id="path792"
         d="m 191.51,180.77 c 1,-4.08 4.37,-7.62 7.64,-7.88 l 3.51,-0.24 c 0.35,-2.88 0.69,-5.77 1,-8.65 2.45,2.53 5.14,5.22 8.07,8.1 q 10.48,-0.57 21,-0.82 c 3.28,-0.11 6.68,4.17 7.59,9.53 q 1.59,9.83 3.19,19.65 c 0.91,5.36 -1.82,9.18 -6.1,8.55 q -21.51,-3 -43.18,-5 c -4.32,-0.42 -7.05,-4 -6.1,-8.11 z"
         class="cls-18" />
      <path
         style="fill:#e45827"
         inkscape:connector-curvature="0"
         id="path794"
         d="m 201.52,133.49 c 0.74,3.43 3.32,6.27 5.74,6.39 0.87,0 19.7,1.06 24.87,1.49 2.42,0.23 5,-3.22 5.79,-7.72 q 1.37,-8.25 2.74,-16.49 c 0.79,-4.51 -1.24,-7.9 -4.52,-7.55 q -16.42,1.65 -32.72,4.06 a 5.72,5.72 0 0 0 -4.53,7.12 l 1,4.78 -9,-2.34 9.62,7.18 a 16.53,16.53 0 0 1 1.01,3.08 z"
         class="cls-19" />
      <path
         style="fill:#ffffff"
         inkscape:connector-curvature="0"
         id="path796"
         d="m 102.12,126.14 h 1.37 v 6.09 c 0,1.23 -0.47,2.14 -1.84,2.14 a 2.7,2.7 0 0 1 -0.94,-0.15 l 0.26,-1 a 1.58,1.58 0 0 0 0.49,0.1 c 0.52,0 0.66,-0.37 0.66,-1 z m -0.15,-1.78 a 0.85,0.85 0 1 1 0.84,0.76 0.79,0.79 0 0 1 -0.81,-0.76 z"
         class="cls-11" />
      <path
         style="fill:#ffffff"
         inkscape:connector-curvature="0"
         id="path798"
         d="m 108.38,128.23 c 0,-0.61 -0.27,-1.13 -1,-1.13 a 3.29,3.29 0 0 0 -1.63,0.56 l -0.49,-0.91 a 4.47,4.47 0 0 1 2.37,-0.75 c 1.45,0 2.16,0.88 2.16,2.5 v 3.44 h -1.11 l -0.1,-0.64 v 0 a 2.81,2.81 0 0 1 -1.8,0.78 1.63,1.63 0 0 1 -1.72,-1.7 c -0.06,-1.24 0.94,-1.89 3.32,-2.15 z m -1.26,2.77 a 1.82,1.82 0 0 0 1.26,-0.64 v -1.3 c -1.57,0.2 -2.09,0.61 -2.09,1.19 0,0.58 0.35,0.75 0.83,0.75 z"
         class="cls-11" />
      <path
         style="fill:#ffffff"
         inkscape:connector-curvature="0"
         id="path800"
         d="m 110.67,126.14 h 1.39 l 0.92,3 c 0.15,0.57 0.33,1.16 0.48,1.75 h 0.05 c 0.16,-0.59 0.33,-1.18 0.5,-1.75 l 0.92,-3 h 1.31 l -2,5.8 h -1.58 z"
         class="cls-11" />
      <path
         style="fill:#ffffff"
         inkscape:connector-curvature="0"
         id="path802"
         d="m 120.17,128.23 c 0,-0.61 -0.27,-1.13 -1,-1.13 a 3.29,3.29 0 0 0 -1.63,0.56 l -0.5,-0.91 a 4.54,4.54 0 0 1 2.38,-0.75 c 1.45,0 2.16,0.88 2.16,2.5 v 3.44 h -1.11 l -0.11,-0.64 v 0 a 2.81,2.81 0 0 1 -1.8,0.78 1.63,1.63 0 0 1 -1.72,-1.7 c -0.08,-1.24 0.96,-1.89 3.33,-2.15 z m -1.26,2.77 a 1.82,1.82 0 0 0 1.26,-0.64 v -1.3 c -1.57,0.2 -2.09,0.61 -2.09,1.19 0,0.58 0.34,0.75 0.83,0.75 z"
         class="cls-11" />
      <path
         style="fill:#ffffff"
         inkscape:connector-curvature="0"
         id="path804"
         d="m 125.66,130.4 a 2.6,2.6 0 0 0 1.61,0.65 c 0.62,0 0.92,-0.29 0.92,-0.69 0,-0.4 -0.63,-0.7 -1.24,-0.94 -0.77,-0.28 -1.63,-0.72 -1.63,-1.69 0,-0.97 0.81,-1.73 2.11,-1.73 a 3.16,3.16 0 0 1 1.93,0.69 l -0.63,0.83 a 2.17,2.17 0 0 0 -1.27,-0.49 c -0.58,0 -0.85,0.27 -0.85,0.63 0,0.36 0.58,0.64 1.2,0.87 0.79,0.29 1.67,0.67 1.67,1.76 0,1.09 -0.79,1.79 -2.26,1.79 a 3.69,3.69 0 0 1 -2.2,-0.8 z"
         class="cls-11" />
      <path
         style="fill:#ffffff"
         inkscape:connector-curvature="0"
         id="path806"
         d="m 133.22,126 a 2.37,2.37 0 0 1 1.7,0.67 l -0.65,0.86 a 1.42,1.42 0 0 0 -1,-0.42 c -0.93,0 -1.58,0.77 -1.58,1.93 0,1.16 0.64,1.93 1.55,1.93 a 1.92,1.92 0 0 0 1.19,-0.5 l 0.57,0.87 a 2.94,2.94 0 0 1 -1.91,0.74 2.76,2.76 0 0 1 -2.79,-3 2.85,2.85 0 0 1 2.92,-3.08 z"
         class="cls-11" />
      <path
         style="fill:#ffffff"
         inkscape:connector-curvature="0"
         id="path808"
         d="m 136.15,126.14 h 1.12 l 0.1,1 v 0 a 2,2 0 0 1 1.65,-1.17 1.39,1.39 0 0 1 0.66,0.12 l -0.24,1.18 a 1.84,1.84 0 0 0 -0.6,-0.1 c -0.46,0 -1,0.32 -1.37,1.2 v 3.54 h -1.36 z"
         class="cls-11" />
      <path
         style="fill:#ffffff"
         inkscape:connector-curvature="0"
         id="path810"
         d="m 140.4,124.36 a 0.84,0.84 0 1 1 0.84,0.76 0.78,0.78 0 0 1 -0.84,-0.76 z m 0.16,1.78 h 1.35 v 5.8 h -1.35 z"
         class="cls-11" />
      <path
         style="fill:#ffffff"
         inkscape:connector-curvature="0"
         id="path812"
         d="m 145,132.41 v 1.82 h -1.36 v -8.09 h 1.12 l 0.1,0.61 v 0 a 2.85,2.85 0 0 1 1.75,-0.75 c 1.44,0 2.28,1.16 2.28,2.95 0,2 -1.19,3.13 -2.48,3.13 a 2.35,2.35 0 0 1 -1.49,-0.64 z m 1.17,-1.45 c 0.76,0 1.36,-0.69 1.36,-2 0,-1.31 -0.38,-1.84 -1.26,-1.84 a 1.84,1.84 0 0 0 -1.27,0.65 v 2.7 a 1.79,1.79 0 0 0 1.18,0.53 z"
         class="cls-11" />
      <path
         style="fill:#ffffff"
         inkscape:connector-curvature="0"
         id="path814"
         d="m 150.51,127.21 h -0.82 v -1 l 0.89,-0.06 0.17,-1.58 h 1.13 v 1.58 h 1.48 v 1.07 h -1.48 V 130 c 0,0.68 0.26,1 0.82,1 a 1.69,1.69 0 0 0 0.6,-0.13 l 0.24,1 a 4,4 0 0 1 -1.19,0.21 c -1.34,0 -1.84,-0.85 -1.84,-2.1 z"
         class="cls-11" />
      <path
         style="fill:#989898"
         inkscape:connector-curvature="0"
         id="path816"
         d="m 119.9,74.48 h 1.74 v 2.75 l -0.06,1.44 A 3.4,3.4 0 0 1 124,77.55 c 1.59,0 2.28,1.07 2.28,3 v 4.65 h -1.78 v -4.48 c 0,-1.22 -0.35,-1.68 -1.17,-1.68 a 2.34,2.34 0 0 0 -1.69,0.93 v 5.18 h -1.74 z"
         class="cls-20" />
      <path
         style="fill:#989898"
         inkscape:connector-curvature="0"
         id="path818"
         d="m 128.59,79.11 h -1.06 v -1.3 l 1.15,-0.08 0.21,-2 h 1.45 v 2 h 1.89 v 1.38 h -1.89 v 3.53 c 0,0.88 0.33,1.3 1,1.3 a 2.12,2.12 0 0 0 0.77,-0.17 l 0.3,1.29 a 4.86,4.86 0 0 1 -1.51,0.27 c -1.72,0 -2.35,-1.09 -2.35,-2.69 z"
         class="cls-20" />
      <path
         style="fill:#989898"
         inkscape:connector-curvature="0"
         id="path820"
         d="m 133.78,77.73 h 1.44 l 0.12,1 h 0.06 a 3.14,3.14 0 0 1 2.26,-1.19 2,2 0 0 1 2.06,1.33 3.35,3.35 0 0 1 2.39,-1.33 c 1.57,0 2.29,1.07 2.29,3 v 4.65 h -1.75 v -4.47 c 0,-1.22 -0.36,-1.68 -1.13,-1.68 A 2.32,2.32 0 0 0 140,80 v 5.18 h -1.74 v -4.46 c 0,-1.22 -0.36,-1.68 -1.14,-1.68 a 2.34,2.34 0 0 0 -1.56,0.93 v 5.18 h -1.74 z"
         class="cls-20" />
      <path
         style="fill:#989898"
         inkscape:connector-curvature="0"
         id="path822"
         d="m 146.51,74.48 h 1.74 v 8.85 c 0,0.43 0.19,0.58 0.38,0.58 a 1.07,1.07 0 0 0 0.27,0 l 0.22,1.3 a 2.37,2.37 0 0 1 -0.92,0.15 c -1.24,0 -1.69,-0.8 -1.69,-2.09 z"
         class="cls-20" />
      <path
         style="fill:#989898"
         inkscape:connector-curvature="0"
         id="path824"
         d="m 153.76,82.88 a 3.18,3.18 0 0 0 2.25,1 1.74,1.74 0 0 0 1.86,-1.84 1.65,1.65 0 0 0 -1.77,-1.8 2.43,2.43 0 0 0 -1.54,0.54 l -0.83,-0.53 0.29,-4.74 h 5.13 V 77 h -3.62 l -0.2,2.33 a 2.69,2.69 0 0 1 1.27,-0.33 2.79,2.79 0 0 1 3,3 3.24,3.24 0 0 1 -3.38,3.31 A 4.41,4.41 0 0 1 153,84 Z"
         class="cls-20" />
      <path
         style="fill:#ffffff"
         inkscape:connector-curvature="0"
         id="path826"
         d="m 199.2,189.42 a 2.72,2.72 0 0 1 2,0.81 l -0.06,-1.19 v -2.69 h 1.74 V 197 h -1.44 l -0.12,-0.8 h -0.06 a 3.07,3.07 0 0 1 -2.1,1 c -1.86,0 -3.05,-1.44 -3.05,-3.89 0,-2.45 1.47,-3.89 3.09,-3.89 z m 0.33,6.34 a 2,2 0 0 0 1.56,-0.83 v -3.46 a 2.22,2.22 0 0 0 -1.51,-0.62 c -1,0 -1.72,0.89 -1.72,2.45 0,1.56 0.6,2.46 1.67,2.46 z"
         class="cls-11" />
      <path
         style="fill:#ffffff"
         inkscape:connector-curvature="0"
         id="path828"
         d="m 208,189.42 c 2,0 3.07,1.45 3.07,3.51 a 3.41,3.41 0 0 1 -0.08,0.82 h -4.71 a 2.13,2.13 0 0 0 2.19,2.1 3.15,3.15 0 0 0 1.72,-0.54 l 0.59,1.08 a 4.67,4.67 0 0 1 -2.54,0.81 3.91,3.91 0 0 1 -0.24,-7.78 z m 1.56,3.23 c 0,-1.18 -0.5,-1.89 -1.52,-1.89 -0.87,0 -1.63,0.65 -1.78,1.89 z"
         class="cls-11" />
      <path
         style="fill:#ffffff"
         inkscape:connector-curvature="0"
         id="path830"
         d="m 212.68,186.35 h 1.74 v 8.85 c 0,0.42 0.2,0.58 0.38,0.58 a 1,1 0 0 0 0.27,0 l 0.23,1.29 a 2.38,2.38 0 0 1 -0.92,0.16 c -1.24,0 -1.7,-0.81 -1.7,-2.09 z"
         class="cls-11" />
      <path
         style="fill:#ffffff"
         inkscape:connector-curvature="0"
         id="path832"
         d="m 218.51,197.62 v 2.32 h -1.73 V 189.6 h 1.43 l 0.12,0.78 h 0.06 a 3.6,3.6 0 0 1 2.24,-1 c 1.84,0 2.91,1.48 2.91,3.77 0,2.54 -1.52,4 -3.17,4 a 3,3 0 0 1 -1.9,-0.82 z m 1.5,-1.86 c 1,0 1.74,-0.88 1.74,-2.55 0,-1.48 -0.49,-2.36 -1.6,-2.36 a 2.38,2.38 0 0 0 -1.64,0.83 v 3.46 a 2.38,2.38 0 0 0 1.49,0.62 z"
         class="cls-11" />
      <path
         style="fill:#ffffff"
         inkscape:connector-curvature="0"
         id="path834"
         d="M 225.29,186.35 H 227 v 2.75 l -0.06,1.43 a 3.39,3.39 0 0 1 2.37,-1.11 c 1.59,0 2.28,1.07 2.28,2.94 V 197 h -1.73 v -4.42 c 0,-1.23 -0.35,-1.68 -1.17,-1.68 A 2.36,2.36 0 0 0 227,191.82 V 197 h -1.74 z"
         class="cls-11" />
      <path
         style="fill:#ffffff"
         inkscape:connector-curvature="0"
         id="path836"
         d="m 233.52,187.32 a 1.08,1.08 0 1 1 1.08,1 1,1 0 0 1 -1.08,-1 z m 0.2,2.28 h 1.74 v 7.4 h -1.74 z"
         class="cls-11" />
      <path
         style="fill:#ffffff"
         inkscape:connector-curvature="0"
         id="path838"
         d="m 209,123.57 a 3.09,3.09 0 0 1 2.18,0.86 l -0.83,1.1 a 1.86,1.86 0 0 0 -1.26,-0.54 c -1.19,0 -2,1 -2,2.48 0,1.48 0.81,2.46 2,2.46 a 2.41,2.41 0 0 0 1.52,-0.64 l 0.73,1.11 a 3.73,3.73 0 0 1 -2.43,0.95 3.53,3.53 0 0 1 -3.59,-3.88 3.66,3.66 0 0 1 3.68,-3.9 z"
         class="cls-11" />
      <path
         style="fill:#ffffff"
         inkscape:connector-curvature="0"
         id="path840"
         d="m 214.9,126.82 h -2.7 v -1.27 h 2.7 v -2.86 h 1.31 v 2.86 h 2.71 v 1.27 h -2.71 v 2.85 h -1.31 z"
         class="cls-11" />
      <path
         style="fill:#ffffff"
         inkscape:connector-curvature="0"
         id="path842"
         d="m 222.65,126.82 h -2.71 v -1.27 h 2.71 v -2.86 H 224 v 2.86 h 2.7 v 1.27 H 224 v 2.85 h -1.31 z"
         class="cls-11" />
      <path
         style="fill:#ffffff"
         inkscape:connector-curvature="0"
         id="path844"
         d="M 203.25,88.45 V 92 h -2.63 V 76.32 h 2.17 l 0.18,1.19 h 0.09 a 5.48,5.48 0 0 1 3.38,-1.46 c 2.79,0 4.41,2.24 4.41,5.71 0,3.84 -2.3,6 -4.79,6 a 4.49,4.49 0 0 1 -2.88,-1.23 z m 2.26,-2.81 c 1.48,0 2.62,-1.32 2.62,-3.86 0,-2.24 -0.73,-3.56 -2.42,-3.56 a 3.57,3.57 0 0 0 -2.46,1.25 v 5.24 a 3.56,3.56 0 0 0 2.26,0.93 z"
         class="cls-11" />
      <path
         style="fill:#ffffff"
         inkscape:connector-curvature="0"
         id="path846"
         d="m 213.5,71.41 h 2.63 v 4.16 L 216,77.74 a 5.12,5.12 0 0 1 3.58,-1.69 c 2.4,0 3.45,1.62 3.45,4.45 v 7 h -2.63 v -6.65 c 0,-1.85 -0.52,-2.54 -1.75,-2.54 a 3.54,3.54 0 0 0 -2.56,1.39 v 7.84 h -2.59 z"
         class="cls-11" />
      <path
         style="fill:#ffffff"
         inkscape:connector-curvature="0"
         id="path848"
         d="M 228.87,88.45 V 92 h -2.63 V 76.32 h 2.17 l 0.19,1.19 h 0.09 a 5.45,5.45 0 0 1 3.38,-1.46 c 2.79,0 4.41,2.24 4.41,5.71 0,3.84 -2.31,6 -4.8,6 a 4.54,4.54 0 0 1 -2.88,-1.23 z m 2.26,-2.81 c 1.49,0 2.63,-1.32 2.63,-3.86 0,-2.24 -0.73,-3.56 -2.42,-3.56 a 3.61,3.61 0 0 0 -2.47,1.25 v 5.24 a 3.56,3.56 0 0 0 2.26,0.93 z"
         class="cls-11" />
      <g
         style="opacity:0.5"
         id="g862"
         class="cls-21">
        <path
           style="fill:#ffffff"
           inkscape:connector-curvature="0"
           id="path850"
           d="M 257.76,65.61 267.13,62 v 2 l -4.06,1.43 -2.84,1 v 0.08 l 2.84,1 4.06,1.49 v 2 l -9.37,-3.64 z"
           class="cls-11" />
        <path
           style="fill:#ffffff"
           inkscape:connector-curvature="0"
           id="path852"
           d="m 273.89,62.89 a 4.3,4.3 0 0 1 3,1.2 l -1.16,1.54 a 2.57,2.57 0 0 0 -1.75,-0.76 c -1.66,0 -2.82,1.37 -2.82,3.45 0,2.08 1.14,3.44 2.76,3.44 a 3.43,3.43 0 0 0 2.12,-0.89 l 1,1.54 a 5.18,5.18 0 0 1 -3.39,1.33 c -2.82,0 -5,-2 -5,-5.42 a 5.1,5.1 0 0 1 5.24,-5.43 z"
           class="cls-11" />
        <path
           style="fill:#ffffff"
           inkscape:connector-curvature="0"
           id="path854"
           d="m 282.84,62.89 c 2.6,0 4.93,2 4.93,5.43 0,3.43 -2.33,5.42 -4.93,5.42 -2.6,0 -4.9,-2 -4.9,-5.42 0,-3.42 2.34,-5.43 4.9,-5.43 z m 0,8.87 c 1.52,0 2.45,-1.37 2.45,-3.44 0,-2.07 -0.93,-3.45 -2.45,-3.45 -1.52,0 -2.42,1.37 -2.42,3.45 0,2.08 0.91,3.44 2.42,3.44 z"
           class="cls-11" />
        <path
           style="fill:#ffffff"
           inkscape:connector-curvature="0"
           id="path856"
           d="m 293.92,62.89 a 3.81,3.81 0 0 1 2.72,1.11 l -0.08,-1.67 V 58.62 H 299 v 14.86 h -2 l -0.17,-1.11 h -0.09 a 4.32,4.32 0 0 1 -2.92,1.37 c -2.59,0 -4.26,-2 -4.26,-5.42 0,-3.42 2.11,-5.43 4.36,-5.43 z m 0.47,8.84 a 2.79,2.79 0 0 0 2.17,-1.15 v -4.83 a 3.09,3.09 0 0 0 -2.11,-0.86 c -1.33,0 -2.4,1.24 -2.4,3.41 0,2.17 0.84,3.43 2.34,3.43 z"
           class="cls-11" />
        <path
           style="fill:#ffffff"
           inkscape:connector-curvature="0"
           id="path858"
           d="m 306.14,62.89 c 2.8,0 4.27,2 4.27,4.91 a 5.4,5.4 0 0 1 -0.1,1.13 h -6.57 a 3,3 0 0 0 3.05,2.93 4.27,4.27 0 0 0 2.4,-0.76 l 0.82,1.52 a 6.54,6.54 0 0 1 -3.53,1.12 c -2.87,0 -5.1,-2 -5.1,-5.42 0,-3.42 2.34,-5.43 4.76,-5.43 z m 2.17,4.51 c 0,-1.65 -0.7,-2.64 -2.11,-2.64 -1.22,0 -2.27,0.91 -2.48,2.64 z"
           class="cls-11" />
        <path
           style="fill:#ffffff"
           inkscape:connector-curvature="0"
           id="path860"
           d="M 321.28,67.38 311.91,71 v -2 l 4.09,-1.46 2.84,-1 V 66.46 L 316,65.46 311.91,64 v -2 l 9.37,3.65 z"
           class="cls-11" />
      </g>
    </g>
  </g>
</svg>
