<svg xmlns="http://www.w3.org/2000/svg" xmlns:xlink="http://www.w3.org/1999/xlink" viewBox="0 0 59.95 59.95"><defs><style>.cls-1{fill:none;}.cls-2{clip-path:url(#clip-path);}.cls-3{fill:#cdcdcd;}</style><clipPath id="clip-path" transform="translate(0 -0.04)"><rect class="cls-1" x="0.01" width="60" height="60.06"/></clipPath></defs><title>facebook</title><g id="Layer_2" data-name="Layer 2"><g id="图层_13" data-name="图层 13"><g class="cls-2"><path class="cls-3" d="M60,30A30,30,0,1,0,30,60,30,30,0,0,0,60,30ZM2.72,30A27.26,27.26,0,1,1,30,57.27,27.26,27.26,0,0,1,2.72,30Z" transform="translate(0 -0.04)"/></g><path class="cls-3" d="M31.13,47.32V30h5.71l.9-5.73H31.13V21.41c0-1.5.49-2.93,2.63-2.93h4.3V12.76H32c-5.12,0-6.52,3.37-6.52,8v3.47H21.93V30h3.51V47.32Z" transform="translate(0 -0.04)"/></g></g></svg>