<svg xmlns="http://www.w3.org/2000/svg" viewBox="0 0 28.44 25.64"><defs><style>.cls-1{fill:#fff;}</style></defs><title>login</title><g id="Layer_2" data-name="Layer 2"><g id="图层_71" data-name="图层 71"><path class="cls-1" d="M24.88,25.64H7.08a3.48,3.48,0,0,1-3.56-3.42v-3.4H5.3v3.43A1.76,1.76,0,0,0,7.08,24h17.8a1.76,1.76,0,0,0,1.78-1.71V3.39a1.76,1.76,0,0,0-1.78-1.71H7.08A1.76,1.76,0,0,0,5.3,3.39V6.82H3.52V3.39A3.48,3.48,0,0,1,7.08,0h17.8a3.48,3.48,0,0,1,3.56,3.39V22.25a3.49,3.49,0,0,1-3.56,3.39Z"/><path class="cls-1" d="M17.18,7.48a.83.83,0,0,1-.26-.61.85.85,0,0,1,.26-.62.93.93,0,0,1,1.25,0l6.15,5.91a1,1,0,0,1,0,1.31l-6.11,5.92a.93.93,0,0,1-1.25,0,.85.85,0,0,1,0-1.22l4.67-4.5H.85a.87.87,0,0,1-.74-.42A.86.86,0,0,1,.85,12h21Z"/></g></g></svg>