<svg xmlns="http://www.w3.org/2000/svg" viewBox="0 0 713 184.79"><defs><style>.cls-1{fill:#623fe9;}.cls-2{fill:none;stroke:#623fe9;stroke-miterlimit:10;}</style></defs><title>main_logo</title><g id="Layer_2" data-name="Layer 2"><g id="图层_79" data-name="图层 79"><path class="cls-1" d="M73.34,70.38q-1.14,0-5.66-.47-.41,9.44-.41,31a8.63,8.63,0,0,1-8.83,8.7,8.58,8.58,0,0,1-6.37-2.56,8.45,8.45,0,0,1-2.53-6.14V82.11q0-10.45,1.35-30.94,1.29-20.83,1.35-31.08Q52.32,2.55,62.08,3.3a38,38,0,0,1,6.34-.91q4-.3,9.84-.3,13.21,0,24.81,8.56Q115.94,20.22,115.94,34q0,17.27-13.68,27.44Q90.13,70.38,73.34,70.38Zm3.37-50.9c-1.44,0-2.71,0-3.81,0s-2,.07-2.79.16c0,2.12,0,5.28-.07,9.51q-.14,7.48-1.28,23.32a37.22,37.22,0,0,0,4.58.54q10.51,0,17.46-5A16.55,16.55,0,0,0,98.22,34c0-3.81-2.32-7.21-7-10.17A26.26,26.26,0,0,0,76.71,19.48Z"/><path class="cls-1" d="M192.93,51q-7.35,15.3-23.26,48.06-8.62,17.59-13.14,29.19-1.42,4.18-4.45,12.41-2.43,6.33-8.63,6.33a10,10,0,0,1-6.74-2.49,7.89,7.89,0,0,1-2.9-6.27q0-6.27,14.29-37.14Q140.69,86.5,124.57,58q-1.62-2.57-3.3-5.19a11.42,11.42,0,0,1-1.82-5.66,8.63,8.63,0,0,1,2.9-6.41A9.39,9.39,0,0,1,129,38a8.23,8.23,0,0,1,6.95,3.3q9.57,12.75,22.31,38.36,7.22-16,8.76-19.28,4.78-10,9.37-17.66,2.9-4.86,8-4.86a10,10,0,0,1,6.74,2.57,8,8,0,0,1,3,6.27A10,10,0,0,1,192.93,51Z"/><path class="cls-1" d="M249.82,53.73c-.94,0-2,0-3.33-.11s-2.4-.1-3.34-.1a44.44,44.44,0,0,0-6.41.54Q238,81.3,238,89.66c0,.58,0,1.67.07,3.27s.06,2.88.06,3.87q0,15.51-9.77,15.51a9.59,9.59,0,0,1-6.41-2.3,7.53,7.53,0,0,1-3-6.06q0-2.43.2-7.28c.14-3.24.2-5.67.2-7.28q0-8.16-1.21-34.92-4.19-.21-12.64-1.11T197,44.63a8.87,8.87,0,0,1,9.17-9q2.49,0,11.46.81-.07-2.16-.34-7.14c-.18-2.88-.27-5.1-.27-6.68a8.11,8.11,0,0,1,2.76-6.27,9.64,9.64,0,0,1,6.68-2.49q10,0,10,16.78l-.14,5.53a50.07,50.07,0,0,1,6.81-.6c5.17,0,8.69.33,10.58,1,3.6,1.25,5.4,4,5.4,8.22a8.6,8.6,0,0,1-2.63,6.41A9.22,9.22,0,0,1,249.82,53.73Z"/><path class="cls-1" d="M287.3,46.31a34.2,34.2,0,0,1,10.55-7.25,30.55,30.55,0,0,1,12-2.39q11.52,0,16.58,6.47Q330.25,48,331.05,58q.34,8.3.74,16.65,1.08,10.86,1.35,13.21A121.17,121.17,0,0,0,335.43,101a10.68,10.68,0,0,1,.34,2.5,7.86,7.86,0,0,1-2.86,6.23,10,10,0,0,1-6.71,2.46q-6.81,0-8.83-6.74a108.4,108.4,0,0,1-3-15.37,127.92,127.92,0,0,1-1.21-15.64c0-1.12.05-2.82.17-5.09s.17-4,.17-5.09c0-3.32,0-5.26-.14-5.79-.4-2.48-1.57-3.71-3.5-3.71q-7.49,0-13.55,6.87-3.1,3.45-8.5,13.08,0,24.41-2.36,29.39-2.62,5.53-8.36,5.53a9.94,9.94,0,0,1-6.7-2.53,7.89,7.89,0,0,1-2.94-6.23,12.43,12.43,0,0,1,.75-3.58q.47-1.47.8-18.2-.33-13.54.14-45.1l.13-2.22q.4-8,.41-10.65a44.53,44.53,0,0,0-.64-6.17,42.87,42.87,0,0,1-.64-6.17,8.06,8.06,0,0,1,2.76-6.3A9.69,9.69,0,0,1,277.87,0q6.66,0,9,7.15,1.28,4,1.28,12.4c0,4.49-.13,9.06-.4,13.68Q287.31,39.85,287.3,46.31Z"/><path class="cls-1" d="M374.8,112a29.92,29.92,0,0,1-21.43-8.56q-9.86-9.37-10.32-25a41.24,41.24,0,0,1,8.16-26.56q10.25-13.76,28.51-13.75a25.27,25.27,0,0,1,21.44,10.78q7.14,9.71,7.15,24.07,0,15.65-8.36,26.69Q390.58,112,374.8,112Zm4.05-56.09q-8.3-.06-13.08,7.55a27.41,27.41,0,0,0-4,15q0,8.09,4.59,12.4a12,12,0,0,0,8.49,3.44,14.5,14.5,0,0,0,10.18-4q4.92-4.65,5.26-12.6Q391.11,56,378.85,55.88Z"/><path class="cls-1" d="M472.75,112.78q-8.29,0-9.24-8.16-.94-6.95-1.88-14a102.73,102.73,0,0,1-1-14c0-1.16.07-3.17.23-6s.24-4.83.24-6c0-.31,0-1.11.13-2.39s.14-2.32.14-3.13q0-5.59-2.7-5.6-5.78,0-11.33,7.43a56,56,0,0,0-8.69,18.82c-.09,1.52-.27,3.54-.57,6.07A50.83,50.83,0,0,0,437.7,92a58.24,58.24,0,0,1-.44,5.84,58.09,58.09,0,0,0-.44,5.83,8.74,8.74,0,0,1-2.66,6.53,9.22,9.22,0,0,1-6.71,2.59,9.12,9.12,0,0,1-6.67-2.58,8.65,8.65,0,0,1-2.63-6.48c0-1.28-.14-3.22-.41-5.8s-.4-4.52-.4-5.8q0-6.6.94-18.33t1-18.33c0-1.38-.08-3.42-.24-6.15s-.24-4.75-.24-6.07a8.23,8.23,0,0,1,2.73-6.35,9.52,9.52,0,0,1,6.71-2.51q8.83,0,9.44,10.58l.07.74q9.84-9.9,20.76-9.91,12.74,0,17.59,10.66,3.24,7.14,3.24,21.37V72.6c-.05,2.07-.07,3.53-.07,4.38a81.61,81.61,0,0,0,1.45,13.55A81.42,81.42,0,0,1,482.12,104a8.17,8.17,0,0,1-2.7,6.27A9.41,9.41,0,0,1,472.75,112.78Z"/><path class="cls-1" d="M538,112.1q-19.95,0-34-11.46-15-12.26-15-31.75,0-22.9,14.36-41.79Q519.53,5.86,544,5.87q23.54,0,35.26,10.78T591,49.08A70.08,70.08,0,0,1,577.78,90.6Q562.54,112.11,538,112.1Zm6-88q-15,0-25.75,14.56a49.74,49.74,0,0,0-10,30.2,22.3,22.3,0,0,0,8.69,18.2q8.37,6.75,21.1,6.75,14.84,0,24.74-14.56a52.15,52.15,0,0,0,9.1-30.2q0-14.16-6.33-19.69Q559.44,24.14,544,24.13Z"/><path class="cls-1" d="M655.23,112.78q-8.29,0-9.23-8.16-.94-6.95-1.89-14a102.73,102.73,0,0,1-1-14c0-1.16.08-3.17.23-6s.24-4.83.24-6c0-.31,0-1.11.13-2.39s.14-2.32.14-3.13q0-5.59-2.7-5.6-5.77,0-11.33,7.43a56,56,0,0,0-8.69,18.82q-.12,2.28-.56,6.07a48.88,48.88,0,0,0-.38,6.08,58.24,58.24,0,0,1-.44,5.84,58.09,58.09,0,0,0-.44,5.83,8.74,8.74,0,0,1-2.66,6.53,9.22,9.22,0,0,1-6.71,2.59,9.13,9.13,0,0,1-6.67-2.58,8.68,8.68,0,0,1-2.63-6.48c0-1.28-.14-3.22-.41-5.8s-.4-4.52-.4-5.8q0-6.6.94-18.33t1-18.33c0-1.38-.08-3.42-.24-6.15s-.23-4.75-.23-6.07A8.23,8.23,0,0,1,604,36.89a9.5,9.5,0,0,1,6.7-2.51q8.83,0,9.44,10.58l.07.74q9.84-9.9,20.76-9.91,12.73,0,17.59,10.66,3.24,7.14,3.24,21.37V72.6c0,2.07-.07,3.53-.07,4.38a82.71,82.71,0,0,0,1.45,13.55A81.42,81.42,0,0,1,664.6,104a8.19,8.19,0,0,1-2.69,6.27A9.45,9.45,0,0,1,655.23,112.78Z"/></g><g id="图层_77" data-name="图层 77"><line class="cls-2" y1="166.29" x2="713" y2="166.29"/></g><g id="图层_76" data-name="图层 76"><line class="cls-2" x1="54.5" y1="184.29" x2="658.5" y2="184.29"/></g></g></svg>