<svg xmlns="http://www.w3.org/2000/svg" xmlns:xlink="http://www.w3.org/1999/xlink" viewBox="0 0 908 916.03"><defs><style>.cls-1{isolation:isolate;}.cls-2{opacity:0.5;}.cls-3,.cls-58{fill:#fff;}.cls-3{opacity:0;}.cls-4{fill:#fbfbfd;opacity:0.02;}.cls-5{fill:#f7f8fb;opacity:0.04;}.cls-6{fill:#f2f4fa;opacity:0.06;}.cls-7{fill:#eef0f8;opacity:0.08;}.cls-8{fill:#eaecf6;opacity:0.1;}.cls-9{fill:#e6e9f4;opacity:0.12;}.cls-10{fill:#e1e5f2;opacity:0.14;}.cls-11{fill:#dde1f0;opacity:0.16;}.cls-12{fill:#d9deef;opacity:0.18;}.cls-13,.cls-68{fill:#d5daed;}.cls-13{opacity:0.2;}.cls-14{fill:#d1d6eb;opacity:0.22;}.cls-15{fill:#ccd3e9;opacity:0.24;}.cls-16{fill:#c8cfe7;opacity:0.25;}.cls-17{fill:#c4cbe5;opacity:0.27;}.cls-18{fill:#c0c7e4;opacity:0.29;}.cls-19{fill:#bcc4e2;opacity:0.31;}.cls-20{fill:#b7c0e0;opacity:0.33;}.cls-21{fill:#b3bcde;opacity:0.35;}.cls-22{fill:#afb9dc;opacity:0.37;}.cls-23,.cls-76{fill:#abb5db;}.cls-23{opacity:0.39;}.cls-24{fill:#a6b1d9;opacity:0.41;}.cls-25{fill:#a2add7;opacity:0.43;}.cls-26{fill:#9eaad5;opacity:0.45;}.cls-27{fill:#9aa6d3;opacity:0.47;}.cls-28{fill:#96a2d1;opacity:0.49;}.cls-29{fill:#919fd0;opacity:0.51;}.cls-30{fill:#8d9bce;opacity:0.53;}.cls-31{fill:#8997cc;opacity:0.55;}.cls-32{fill:#8594ca;opacity:0.57;}.cls-33{fill:#8190c8;opacity:0.59;}.cls-34,.cls-85{fill:#7c8cc6;}.cls-34{opacity:0.61;}.cls-35{fill:#7888c5;opacity:0.63;}.cls-36{fill:#7485c3;opacity:0.65;}.cls-37{fill:#7081c1;opacity:0.67;}.cls-38{fill:#6b7dbf;opacity:0.69;}.cls-39{fill:#677abd;opacity:0.71;}.cls-40{fill:#6376bc;opacity:0.73;}.cls-41{fill:#5f72ba;opacity:0.75;}.cls-42{fill:#5b6eb8;opacity:0.76;}.cls-43{fill:#566bb6;opacity:0.78;}.cls-44,.cls-93{fill:#5267b4;}.cls-44{opacity:0.8;}.cls-45{fill:#4e63b2;opacity:0.82;}.cls-46{fill:#4a60b1;opacity:0.84;}.cls-47{fill:#465caf;opacity:0.86;}.cls-48{fill:#4158ad;opacity:0.88;}.cls-49{fill:#3d55ab;opacity:0.9;}.cls-119,.cls-50{fill:#3951a9;}.cls-50{opacity:0.92;}.cls-51{fill:#354da7;opacity:0.94;}.cls-52{fill:#3049a6;opacity:0.96;}.cls-53{fill:#2c46a4;opacity:0.98;}.cls-54{fill:#2842a2;}.cls-55{fill:#402ac6;}.cls-56{fill:#f7f7f7;}.cls-57{fill:#623fe9;}.cls-59{fill:#d4d9ec;}.cls-60{opacity:0.52;}.cls-61{fill:#fafafd;opacity:0.02;}.cls-62{fill:#f5f6fa;opacity:0.05;}.cls-63{fill:#eff1f8;opacity:0.07;}.cls-64{fill:#eaedf6;opacity:0.1;}.cls-65{fill:#e5e8f4;opacity:0.12;}.cls-66{fill:#e0e3f1;opacity:0.15;}.cls-67{fill:#dadfef;opacity:0.17;}.cls-68{opacity:0.2;}.cls-69{fill:#d0d6eb;opacity:0.22;}.cls-70{fill:#cbd1e8;opacity:0.24;}.cls-71{fill:#c5cce6;opacity:0.27;}.cls-72{fill:#c0c8e4;opacity:0.29;}.cls-73{fill:#bbc3e2;opacity:0.32;}.cls-74{fill:#b6bedf;opacity:0.34;}.cls-75{fill:#b0badd;opacity:0.37;}.cls-76{opacity:0.39;}.cls-77{fill:#a6b1d8;opacity:0.41;}.cls-78{fill:#a1acd6;opacity:0.44;}.cls-79{fill:#9ba7d4;opacity:0.46;}.cls-80{fill:#96a3d2;opacity:0.49;}.cls-81{fill:#919ecf;opacity:0.51;}.cls-82{fill:#8c9acd;opacity:0.54;}.cls-83{fill:#8695cb;opacity:0.56;}.cls-84{fill:#8190c9;opacity:0.59;}.cls-85{opacity:0.61;}.cls-86{fill:#7787c4;opacity:0.63;}.cls-87{fill:#7183c2;opacity:0.66;}.cls-88{fill:#6c7ebf;opacity:0.68;}.cls-89{fill:#6779bd;opacity:0.71;}.cls-90{fill:#6275bb;opacity:0.73;}.cls-91{fill:#5c70b9;opacity:0.76;}.cls-92{fill:#576bb6;opacity:0.78;}.cls-93{opacity:0.8;}.cls-94{fill:#4d62b2;opacity:0.83;}.cls-95{fill:#475eb0;opacity:0.85;}.cls-96{fill:#4259ad;opacity:0.88;}.cls-97{fill:#3d54ab;opacity:0.9;}.cls-98{fill:#3850a9;opacity:0.93;}.cls-99{fill:#324ba7;opacity:0.95;}.cls-100{fill:#2d47a4;opacity:0.98;}.cls-101,.cls-123{fill:#ffc107;}.cls-102,.cls-124{fill:#f1f2f2;}.cls-103{fill:#6f4eeb;}.cls-104{fill:#432cc6;opacity:0.37;}.cls-105{fill:#e6e7e8;}.cls-106{fill:#d1d3d4;}.cls-107{fill:#231f20;}.cls-107,.cls-113,.cls-115{opacity:0.3;}.cls-108{fill:url(#linear-gradient);}.cls-109{fill:#21409a;}.cls-110{fill:url(#linear-gradient-2);}.cls-111{fill:url(#linear-gradient-3);}.cls-112{mix-blend-mode:multiply;fill:url(#radial-gradient);}.cls-114,.cls-115{fill:#414042;}.cls-116{opacity:0.15;}.cls-117{fill:#bf9105;}.cls-118{fill:url(#linear-gradient-4);}.cls-120{opacity:0.2;}.cls-121{fill:url(#linear-gradient-5);}.cls-122{fill:#1e327a;}.cls-123,.cls-125{opacity:0.83;}.cls-124{opacity:0.49;}.cls-126{fill:url(#linear-gradient-6);}.cls-127{fill:url(#linear-gradient-7);}.cls-128{fill:url(#linear-gradient-8);}.cls-129{fill:#4782d9;}.cls-130{fill:url(#linear-gradient-9);}.cls-131{fill:url(#linear-gradient-10);}</style><linearGradient id="linear-gradient" x1="98.47" y1="332.87" x2="261.95" y2="332.87" gradientUnits="userSpaceOnUse"><stop offset="0" stop-color="#2842a2"/><stop offset="0.28" stop-color="#3358b5"/><stop offset="0.74" stop-color="#4177cf"/><stop offset="1" stop-color="#4782d9"/></linearGradient><linearGradient id="linear-gradient-2" x1="89.41" y1="328.34" x2="252.89" y2="328.34" xlink:href="#linear-gradient"/><linearGradient id="linear-gradient-3" x1="98.47" y1="310.23" x2="261.95" y2="310.23" xlink:href="#linear-gradient"/><radialGradient id="radial-gradient" cx="171.46" cy="8593.9" r="61.78" gradientTransform="translate(0 -4124.37) scale(1 0.52)" gradientUnits="userSpaceOnUse"><stop offset="0" stop-color="#2842a2"/><stop offset="0.11" stop-color="#5065b3"/><stop offset="0.29" stop-color="#8d9bce"/><stop offset="0.46" stop-color="#bec6e3"/><stop offset="0.6" stop-color="#e2e5f2"/><stop offset="0.72" stop-color="#f7f8fc"/><stop offset="0.8" stop-color="#fff"/></radialGradient><linearGradient id="linear-gradient-4" x1="525.4" y1="305.55" x2="713.79" y2="305.55" xlink:href="#linear-gradient"/><linearGradient id="linear-gradient-5" x1="541.15" y1="647.82" x2="603.63" y2="647.82" xlink:href="#linear-gradient"/><linearGradient id="linear-gradient-6" x1="258.83" y1="231.84" x2="442.18" y2="231.84" xlink:href="#linear-gradient"/><linearGradient id="linear-gradient-7" x1="341.51" y1="132.56" x2="400.54" y2="132.56" xlink:href="#linear-gradient"/><linearGradient id="linear-gradient-8" x1="276.02" y1="96.81" x2="335.06" y2="96.81" xlink:href="#linear-gradient"/><linearGradient id="linear-gradient-9" x1="410.01" y1="169.64" x2="469.04" y2="169.64" xlink:href="#linear-gradient"/><linearGradient id="linear-gradient-10" x1="296.91" y1="328.34" x2="405.34" y2="328.34" gradientUnits="userSpaceOnUse"><stop offset="0" stop-color="#2e4fad"/><stop offset="0.14" stop-color="#3258b5"/><stop offset="0.69" stop-color="#4177cf"/><stop offset="1" stop-color="#4782d9"/></linearGradient></defs><title>main</title><g class="cls-1"><g id="Layer_2" data-name="Layer 2"><g id="图层_78" data-name="图层 78"><g class="cls-2"><polygon id="_Path_" data-name="&lt;Path&gt;" class="cls-3" points="374.74 493.53 62.96 675.85 374.74 855.86 686.52 673.53 374.74 493.53"/><polygon class="cls-4" points="374.74 493.53 68.77 672.47 380.55 852.47 686.52 673.53 374.74 493.53"/><polygon class="cls-5" points="374.74 493.53 74.58 669.08 386.36 849.09 686.52 673.53 374.74 493.53"/><polygon class="cls-6" points="374.74 493.53 80.39 665.7 392.17 845.7 686.52 673.53 374.74 493.53"/><polygon class="cls-7" points="374.74 493.53 86.19 662.31 397.98 842.32 686.52 673.53 374.74 493.53"/><polygon class="cls-8" points="374.74 493.53 92 658.93 403.79 838.93 686.52 673.53 374.74 493.53"/><polygon class="cls-9" points="374.74 493.53 97.81 655.54 409.59 835.55 686.52 673.53 374.74 493.53"/><polygon class="cls-10" points="374.74 493.53 103.62 652.16 415.4 832.16 686.52 673.53 374.74 493.53"/><polygon class="cls-11" points="374.74 493.53 109.43 648.77 421.21 828.78 686.52 673.53 374.74 493.53"/><polygon class="cls-12" points="374.74 493.53 115.24 645.39 427.02 825.39 686.52 673.53 374.74 493.53"/><polygon class="cls-13" points="374.74 493.53 121.05 642 432.83 822.01 686.52 673.53 374.74 493.53"/><polygon class="cls-14" points="374.74 493.53 126.85 638.62 438.64 818.63 686.52 673.53 374.74 493.53"/><polygon class="cls-15" points="374.74 493.53 132.66 635.23 444.44 815.24 686.52 673.53 374.74 493.53"/><polygon class="cls-16" points="374.74 493.53 138.47 631.85 450.25 811.86 686.52 673.53 374.74 493.53"/><polygon class="cls-17" points="374.74 493.53 144.28 628.46 456.06 808.47 686.52 673.53 374.74 493.53"/><polygon class="cls-18" points="374.74 493.53 150.09 625.08 461.87 805.09 686.52 673.53 374.74 493.53"/><polygon class="cls-19" points="374.74 493.53 155.9 621.69 467.68 801.7 686.52 673.53 374.74 493.53"/><polygon class="cls-20" points="374.74 493.53 161.7 618.31 473.49 798.32 686.52 673.53 374.74 493.53"/><polygon class="cls-21" points="374.74 493.53 167.51 614.92 479.29 794.93 686.52 673.53 374.74 493.53"/><polygon class="cls-22" points="374.74 493.53 173.32 611.54 485.1 791.55 686.52 673.53 374.74 493.53"/><polygon class="cls-23" points="374.74 493.53 179.13 608.16 490.91 788.16 686.52 673.53 374.74 493.53"/><polygon class="cls-24" points="374.74 493.53 184.94 604.77 496.72 784.78 686.52 673.53 374.74 493.53"/><polygon class="cls-25" points="374.74 493.53 190.75 601.39 502.53 781.39 686.52 673.53 374.74 493.53"/><polygon class="cls-26" points="374.74 493.53 196.55 598 508.34 778.01 686.52 673.53 374.74 493.53"/><polygon class="cls-27" points="374.74 493.53 202.36 594.62 514.14 774.62 686.52 673.53 374.74 493.53"/><polygon class="cls-28" points="374.74 493.53 208.17 591.23 519.95 771.24 686.52 673.53 374.74 493.53"/><polygon class="cls-29" points="374.74 493.53 213.98 587.85 525.76 767.86 686.52 673.53 374.74 493.53"/><polygon class="cls-30" points="374.74 493.53 219.79 584.46 531.57 764.47 686.52 673.53 374.74 493.53"/><polygon class="cls-31" points="374.74 493.53 225.6 581.08 537.38 761.09 686.52 673.53 374.74 493.53"/><polygon class="cls-32" points="374.74 493.53 231.41 577.69 543.19 757.7 686.52 673.53 374.74 493.53"/><polygon class="cls-33" points="374.74 493.53 237.21 574.31 549 754.32 686.52 673.53 374.74 493.53"/><polygon class="cls-34" points="374.74 493.53 243.02 570.92 554.8 750.93 686.52 673.53 374.74 493.53"/><polygon class="cls-35" points="374.74 493.53 248.83 567.54 560.61 747.55 686.52 673.53 374.74 493.53"/><polygon class="cls-36" points="374.74 493.53 254.64 564.15 566.42 744.16 686.52 673.53 374.74 493.53"/><polygon class="cls-37" points="374.74 493.53 260.45 560.77 572.23 740.78 686.52 673.53 374.74 493.53"/><polygon class="cls-38" points="374.74 493.53 266.25 557.38 578.04 737.39 686.52 673.53 374.74 493.53"/><polygon class="cls-39" points="374.74 493.53 272.06 554 583.85 734.01 686.52 673.53 374.74 493.53"/><polygon class="cls-40" points="374.74 493.53 277.87 550.62 589.65 730.62 686.52 673.53 374.74 493.53"/><polygon class="cls-41" points="374.74 493.53 283.68 547.23 595.46 727.24 686.52 673.53 374.74 493.53"/><polygon class="cls-42" points="374.74 493.53 289.49 543.85 601.27 723.85 686.52 673.53 374.74 493.53"/><polygon class="cls-43" points="374.74 493.53 295.3 540.46 607.08 720.47 686.52 673.53 374.74 493.53"/><polygon class="cls-44" points="374.74 493.53 301.11 537.08 612.89 717.08 686.52 673.53 374.74 493.53"/><polygon class="cls-45" points="374.74 493.53 306.91 533.69 618.7 713.7 686.52 673.53 374.74 493.53"/><polygon class="cls-46" points="374.74 493.53 312.72 530.31 624.5 710.32 686.52 673.53 374.74 493.53"/><polygon class="cls-47" points="374.74 493.53 318.53 526.92 630.31 706.93 686.52 673.53 374.74 493.53"/><polygon class="cls-48" points="374.74 493.53 324.34 523.54 636.12 703.54 686.52 673.53 374.74 493.53"/><polygon class="cls-49" points="374.74 493.53 330.15 520.15 641.93 700.16 686.52 673.53 374.74 493.53"/><polygon class="cls-50" points="374.74 493.53 335.96 516.77 647.74 696.78 686.52 673.53 374.74 493.53"/><polygon class="cls-51" points="374.74 493.53 341.76 513.38 653.55 693.39 686.52 673.53 374.74 493.53"/><polygon class="cls-52" points="374.74 493.53 347.57 510 659.36 690.01 686.52 673.53 374.74 493.53"/><polygon class="cls-53" points="374.74 493.53 353.38 506.61 665.16 686.62 686.52 673.53 374.74 493.53"/><polygon id="_Path_2" data-name="&lt;Path&gt;" class="cls-54" points="374.74 493.53 359.19 503.23 670.97 683.24 686.52 673.53 374.74 493.53"/></g><path id="_Path_3" data-name="&lt;Path&gt;" class="cls-55" d="M374.74,33.92V27.59a5.68,5.68,0,0,1,2.61-4.78l6.87-4.43a11.56,11.56,0,0,1,12-.29L678,181c8.35,4.82,15.18,16.65,15.18,26.3v457.8a7.38,7.38,0,0,1-4.07,6.59l-6.05,3L377.85,498.5Z"/><path id="_Path_4" data-name="&lt;Path&gt;" class="cls-56" d="M370.85,34.28c0-9.64,6.83-13.58,15.18-8.76L667.45,188c8.35,4.82,15.18,16.66,15.18,26.3V674.46l-311.78-180Z"/><path id="_Path_5" data-name="&lt;Path&gt;" class="cls-57" d="M667.45,188,386,25.52c-8.35-4.82-15.18-.88-15.18,8.76V76.75l311.78,180V214.29C682.63,204.65,675.8,192.81,667.45,188Z"/><path id="_Path_6" data-name="&lt;Path&gt;" class="cls-58" d="M400.5,60.53c-3.14-1.81-5.71-.33-5.71,3.3a12.68,12.68,0,0,0,5.71,9.9c3.15,1.82,5.72.33,5.72-3.3A12.68,12.68,0,0,0,400.5,60.53Z"/><path id="_Path_7" data-name="&lt;Path&gt;" class="cls-58" d="M428.53,77c-3.15-1.81-5.72-.33-5.72,3.3a12.68,12.68,0,0,0,5.72,9.9c3.14,1.81,5.71.33,5.71-3.3A12.69,12.69,0,0,0,428.53,77Z"/><path id="_Path_8" data-name="&lt;Path&gt;" class="cls-58" d="M456.55,93.45c-3.14-1.82-5.71-.33-5.71,3.3a12.69,12.69,0,0,0,5.71,9.9c3.15,1.81,5.72.33,5.72-3.3A12.66,12.66,0,0,0,456.55,93.45Z"/><polygon id="_Path_9" data-name="&lt;Path&gt;" class="cls-59" points="396.83 270.19 396.83 330.19 448.79 360.19 448.8 300.19 396.83 270.19"/><polygon id="_Path_10" data-name="&lt;Path&gt;" class="cls-59" points="484.36 321.91 484.36 381.91 536.32 411.91 536.32 351.91 484.36 321.91"/><polygon id="_Path_11" data-name="&lt;Path&gt;" class="cls-59" points="571.88 373.62 571.88 433.63 623.85 463.63 623.85 403.62 571.88 373.62"/><polygon id="_Path_12" data-name="&lt;Path&gt;" class="cls-59" points="429.37 384.38 591.31 477.87 591.31 496.57 429.37 403.07 429.37 384.38"/><polygon id="_Path_13" data-name="&lt;Path&gt;" class="cls-59" points="385.24 405.29 668.24 568.41 668.24 577.76 385.24 414.64 385.24 405.29"/><polygon id="_Path_14" data-name="&lt;Path&gt;" class="cls-59" points="385.24 440.35 668.24 603.48 668.24 612.83 385.24 449.7 385.24 440.35"/><polygon id="_Path_15" data-name="&lt;Path&gt;" class="cls-59" points="385.24 475.41 668.24 638.54 668.24 647.89 385.24 484.76 385.24 475.41"/><g class="cls-60"><polygon id="_Path_16" data-name="&lt;Path&gt;" class="cls-3" points="157.21 555.88 0 644.87 45.47 670.71 202.15 582.02 157.21 555.88"/><polygon class="cls-61" points="157.21 555.88 3.26 643.02 48.73 668.87 202.15 582.02 157.21 555.88"/><polygon class="cls-62" points="157.21 555.88 6.52 641.18 51.99 667.02 202.15 582.02 157.21 555.88"/><polygon class="cls-63" points="157.21 555.88 9.78 639.33 55.25 665.17 202.15 582.02 157.21 555.88"/><polygon class="cls-64" points="157.21 555.88 13.04 637.48 58.51 663.32 202.15 582.02 157.21 555.88"/><polygon class="cls-65" points="157.21 555.88 16.3 635.63 61.77 661.48 202.15 582.02 157.21 555.88"/><polygon class="cls-66" points="157.21 555.88 19.56 633.79 65.03 659.63 202.15 582.02 157.21 555.88"/><polygon class="cls-67" points="157.21 555.88 22.82 631.94 68.29 657.78 202.15 582.02 157.21 555.88"/><polygon class="cls-68" points="157.21 555.88 26.08 630.09 71.55 655.93 202.15 582.02 157.21 555.88"/><polygon class="cls-69" points="157.21 555.88 29.34 628.25 74.81 654.09 202.15 582.02 157.21 555.88"/><polygon class="cls-70" points="157.21 555.88 32.6 626.4 78.07 652.24 202.15 582.02 157.21 555.88"/><polygon class="cls-71" points="157.21 555.88 35.86 624.55 81.33 650.39 202.15 582.02 157.21 555.88"/><polygon class="cls-72" points="157.21 555.88 39.12 622.7 84.59 648.54 202.15 582.02 157.21 555.88"/><polygon class="cls-73" points="157.21 555.88 42.38 620.86 87.85 646.7 202.15 582.02 157.21 555.88"/><polygon class="cls-74" points="157.21 555.88 45.64 619.01 91.11 644.85 202.15 582.02 157.21 555.88"/><polygon class="cls-75" points="157.21 555.88 48.9 617.16 94.37 643 202.15 582.02 157.21 555.88"/><polygon class="cls-76" points="157.21 555.88 52.16 615.32 97.63 641.15 202.15 582.02 157.21 555.88"/><polygon class="cls-77" points="157.21 555.88 55.42 613.47 100.89 639.31 202.15 582.02 157.21 555.88"/><polygon class="cls-78" points="157.21 555.88 58.68 611.62 104.15 637.46 202.15 582.02 157.21 555.88"/><polygon class="cls-79" points="157.21 555.88 61.94 609.77 107.41 635.61 202.15 582.02 157.21 555.88"/><polygon class="cls-80" points="157.21 555.88 65.2 607.93 110.67 633.77 202.15 582.02 157.21 555.88"/><polygon class="cls-81" points="157.21 555.88 68.46 606.08 113.93 631.92 202.15 582.02 157.21 555.88"/><polygon class="cls-82" points="157.21 555.88 71.72 604.23 117.19 630.07 202.15 582.02 157.21 555.88"/><polygon class="cls-83" points="157.21 555.88 74.98 602.38 120.45 628.22 202.15 582.02 157.21 555.88"/><polygon class="cls-84" points="157.21 555.88 78.24 600.54 123.71 626.38 202.15 582.02 157.21 555.88"/><polygon class="cls-85" points="157.21 555.88 81.5 598.69 126.97 624.53 202.15 582.02 157.21 555.88"/><polygon class="cls-86" points="157.21 555.88 84.76 596.84 130.23 622.68 202.15 582.02 157.21 555.88"/><polygon class="cls-87" points="157.21 555.88 88.02 594.99 133.49 620.84 202.15 582.02 157.21 555.88"/><polygon class="cls-88" points="157.21 555.88 91.28 593.15 136.75 618.99 202.15 582.02 157.21 555.88"/><polygon class="cls-89" points="157.21 555.88 94.54 591.3 140.01 617.14 202.15 582.02 157.21 555.88"/><polygon class="cls-90" points="157.21 555.88 97.8 589.45 143.27 615.29 202.15 582.02 157.21 555.88"/><polygon class="cls-91" points="157.21 555.88 101.06 587.61 146.53 613.45 202.15 582.02 157.21 555.88"/><polygon class="cls-92" points="157.21 555.88 104.32 585.76 149.79 611.6 202.15 582.02 157.21 555.88"/><polygon class="cls-93" points="157.21 555.88 107.58 583.91 153.05 609.75 202.15 582.02 157.21 555.88"/><polygon class="cls-94" points="157.21 555.88 110.84 582.06 156.31 607.9 202.15 582.02 157.21 555.88"/><polygon class="cls-95" points="157.21 555.88 114.1 580.22 159.57 606.06 202.15 582.02 157.21 555.88"/><polygon class="cls-96" points="157.21 555.88 117.36 578.37 162.83 604.21 202.15 582.02 157.21 555.88"/><polygon class="cls-97" points="157.21 555.88 120.62 576.52 166.09 602.36 202.15 582.02 157.21 555.88"/><polygon class="cls-98" points="157.21 555.88 123.88 574.67 169.35 600.51 202.15 582.02 157.21 555.88"/><polygon class="cls-99" points="157.21 555.88 127.14 572.83 172.61 598.67 202.15 582.02 157.21 555.88"/><polygon class="cls-100" points="157.21 555.88 130.4 570.98 175.87 596.82 202.15 582.02 157.21 555.88"/><polygon id="_Path_17" data-name="&lt;Path&gt;" class="cls-54" points="157.21 555.88 133.66 569.13 179.13 594.97 202.15 582.02 157.21 555.88"/></g><path id="_Path_18" data-name="&lt;Path&gt;" class="cls-57" d="M117.8,193a10.91,10.91,0,1,0,10.9-10.91A10.9,10.9,0,0,0,117.8,193Z"/><path id="_Path_19" data-name="&lt;Path&gt;" class="cls-57" d="M120.4,206.91A10.91,10.91,0,1,0,131.3,196,10.9,10.9,0,0,0,120.4,206.91Z"/><path id="_Path_20" data-name="&lt;Path&gt;" class="cls-57" d="M174.74,183.94l-1,27.71c0,8.73-3.84,15.45-11.68,19.82h0c-16.9,9.4-38-2.35-38-21.16V183.94a24.29,24.29,0,0,1,12.67-21.16h0C153.62,153.38,174.74,165.13,174.74,183.94Z"/><g id="_Group_" data-name="&lt;Group&gt;"><path id="_Path_21" data-name="&lt;Path&gt;" class="cls-101" d="M228.35,355.88A9.16,9.16,0,0,0,233.21,339l-69.93-43.7v-19.7a9.16,9.16,0,1,0-18.32,0V305.4l78.54,49.09A9.15,9.15,0,0,0,228.35,355.88Z"/></g><path id="_Path_22" data-name="&lt;Path&gt;" class="cls-101" d="M207.57,569l0,7a5.58,5.58,0,0,1-4.73,5.53l-1.17.18a14.79,14.79,0,0,1-10-2l-36.28-22.2.23-10.44,42,27.78Z"/><path id="_Path_23" data-name="&lt;Path&gt;" class="cls-102" d="M181.09,536.6l3.58,13.64L203.6,562.5a8.17,8.17,0,0,1-.11,14.11h0a8.16,8.16,0,0,1-8.14,0l-39.79-25,.1-15Z"/><path id="_Path_24" data-name="&lt;Path&gt;" class="cls-101" d="M155.11,600.37l0,7a5.57,5.57,0,0,1-4.73,5.53l-1.17.18a14.73,14.73,0,0,1-10-2L103,588.92l.23-10.44,42,27.78Z"/><path id="_Path_25" data-name="&lt;Path&gt;" class="cls-102" d="M128.63,568l3.58,13.64,18.93,12.26A8.17,8.17,0,0,1,151,608h0a8.16,8.16,0,0,1-8.14,0L103.1,583l.1-15Z"/><path id="_Path_26" data-name="&lt;Path&gt;" class="cls-103" d="M181,275.55V538.16a12.77,12.77,0,0,1-6.39,11.07h0a12.79,12.79,0,0,1-19.18-11.07V290.32Z"/><polygon id="_Path_27" data-name="&lt;Path&gt;" class="cls-104" points="181 275.55 181 387.36 155.43 443.36 155.43 283.71 181 275.55"/><path id="_Path_28" data-name="&lt;Path&gt;" class="cls-103" d="M129,305.65V568.26a12.78,12.78,0,0,1-6.39,11.07h0a12.78,12.78,0,0,1-19.18-11.07V320.42Z"/><path id="_Path_29" data-name="&lt;Path&gt;" class="cls-103" d="M181,275.88V385.3a17.34,17.34,0,0,1-8.66,15l-56,32.31a8.63,8.63,0,0,1-13-7.48V315.72a17.33,17.33,0,0,1,8.66-15l56-32.31A8.63,8.63,0,0,1,181,275.88Z"/><path id="_Path_30" data-name="&lt;Path&gt;" class="cls-105" d="M184.58,254.65v88a33.42,33.42,0,0,1-16.72,29l-36.75,21.22a20.43,20.43,0,0,1-30.65-17.69V275.67a18.77,18.77,0,0,1,9.4-16.27l41.47-23.95A22.17,22.17,0,0,1,184.58,254.65Z"/><g id="_Group_2" data-name="&lt;Group&gt;"><path id="_Path_31" data-name="&lt;Path&gt;" class="cls-101" d="M189.08,379.44A9.16,9.16,0,0,0,194,362.51L124,318.81v-19.7a9.17,9.17,0,0,0-18.33,0V329l78.55,49.09A9.15,9.15,0,0,0,189.08,379.44Z"/></g><g id="_Group_3" data-name="&lt;Group&gt;"><path id="_Path_32" data-name="&lt;Path&gt;" class="cls-106" d="M114.86,318.51a9.17,9.17,0,0,0,9.16-9.16v-33.8a9.17,9.17,0,0,0-18.33,0v33.8A9.17,9.17,0,0,0,114.86,318.51Z"/></g><g id="_Group_4" data-name="&lt;Group&gt;"><path id="_Path_33" data-name="&lt;Path&gt;" class="cls-101" d="M142.37,262.38a9.17,9.17,0,0,0,9.16-9.06l.31-29.3a9.16,9.16,0,0,0-18.32-.2l-.32,29.3a9.17,9.17,0,0,0,9.07,9.26Z"/></g><path id="_Path_34" data-name="&lt;Path&gt;" class="cls-107" d="M133.5,241.33V225.07l0-1.25a9.16,9.16,0,0,1,18.32.2l-.21,19.88c-2.93.87-6-1.26-9.24-1.26Z"/><path id="_Path_35" data-name="&lt;Path&gt;" class="cls-101" d="M133.5,241.33H154a20.73,20.73,0,0,0,20.73-20.73V186H152a18.49,18.49,0,0,0-18.49,18.49Z"/><path id="_Path_36" data-name="&lt;Path&gt;" class="cls-101" d="M128.7,200.86a4.8,4.8,0,1,0,4.8-4.8A4.8,4.8,0,0,0,128.7,200.86Z"/><rect id="_Rectangle_" data-name="&lt;Rectangle&gt;" class="cls-57" x="135.58" y="179.11" width="6.94" height="27.8" rx="0.75" ry="0.75" transform="translate(278.1 386.02) rotate(180)"/><path id="_Path_37" data-name="&lt;Path&gt;" class="cls-57" d="M162.25,182.1a7.85,7.85,0,1,0,7.85-7.84A7.86,7.86,0,0,0,162.25,182.1Z"/><path id="_Path_38" data-name="&lt;Path&gt;" class="cls-57" d="M146.28,180.34a7.84,7.84,0,1,0,7.84-7.84A7.84,7.84,0,0,0,146.28,180.34Z"/><path id="_Path_39" data-name="&lt;Path&gt;" class="cls-57" d="M134.83,183.41a7.85,7.85,0,1,0,7.84-7.85A7.84,7.84,0,0,0,134.83,183.41Z"/><path id="_Path_40" data-name="&lt;Path&gt;" class="cls-57" d="M159.19,172.5a10.91,10.91,0,1,0,10.91-10.91A10.91,10.91,0,0,0,159.19,172.5Z"/><path id="_Path_41" data-name="&lt;Path&gt;" class="cls-57" d="M143.21,168.12a10.91,10.91,0,1,0,10.91-10.91A10.92,10.92,0,0,0,143.21,168.12Z"/><path id="_Path_42" data-name="&lt;Path&gt;" class="cls-57" d="M131.3,168.12a10.91,10.91,0,1,0,10.91-10.91A10.92,10.92,0,0,0,131.3,168.12Z"/><path id="_Path_43" data-name="&lt;Path&gt;" class="cls-57" d="M120.4,179a10.91,10.91,0,1,0,10.9-10.91A10.9,10.9,0,0,0,120.4,179Z"/><path id="_Path_44" data-name="&lt;Path&gt;" class="cls-108" d="M204.12,288.05c-6.21-3.66-16.39-3.72-22.63-.13l-78.31,44.95c-6.24,3.58-6.29,9.52-.1,13.2l53.25,31.61c6.19,3.67,16.36,3.73,22.59.13l78.34-45.23c6.24-3.6,6.26-9.53.06-13.19Z"/><path id="_Path_45" data-name="&lt;Path&gt;" class="cls-102" d="M204.12,283.51c-6.21-3.65-16.39-3.71-22.63-.12l-78.31,44.95c-6.24,3.58-6.29,9.52-.1,13.19l53.25,31.61c6.19,3.68,16.36,3.74,22.59.14l78.34-45.23c6.24-3.6,6.26-9.53.06-13.19Z"/><polygon id="_Path_46" data-name="&lt;Path&gt;" class="cls-109" points="248.97 319.52 166.12 368.4 163.53 366.86 246.37 318.06 248.97 319.52"/><polygon id="_Path_47" data-name="&lt;Path&gt;" class="cls-109" points="240.03 314.7 157.19 363.59 154.6 362.04 237.44 313.24 240.03 314.7"/><polygon id="_Path_48" data-name="&lt;Path&gt;" class="cls-109" points="231.49 309.64 148.65 358.52 146.06 356.98 228.9 308.18 231.49 309.64"/><polygon id="_Path_49" data-name="&lt;Path&gt;" class="cls-109" points="222.84 304.7 139.99 353.59 137.4 352.04 220.24 303.24 222.84 304.7"/><polygon id="_Path_50" data-name="&lt;Path&gt;" class="cls-109" points="214.18 299.67 131.33 348.56 128.74 347.01 211.58 298.21 214.18 299.67"/><polygon id="_Path_51" data-name="&lt;Path&gt;" class="cls-109" points="205.52 294.73 122.67 343.62 120.08 342.07 202.92 293.27 205.52 294.73"/><polygon id="_Path_52" data-name="&lt;Path&gt;" class="cls-109" points="196.89 289.73 154.17 314.99 151.58 313.44 194.29 288.27 196.89 289.73"/><path id="_Path_53" data-name="&lt;Path&gt;" class="cls-110" d="M195.05,283.52c-6.2-3.66-16.38-3.72-22.62-.13L94.12,328.34c-6.24,3.58-6.29,9.52-.1,13.2l53.25,31.6c6.19,3.68,16.36,3.74,22.59.14l78.34-45.23c6.24-3.6,6.26-9.53.06-13.19Z"/><path id="_Path_54" data-name="&lt;Path&gt;" class="cls-101" d="M195.05,279c-6.2-3.65-16.38-3.71-22.62-.12L94.12,323.81c-6.24,3.58-6.29,9.52-.1,13.19l53.25,31.61c6.19,3.68,16.36,3.74,22.59.14l78.34-45.23c6.24-3.6,6.26-9.53.06-13.19Z"/><path id="_Path_55" data-name="&lt;Path&gt;" class="cls-111" d="M204.12,265.4c-6.21-3.65-16.39-3.71-22.63-.13l-78.31,45c-6.24,3.58-6.29,9.52-.1,13.19L156.33,355c6.19,3.68,16.36,3.74,22.59.14l78.34-45.23c6.24-3.6,6.26-9.54.06-13.19Z"/><path id="_Path_56" data-name="&lt;Path&gt;" class="cls-102" d="M204.12,260.87c-6.21-3.65-16.39-3.71-22.63-.13l-78.31,44.95c-6.24,3.59-6.29,9.53-.1,13.2l53.25,31.61c6.19,3.67,16.36,3.74,22.59.14l78.34-45.23c6.24-3.6,6.26-9.54.06-13.19Z"/><path id="_Path_57" data-name="&lt;Path&gt;" class="cls-112" d="M128.2,295c23.79-13.74,62.73-13.74,86.52,0s23.8,36.21,0,50S152,358.71,128.2,345,104.4,308.75,128.2,295Z"/><path class="cls-54" d="M230.58,299.22c0-1.25-1.78-2.27-4-2.27h-8.44c-1.39,0-3.71,1.47-4.05,1-.58-.73-.38-1.59.61-2.16l6-3.44c1.54-.88-8.27-.47-9.81-1.36l.08-7.44a6.19,6.19,0,0,0-5.59,0l-6,3.46a5.2,5.2,0,0,1-3.6.4l-2.58-.61c-1.25-.28-2.06-1-2.06-1.74v-4.91c0-1.25-1.77-2.27-3.95-2.27H173.44c-2.18,0-3.95,1-3.95,2.27v4.86c0,.8-.9,1.49-2.21,1.77-.83.18-1.64.38-2.44.59a5.27,5.27,0,0,1-3.76-.35l-6-3.42a6.19,6.19,0,0,0-5.59,0l-.71,8.09c-1.54.89-10.51-.15-9,.73l6,3.45c.95.54,1.23,1.36.7,2.07-.36.49-2.73-1-4.07-1H134c-2.18,0-3.95,1-3.94,2.28l0,11.55c0,1.26,1.78,2.27,4,2.27H139l-.12,9.54a1.68,1.68,0,0,0,0,.5h0a2.12,2.12,0,0,0,1.13,1.38l9.74,5.58a6,6,0,0,0,3.46.59l.07,0v0a5.21,5.21,0,0,0,2.06-.59l6-3.46a5.14,5.14,0,0,1,3.6-.4c.85.21,1.78.42,2.58.6,1.25.28,2.07,1,2.07,1.74v4.91c0,1.25,1.78,2.27,4,2.27l13.75,0c2.18,0,3.95-1,3.94-2.27v-4.86c0-.8.9-1.49,2.2-1.78.79-.17,1.57-.35,2.33-.56a5.29,5.29,0,0,1,3.75.36l6,3.43a5.5,5.5,0,0,0,2,.58v.06l.1-.05a5.94,5.94,0,0,0,3.44-.6l9.71-5.6a2.14,2.14,0,0,0,1.1-1.31l0,0v-.33l-.12-9.76h4.86c2.18,0,4-1,4-2.27Zm-31.11,9.64c-2.28,7-14.87,10.95-26.19,8.44-8.6-1.91-13.84-7.26-12.13-12.47,2.29-7,14.87-10.95,26.19-8.44C195.94,298.3,201.18,303.65,199.47,308.86Z"/><path class="cls-54" d="M221.9,286.08l0-6.21H213l-2-1.14a6.22,6.22,0,0,0-5.59,0l-2,1.13H191.14v-4.53c0-1.26-1.77-2.27-3.95-2.27H173.44c-2.18,0-3.95,1-3.95,2.27v4.53H157l-1.9-1.09a6.22,6.22,0,0,0-5.59,0l-1.87,1.08h-9v6.07a1.93,1.93,0,0,0,1.15,1.68l6,3.45,68.88-.1,6-3.43a2,2,0,0,0,1.13-1.46Z"/><g id="_Group_5" data-name="&lt;Group&gt;"><path id="_Compound_Path_" data-name="&lt;Compound Path&gt;" class="cls-57" d="M215.86,302.13h10.78c2.18,0,4-1,4-2.28v-7.91c0-1.25-1.78-2.27-4-2.27h-8.44a3.69,3.69,0,0,1-3.08-1.28c-.3-.45-.63-.9-1-1.34-.58-.73-.38-1.58.61-2.15l6-3.44c1.54-.89,1.54-2.33,0-3.21L211,272.67a6.19,6.19,0,0,0-5.59,0l-6,3.46a5.14,5.14,0,0,1-3.6.39c-.85-.21-1.78-.42-2.58-.6-1.25-.28-2.06-1-2.06-1.75v-4.9c0-1.26-1.77-2.27-3.95-2.27H173.44c-2.18,0-3.95,1-3.95,2.27v4.86c0,.8-.9,1.49-2.21,1.77-.83.18-1.64.38-2.44.59a5.33,5.33,0,0,1-3.76-.35l-6-3.43a6.22,6.22,0,0,0-5.59,0l-9.69,5.61c-1.54.89-1.53,2.33,0,3.22l6,3.45c.95.54,1.23,1.36.7,2.07-.36.49-.73,1-1,1.48a3.7,3.7,0,0,1-3,1.2H134c-2.18,0-3.95,1-3.94,2.28l0,7.91c0,1.25,1.78,2.27,4,2.27l8.44,0a3.72,3.72,0,0,1,3.09,1.27c.3.46.62.9,1,1.34.59.73.38,1.59-.61,2.16L140,310.41c-1.54.89-1.54,2.33,0,3.22l9.74,5.58a6.22,6.22,0,0,0,5.59,0l6-3.47a5.19,5.19,0,0,1,3.6-.4l2.58.61c1.25.27,2.07,1,2.07,1.74v4.9c0,1.26,1.78,2.28,4,2.27h13.75c2.18,0,3.95-1,3.94-2.28v-4.85c0-.8.9-1.5,2.2-1.78.79-.17,1.57-.36,2.33-.56a5.35,5.35,0,0,1,3.75.35l6,3.43a6.19,6.19,0,0,0,5.59,0l9.71-5.6c1.54-.89,1.53-2.33,0-3.21l-6-3.46c-.95-.54-1.22-1.36-.69-2.07C214.91,303.63,215.82,302.22,215.86,302.13Zm-54.71-8.23c2.29-7,14.87-10.94,26.19-8.43,8.6,1.91,13.84,7.26,12.13,12.47-2.28,7-14.87,10.94-26.19,8.43C164.68,304.47,159.44,299.11,161.15,293.9Z"/></g><g class="cls-2"><polygon id="_Path_58" data-name="&lt;Path&gt;" class="cls-3" points="289.37 794.34 187.34 852.42 217.81 870 319.83 811.92 289.37 794.34"/><polygon class="cls-4" points="289.37 794.34 189.32 851.3 219.78 868.88 319.83 811.92 289.37 794.34"/><polygon class="cls-5" points="289.37 794.34 191.29 850.18 221.75 867.76 319.83 811.92 289.37 794.34"/><polygon class="cls-6" points="289.37 794.34 193.26 849.06 223.72 866.64 319.83 811.92 289.37 794.34"/><polygon class="cls-7" points="289.37 794.34 195.23 847.94 225.69 865.52 319.83 811.92 289.37 794.34"/><polygon class="cls-8" points="289.37 794.34 197.2 846.82 227.66 864.4 319.83 811.92 289.37 794.34"/><polygon class="cls-9" points="289.37 794.34 199.17 845.7 229.63 863.28 319.83 811.92 289.37 794.34"/><polygon class="cls-10" points="289.37 794.34 201.14 844.58 231.6 862.16 319.83 811.92 289.37 794.34"/><polygon class="cls-11" points="289.37 794.34 203.11 843.46 233.57 861.04 319.83 811.92 289.37 794.34"/><polygon class="cls-12" points="289.37 794.34 205.08 842.34 235.54 859.92 319.83 811.92 289.37 794.34"/><polygon class="cls-13" points="289.37 794.34 207.05 841.22 237.51 858.8 319.83 811.92 289.37 794.34"/><polygon class="cls-14" points="289.37 794.34 209.02 840.09 239.48 857.68 319.83 811.92 289.37 794.34"/><polygon class="cls-15" points="289.37 794.34 210.99 838.97 241.46 856.56 319.83 811.92 289.37 794.34"/><polygon class="cls-16" points="289.37 794.34 212.97 837.85 243.43 855.44 319.83 811.92 289.37 794.34"/><polygon class="cls-17" points="289.37 794.34 214.94 836.73 245.4 854.32 319.83 811.92 289.37 794.34"/><polygon class="cls-18" points="289.37 794.34 216.91 835.61 247.37 853.2 319.83 811.92 289.37 794.34"/><polygon class="cls-19" points="289.37 794.34 218.88 834.49 249.34 852.08 319.83 811.92 289.37 794.34"/><polygon class="cls-20" points="289.37 794.34 220.85 833.37 251.31 850.96 319.83 811.92 289.37 794.34"/><polygon class="cls-21" points="289.37 794.34 222.82 832.25 253.28 849.84 319.83 811.92 289.37 794.34"/><polygon class="cls-22" points="289.37 794.34 224.79 831.13 255.25 848.72 319.83 811.92 289.37 794.34"/><polygon class="cls-23" points="289.37 794.34 226.76 830.01 257.22 847.6 319.83 811.92 289.37 794.34"/><polygon class="cls-24" points="289.37 794.34 228.73 828.89 259.19 846.48 319.83 811.92 289.37 794.34"/><polygon class="cls-25" points="289.37 794.34 230.7 827.77 261.16 845.36 319.83 811.92 289.37 794.34"/><polygon class="cls-26" points="289.37 794.34 232.67 826.65 263.13 844.24 319.83 811.92 289.37 794.34"/><polygon class="cls-27" points="289.37 794.34 234.64 825.53 265.11 843.12 319.83 811.92 289.37 794.34"/><polygon class="cls-28" points="289.37 794.34 236.62 824.41 267.07 842 319.83 811.92 289.37 794.34"/><polygon class="cls-29" points="289.37 794.34 238.59 823.29 269.05 840.88 319.83 811.92 289.37 794.34"/><polygon class="cls-30" points="289.37 794.34 240.56 822.17 271.02 839.76 319.83 811.92 289.37 794.34"/><polygon class="cls-31" points="289.37 794.34 242.53 821.05 272.99 838.64 319.83 811.92 289.37 794.34"/><polygon class="cls-32" points="289.37 794.34 244.5 819.93 274.96 837.52 319.83 811.92 289.37 794.34"/><polygon class="cls-33" points="289.37 794.34 246.47 818.81 276.93 836.39 319.83 811.92 289.37 794.34"/><polygon class="cls-34" points="289.37 794.34 248.44 817.69 278.9 835.27 319.83 811.92 289.37 794.34"/><polygon class="cls-35" points="289.37 794.34 250.41 816.57 280.87 834.15 319.83 811.92 289.37 794.34"/><polygon class="cls-36" points="289.37 794.34 252.38 815.45 282.84 833.03 319.83 811.92 289.37 794.34"/><polygon class="cls-37" points="289.37 794.34 254.35 814.33 284.81 831.91 319.83 811.92 289.37 794.34"/><polygon class="cls-38" points="289.37 794.34 256.32 813.21 286.78 830.79 319.83 811.92 289.37 794.34"/><polygon class="cls-39" points="289.37 794.34 258.29 812.09 288.75 829.67 319.83 811.92 289.37 794.34"/><polygon class="cls-40" points="289.37 794.34 260.26 810.97 290.73 828.55 319.83 811.92 289.37 794.34"/><polygon class="cls-41" points="289.37 794.34 262.24 809.85 292.69 827.43 319.83 811.92 289.37 794.34"/><polygon class="cls-42" points="289.37 794.34 264.2 808.73 294.67 826.31 319.83 811.92 289.37 794.34"/><polygon class="cls-43" points="289.37 794.34 266.18 807.61 296.64 825.19 319.83 811.92 289.37 794.34"/><polygon class="cls-44" points="289.37 794.34 268.15 806.49 298.61 824.07 319.83 811.92 289.37 794.34"/><polygon class="cls-45" points="289.37 794.34 270.12 805.37 300.58 822.95 319.83 811.92 289.37 794.34"/><polygon class="cls-46" points="289.37 794.34 272.09 804.25 302.55 821.83 319.83 811.92 289.37 794.34"/><polygon class="cls-47" points="289.37 794.34 274.06 803.13 304.52 820.71 319.83 811.92 289.37 794.34"/><polygon class="cls-48" points="289.37 794.34 276.03 802 306.49 819.59 319.83 811.92 289.37 794.34"/><polygon class="cls-49" points="289.37 794.34 278 800.88 308.46 818.47 319.83 811.92 289.37 794.34"/><polygon class="cls-50" points="289.37 794.34 279.97 799.76 310.43 817.35 319.83 811.92 289.37 794.34"/><polygon class="cls-51" points="289.37 794.34 281.94 798.64 312.4 816.23 319.83 811.92 289.37 794.34"/><polygon class="cls-52" points="289.37 794.34 283.91 797.52 314.37 815.11 319.83 811.92 289.37 794.34"/><polygon class="cls-53" points="289.37 794.34 285.88 796.4 316.35 813.99 319.83 811.92 289.37 794.34"/><polygon id="_Path_59" data-name="&lt;Path&gt;" class="cls-54" points="289.37 794.34 287.85 795.28 318.31 812.87 319.83 811.92 289.37 794.34"/></g><g class="cls-2"><polygon id="_Path_60" data-name="&lt;Path&gt;" class="cls-3" points="334.02 831.14 237.04 886.35 266 903.07 362.98 847.86 334.02 831.14"/><polygon class="cls-4" points="334.02 831.14 238.92 885.28 267.87 902 362.98 847.86 334.02 831.14"/><polygon class="cls-5" points="334.02 831.14 240.79 884.22 269.74 900.93 362.98 847.86 334.02 831.14"/><polygon class="cls-6" points="334.02 831.14 242.66 883.15 271.62 899.87 362.98 847.86 334.02 831.14"/><polygon class="cls-7" points="334.02 831.14 244.54 882.09 273.49 898.81 362.98 847.86 334.02 831.14"/><polygon class="cls-8" points="334.02 831.14 246.41 881.02 275.36 897.74 362.98 847.86 334.02 831.14"/><polygon class="cls-9" points="334.02 831.14 248.28 879.96 277.24 896.68 362.98 847.86 334.02 831.14"/><polygon class="cls-10" points="334.02 831.14 250.16 878.89 279.11 895.61 362.98 847.86 334.02 831.14"/><polygon class="cls-11" points="334.02 831.14 252.03 877.83 280.98 894.55 362.98 847.86 334.02 831.14"/><polygon class="cls-12" points="334.02 831.14 253.9 876.76 282.86 893.48 362.98 847.86 334.02 831.14"/><polygon class="cls-13" points="334.02 831.14 255.78 875.7 284.73 892.42 362.98 847.86 334.02 831.14"/><polygon class="cls-14" points="334.02 831.14 257.65 874.64 286.6 891.35 362.98 847.86 334.02 831.14"/><polygon class="cls-15" points="334.02 831.14 259.52 873.57 288.48 890.29 362.98 847.86 334.02 831.14"/><polygon class="cls-16" points="334.02 831.14 261.4 872.51 290.35 889.22 362.98 847.86 334.02 831.14"/><polygon class="cls-17" points="334.02 831.14 263.27 871.44 292.22 888.16 362.98 847.86 334.02 831.14"/><polygon class="cls-18" points="334.02 831.14 265.14 870.38 294.1 887.09 362.98 847.86 334.02 831.14"/><polygon class="cls-19" points="334.02 831.14 267.02 869.31 295.97 886.03 362.98 847.86 334.02 831.14"/><polygon class="cls-20" points="334.02 831.14 268.89 868.25 297.84 884.96 362.98 847.86 334.02 831.14"/><polygon class="cls-21" points="334.02 831.14 270.76 867.18 299.72 883.9 362.98 847.86 334.02 831.14"/><polygon class="cls-22" points="334.02 831.14 272.64 866.12 301.59 882.83 362.98 847.86 334.02 831.14"/><polygon class="cls-23" points="334.02 831.14 274.51 865.05 303.46 881.77 362.98 847.86 334.02 831.14"/><polygon class="cls-24" points="334.02 831.14 276.38 863.99 305.33 880.7 362.98 847.86 334.02 831.14"/><polygon class="cls-25" points="334.02 831.14 278.25 862.92 307.21 879.64 362.98 847.86 334.02 831.14"/><polygon class="cls-26" points="334.02 831.14 280.13 861.86 309.08 878.57 362.98 847.86 334.02 831.14"/><polygon class="cls-27" points="334.02 831.14 282 860.79 310.95 877.51 362.98 847.86 334.02 831.14"/><polygon class="cls-28" points="334.02 831.14 283.88 859.73 312.83 876.44 362.98 847.86 334.02 831.14"/><polygon class="cls-29" points="334.02 831.14 285.75 858.66 314.7 875.38 362.98 847.86 334.02 831.14"/><polygon class="cls-30" points="334.02 831.14 287.62 857.6 316.57 874.32 362.98 847.86 334.02 831.14"/><polygon class="cls-31" points="334.02 831.14 289.5 856.53 318.45 873.25 362.98 847.86 334.02 831.14"/><polygon class="cls-32" points="334.02 831.14 291.37 855.47 320.32 872.18 362.98 847.86 334.02 831.14"/><polygon class="cls-33" points="334.02 831.14 293.24 854.4 322.19 871.12 362.98 847.86 334.02 831.14"/><polygon class="cls-34" points="334.02 831.14 295.11 853.34 324.07 870.05 362.98 847.86 334.02 831.14"/><polygon class="cls-35" points="334.02 831.14 296.99 852.27 325.94 868.99 362.98 847.86 334.02 831.14"/><polygon class="cls-36" points="334.02 831.14 298.86 851.21 327.81 867.93 362.98 847.86 334.02 831.14"/><polygon class="cls-37" points="334.02 831.14 300.73 850.14 329.69 866.86 362.98 847.86 334.02 831.14"/><polygon class="cls-38" points="334.02 831.14 302.61 849.08 331.56 865.8 362.98 847.86 334.02 831.14"/><polygon class="cls-39" points="334.02 831.14 304.48 848.01 333.43 864.73 362.98 847.86 334.02 831.14"/><polygon class="cls-40" points="334.02 831.14 306.35 846.95 335.31 863.67 362.98 847.86 334.02 831.14"/><polygon class="cls-41" points="334.02 831.14 308.23 845.88 337.18 862.6 362.98 847.86 334.02 831.14"/><polygon class="cls-42" points="334.02 831.14 310.1 844.82 339.05 861.54 362.98 847.86 334.02 831.14"/><polygon class="cls-43" points="334.02 831.14 311.97 843.76 340.93 860.47 362.98 847.86 334.02 831.14"/><polygon class="cls-44" points="334.02 831.14 313.85 842.69 342.8 859.41 362.98 847.86 334.02 831.14"/><polygon class="cls-45" points="334.02 831.14 315.72 841.63 344.67 858.34 362.98 847.86 334.02 831.14"/><polygon class="cls-46" points="334.02 831.14 317.59 840.56 346.55 857.28 362.98 847.86 334.02 831.14"/><polygon class="cls-47" points="334.02 831.14 319.47 839.5 348.42 856.21 362.98 847.86 334.02 831.14"/><polygon class="cls-48" points="334.02 831.14 321.34 838.43 350.29 855.15 362.98 847.86 334.02 831.14"/><polygon class="cls-49" points="334.02 831.14 323.21 837.37 352.17 854.08 362.98 847.86 334.02 831.14"/><polygon class="cls-50" points="334.02 831.14 325.09 836.3 354.04 853.02 362.98 847.86 334.02 831.14"/><polygon class="cls-51" points="334.02 831.14 326.96 835.24 355.91 851.95 362.98 847.86 334.02 831.14"/><polygon class="cls-52" points="334.02 831.14 328.83 834.17 357.79 850.89 362.98 847.86 334.02 831.14"/><polygon class="cls-53" points="334.02 831.14 330.71 833.11 359.66 849.82 362.98 847.86 334.02 831.14"/><polygon id="_Path_61" data-name="&lt;Path&gt;" class="cls-54" points="334.02 831.14 332.58 832.04 361.53 848.76 362.98 847.86 334.02 831.14"/></g><g id="_Group_6" data-name="&lt;Group&gt;"><path class="cls-101" d="M296.16,580.74a8.82,8.82,0,0,1-6.15-2.49l-16.58-16a59.38,59.38,0,0,1,4-88.92l18.39-14.83a8.85,8.85,0,0,1,11.12,13.78l-18.39,14.83a41.67,41.67,0,0,0-2.78,62.4l16.58,16a8.86,8.86,0,0,1-6.15,15.23Z"/></g><g id="_Group_7" data-name="&lt;Group&gt;"><g id="_Group_8" data-name="&lt;Group&gt;"><path class="cls-57" d="M281.52,491.16a9.78,9.78,0,0,1-6.15-17.39l15.86-13.64a9.78,9.78,0,0,1,12.28,15.22L287.65,489A9.74,9.74,0,0,1,281.52,491.16Z"/></g></g><g id="_Group_9" data-name="&lt;Group&gt;"><path class="cls-57" d="M372,818.14l-21.43-7.7-3.88,25.69a3.52,3.52,0,0,0,1.82,3.09l6.3,3.49a34.73,34.73,0,0,0,34.22-.29l26.22-15.13a3,3,0,0,0,1.51-2.62v-6.12a21,21,0,0,1-2.67-1.25L403.38,813a13,13,0,0,0-13.06,0l-6.13,3.54-4-3.25Z"/></g><g id="_Group_10" data-name="&lt;Group&gt;"><path class="cls-102" d="M372,821.13,346.68,812v18.23a3.52,3.52,0,0,0,1.82,3.09l6.3,3.49a34.73,34.73,0,0,0,34.22-.29L414.28,822a5,5,0,0,0,0-8.57l-10.9-6.29a13,13,0,0,0-13.06,0l-3.39,1.95-5.42,1.21Z"/></g><g id="_Group_11" data-name="&lt;Group&gt;"><path class="cls-57" d="M374.83,830.58a12.35,12.35,0,0,1,5.56-9.63c3.06-1.77,5.57-.33,5.57,3.21a12.35,12.35,0,0,1-5.57,9.63C377.34,835.55,374.83,834.11,374.83,830.58Z"/></g><g id="_Group_12" data-name="&lt;Group&gt;"><path class="cls-106" d="M351.8,819.21c-6.83-4-6.83-10.4,0-14.35s18-4,24.86,0,6.83,10.4,0,14.35S358.64,823.16,351.8,819.21Z"/></g><g id="_Group_13" data-name="&lt;Group&gt;"><path class="cls-57" d="M311.67,784.39l-21.43-7.7-3.88,25.68a3.51,3.51,0,0,0,1.82,3.09l6.3,3.5a34.78,34.78,0,0,0,34.22-.29l26.22-15.14a3,3,0,0,0,1.52-2.62V784.8a21.6,21.6,0,0,1-2.68-1.26l-10.7-4.33a13.07,13.07,0,0,0-13.06,0l-6.13,3.54-4-3.25Z"/></g><g id="_Group_14" data-name="&lt;Group&gt;"><path class="cls-102" d="M311.67,787.37l-25.31-9.09V796.5a3.51,3.51,0,0,0,1.82,3.09l6.3,3.5a34.75,34.75,0,0,0,34.22-.3L354,788.21a5,5,0,0,0,0-8.58l-10.9-6.29a13.07,13.07,0,0,0-13.06,0l-3.38,1.95-5.43,1.21Z"/></g><g id="_Group_15" data-name="&lt;Group&gt;"><path class="cls-57" d="M314.51,796.82a12.33,12.33,0,0,1,5.57-9.63c3.05-1.77,5.56-.32,5.56,3.21a12.35,12.35,0,0,1-5.56,9.63C317,801.8,314.51,800.35,314.51,796.82Z"/></g><g id="_Group_16" data-name="&lt;Group&gt;"><path class="cls-106" d="M291.48,785.45c-6.83-3.94-6.83-10.4,0-14.35s18-3.94,24.86,0,6.84,10.41,0,14.35S298.32,789.4,291.48,785.45Z"/></g><g id="_Group_17" data-name="&lt;Group&gt;"><g id="_Group_18" data-name="&lt;Group&gt;"><path class="cls-102" d="M302.41,785.19a15.49,15.49,0,0,1-15.5-15.49V583.65a15.5,15.5,0,0,1,31,0V769.7A15.49,15.49,0,0,1,302.41,785.19Z"/></g></g><g id="_Group_19" data-name="&lt;Group&gt;" class="cls-113"><g id="_Group_20" data-name="&lt;Group&gt;"><path class="cls-114" d="M286.91,626.16V584.3c0-8.48,6.54-15.88,15-16.13a15.49,15.49,0,0,1,16,15.48v80.91l-13-7.45A35.65,35.65,0,0,1,286.91,626.16Z"/></g></g><g id="_Group_21" data-name="&lt;Group&gt;"><g id="_Group_22" data-name="&lt;Group&gt;"><path class="cls-102" d="M363.65,818.39a15.5,15.5,0,0,1-15.5-15.49v-186a15.5,15.5,0,0,1,31,0v186A15.49,15.49,0,0,1,363.65,818.39Z"/></g></g><g id="_Group_23" data-name="&lt;Group&gt;"><path class="cls-105" d="M363.65,601.36a14.87,14.87,0,0,0-2.77.26,15.48,15.48,0,0,1,12.73,15.23v186a15.49,15.49,0,0,1-12.73,15.23,15.76,15.76,0,0,0,2.77.26,15.49,15.49,0,0,0,15.49-15.49v-186A15.48,15.48,0,0,0,363.65,601.36Z"/></g><g id="_Group_24" data-name="&lt;Group&gt;"><path class="cls-102" d="M286.91,566.09l-1.78,49.28a17.44,17.44,0,0,0,8.72,15.1l56.71,32.75a16.23,16.23,0,0,0,24.34-14.05v-100a17.43,17.43,0,0,0-8.72-15.1l-56.71-32.74C298.65,495,286.91,553.6,286.91,566.09Z"/></g><path class="cls-115" d="M374.9,632.54V549.13a17.43,17.43,0,0,0-8.72-15.1l-56.71-32.74c-9.29-5.37-19.26,37.05-21.89,57.05-.2,2-.41,4.08-.61,6.12,0,.6-.06,1.16-.06,1.63L286,591.5c2.65,7.33,8.85,13.69,15.07,17.86,9.18,6.16,20,9.22,30.69,12.14s21.52,5.9,30.8,11.91C367.86,636.86,372.05,635.74,374.9,632.54Z"/><g id="_Group_25" data-name="&lt;Group&gt;"><path class="cls-57" d="M285.13,467.67l4.31,67q-1.53,15.24-3.08,30.48c-.59,5.87-2.46,12.22-1.27,17.92,1.8,8.64,8.87,16.26,16,21,9.18,6.16,20,9.22,30.69,12.14s21.52,5.9,30.8,11.91c10.4,6.76,16.57-4,16.57-13.75V569.19l4.43-64.47A19.12,19.12,0,0,0,374,488.16l-62.18-35.9A17.79,17.79,0,0,0,285.13,467.67Z"/></g><path class="cls-104" d="M374,488.16l-9.52-5.5a11,11,0,0,0-16.57,9.95c.51,13.93,1.72,31.95,4.54,42.76l1.56,6a57,57,0,0,1-.58,30.85c-2.43,8.1-5.14,16.37-5.46,23.24-.33,7.09-1.36,14.76-.71,21.65.13,1.35.32,2.69.54,4a71.54,71.54,0,0,1,14.76,7.07c10.4,6.76,16.57-4,16.57-13.75V569.19l4.43-64.47A19.12,19.12,0,0,0,374,488.16Z"/><g id="_Group_26" data-name="&lt;Group&gt;"><g id="_Group_27" data-name="&lt;Group&gt;"><path class="cls-101" d="M334.34,486.55a8.85,8.85,0,0,1-8.85-8.85V442.89a8.86,8.86,0,1,1,17.71,0V477.7A8.86,8.86,0,0,1,334.34,486.55Z"/></g></g><g id="_Group_28" data-name="&lt;Group&gt;"><path class="cls-101" d="M384.92,632.76a8.86,8.86,0,0,1-7.15-14.06l11.63-16c13-17.81,12.05-48.62-1.88-64.64l-19.37-22.26a8.85,8.85,0,0,1,13.36-11.62l19.37,22.26c19.45,22.35,20.75,62,2.85,86.67l-11.64,16A8.85,8.85,0,0,1,384.92,632.76Z"/></g><path class="cls-107" d="M379.71,504.32a10.33,10.33,0,1,0-18.38,9.45l18.94,36.8.12.19,2.73-39.82Z"/><g id="_Group_29" data-name="&lt;Group&gt;"><g id="_Group_30" data-name="&lt;Group&gt;"><path class="cls-57" d="M397.91,547.87a10.27,10.27,0,0,1-6.1-3.18l-28.26-30.23a10.33,10.33,0,1,1,15.1-14.11l28.26,30.22a10.34,10.34,0,0,1-9,17.3Z"/></g></g><g id="_Group_31" data-name="&lt;Group&gt;"><path class="cls-101" d="M393.1,629.37A13.42,13.42,0,1,1,379.68,616,13.42,13.42,0,0,1,393.1,629.37Z"/></g><g id="_Group_32" data-name="&lt;Group&gt;"><path class="cls-101" d="M326.37,409.5H370a0,0,0,0,1,0,0v50.24a8.74,8.74,0,0,1-8.74,8.74H326.37a0,0,0,0,1,0,0v-59A0,0,0,0,1,326.37,409.5Z"/></g><g id="_Group_33" data-name="&lt;Group&gt;"><path class="cls-57" d="M358.3,397.45H343.53a25.63,25.63,0,0,0-25.63,25.63h0v32a7,7,0,0,0,7,6.95h14a19.45,19.45,0,0,0,19.45-19.45V423.08h0a20.18,20.18,0,0,0,19.35-15l2.78-10.59Z"/></g><g id="_Group_34" data-name="&lt;Group&gt;"><path class="cls-101" d="M366.18,439a6.41,6.41,0,1,1-6.41-6.42A6.41,6.41,0,0,1,366.18,439Z"/></g><g class="cls-2"><polygon id="_Path_62" data-name="&lt;Path&gt;" class="cls-3" points="712.25 710.02 586.71 779.8 639.39 810.21 764.92 740.43 712.25 710.02"/><polygon class="cls-4" points="712.25 710.02 589.12 778.46 641.8 808.87 764.92 740.43 712.25 710.02"/><polygon class="cls-5" points="712.25 710.02 591.53 777.13 644.21 807.54 764.92 740.43 712.25 710.02"/><polygon class="cls-6" points="712.25 710.02 593.94 775.79 646.62 806.2 764.92 740.43 712.25 710.02"/><polygon class="cls-7" points="712.25 710.02 596.35 774.45 649.03 804.86 764.92 740.43 712.25 710.02"/><polygon class="cls-8" points="712.25 710.02 598.76 773.12 651.44 803.53 764.92 740.43 712.25 710.02"/><polygon class="cls-9" points="712.25 710.02 601.17 771.78 653.85 802.19 764.92 740.43 712.25 710.02"/><polygon class="cls-10" points="712.25 710.02 603.58 770.45 656.26 800.86 764.92 740.43 712.25 710.02"/><polygon class="cls-11" points="712.25 710.02 605.99 769.11 658.66 799.52 764.92 740.43 712.25 710.02"/><polygon class="cls-12" points="712.25 710.02 608.4 767.77 661.08 798.18 764.92 740.43 712.25 710.02"/><polygon class="cls-13" points="712.25 710.02 610.81 766.44 663.49 796.85 764.92 740.43 712.25 710.02"/><polygon class="cls-14" points="712.25 710.02 613.22 765.1 665.89 795.51 764.92 740.43 712.25 710.02"/><polygon class="cls-15" points="712.25 710.02 615.63 763.76 668.3 794.17 764.92 740.43 712.25 710.02"/><polygon class="cls-16" points="712.25 710.02 618.04 762.43 670.72 792.84 764.92 740.43 712.25 710.02"/><polygon class="cls-17" points="712.25 710.02 620.45 761.09 673.13 791.5 764.92 740.43 712.25 710.02"/><polygon class="cls-18" points="712.25 710.02 622.86 759.76 675.53 790.17 764.92 740.43 712.25 710.02"/><polygon class="cls-19" points="712.25 710.02 625.27 758.42 677.95 788.83 764.92 740.43 712.25 710.02"/><polygon class="cls-20" points="712.25 710.02 627.68 757.08 680.36 787.49 764.92 740.43 712.25 710.02"/><polygon class="cls-21" points="712.25 710.02 630.09 755.75 682.76 786.16 764.92 740.43 712.25 710.02"/><polygon class="cls-22" points="712.25 710.02 632.5 754.41 685.17 784.82 764.92 740.43 712.25 710.02"/><polygon class="cls-23" points="712.25 710.02 634.91 753.08 687.58 783.49 764.92 740.43 712.25 710.02"/><polygon class="cls-24" points="712.25 710.02 637.32 751.74 689.99 782.15 764.92 740.43 712.25 710.02"/><polygon class="cls-25" points="712.25 710.02 639.73 750.4 692.4 780.81 764.92 740.43 712.25 710.02"/><polygon class="cls-26" points="712.25 710.02 642.14 749.07 694.81 779.48 764.92 740.43 712.25 710.02"/><polygon class="cls-27" points="712.25 710.02 644.55 747.73 697.22 778.14 764.92 740.43 712.25 710.02"/><polygon class="cls-28" points="712.25 710.02 646.96 746.39 699.63 776.8 764.92 740.43 712.25 710.02"/><polygon class="cls-29" points="712.25 710.02 649.37 745.06 702.04 775.47 764.92 740.43 712.25 710.02"/><polygon class="cls-30" points="712.25 710.02 651.78 743.72 704.45 774.13 764.92 740.43 712.25 710.02"/><polygon class="cls-31" points="712.25 710.02 654.19 742.39 706.86 772.8 764.92 740.43 712.25 710.02"/><polygon class="cls-32" points="712.25 710.02 656.6 741.05 709.27 771.46 764.92 740.43 712.25 710.02"/><polygon class="cls-33" points="712.25 710.02 659.01 739.72 711.68 770.12 764.92 740.43 712.25 710.02"/><polygon class="cls-34" points="712.25 710.02 661.42 738.38 714.09 768.79 764.92 740.43 712.25 710.02"/><polygon class="cls-35" points="712.25 710.02 663.83 737.04 716.5 767.45 764.92 740.43 712.25 710.02"/><polygon class="cls-36" points="712.25 710.02 666.24 735.71 718.91 766.12 764.92 740.43 712.25 710.02"/><polygon class="cls-37" points="712.25 710.02 668.65 734.37 721.32 764.78 764.92 740.43 712.25 710.02"/><polygon class="cls-38" points="712.25 710.02 671.06 733.03 723.73 763.44 764.92 740.43 712.25 710.02"/><polygon class="cls-39" points="712.25 710.02 673.47 731.7 726.14 762.11 764.92 740.43 712.25 710.02"/><polygon class="cls-40" points="712.25 710.02 675.88 730.36 728.55 760.77 764.92 740.43 712.25 710.02"/><polygon class="cls-41" points="712.25 710.02 678.29 729.02 730.96 759.43 764.92 740.43 712.25 710.02"/><polygon class="cls-42" points="712.25 710.02 680.7 727.69 733.37 758.1 764.92 740.43 712.25 710.02"/><polygon class="cls-43" points="712.25 710.02 683.11 726.35 735.78 756.76 764.92 740.43 712.25 710.02"/><polygon class="cls-44" points="712.25 710.02 685.52 725.02 738.19 755.43 764.92 740.43 712.25 710.02"/><polygon class="cls-45" points="712.25 710.02 687.93 723.68 740.6 754.09 764.92 740.43 712.25 710.02"/><polygon class="cls-46" points="712.25 710.02 690.34 722.35 743.01 752.75 764.92 740.43 712.25 710.02"/><polygon class="cls-47" points="712.25 710.02 692.75 721.01 745.42 751.42 764.92 740.43 712.25 710.02"/><polygon class="cls-48" points="712.25 710.02 695.16 719.67 747.83 750.08 764.92 740.43 712.25 710.02"/><polygon class="cls-49" points="712.25 710.02 697.57 718.34 750.24 748.75 764.92 740.43 712.25 710.02"/><polygon class="cls-50" points="712.25 710.02 699.98 717 752.65 747.41 764.92 740.43 712.25 710.02"/><polygon class="cls-51" points="712.25 710.02 702.39 715.66 755.06 746.07 764.92 740.43 712.25 710.02"/><polygon class="cls-52" points="712.25 710.02 704.8 714.33 757.47 744.74 764.92 740.43 712.25 710.02"/><polygon class="cls-53" points="712.25 710.02 707.21 712.99 759.88 743.4 764.92 740.43 712.25 710.02"/><polygon id="_Path_63" data-name="&lt;Path&gt;" class="cls-54" points="712.25 710.02 709.62 711.66 762.29 742.07 764.92 740.43 712.25 710.02"/></g><g class="cls-116"><polygon id="_Path_64" data-name="&lt;Path&gt;" class="cls-3" points="745.91 676.64 693.24 707.44 745.91 737.85 798.58 707.05 745.91 676.64"/><polygon class="cls-4" points="745.91 676.64 694.22 706.87 746.89 737.27 798.58 707.05 745.91 676.64"/><polygon class="cls-5" points="745.91 676.64 695.2 706.29 747.87 736.7 798.58 707.05 745.91 676.64"/><polygon class="cls-6" points="745.91 676.64 696.18 705.72 748.85 736.13 798.58 707.05 745.91 676.64"/><polygon class="cls-7" points="745.91 676.64 697.16 705.15 749.83 735.56 798.58 707.05 745.91 676.64"/><polygon class="cls-8" points="745.91 676.64 698.14 704.58 750.82 734.99 798.58 707.05 745.91 676.64"/><polygon class="cls-9" points="745.91 676.64 699.12 704.01 751.8 734.42 798.58 707.05 745.91 676.64"/><polygon class="cls-10" points="745.91 676.64 700.11 703.43 752.78 733.84 798.58 707.05 745.91 676.64"/><polygon class="cls-11" points="745.91 676.64 701.09 702.86 753.76 733.27 798.58 707.05 745.91 676.64"/><polygon class="cls-12" points="745.91 676.64 702.07 702.29 754.74 732.7 798.58 707.05 745.91 676.64"/><polygon class="cls-13" points="745.91 676.64 703.05 701.72 755.72 732.13 798.58 707.05 745.91 676.64"/><polygon class="cls-14" points="745.91 676.64 704.03 701.15 756.7 731.56 798.58 707.05 745.91 676.64"/><polygon class="cls-15" points="745.91 676.64 705.01 700.58 757.68 730.99 798.58 707.05 745.91 676.64"/><polygon class="cls-16" points="745.91 676.64 705.99 700 758.66 730.41 798.58 707.05 745.91 676.64"/><polygon class="cls-17" points="745.91 676.64 706.97 699.43 759.65 729.84 798.58 707.05 745.91 676.64"/><polygon class="cls-18" points="745.91 676.64 707.96 698.86 760.63 729.27 798.58 707.05 745.91 676.64"/><polygon class="cls-19" points="745.91 676.64 708.94 698.29 761.61 728.7 798.58 707.05 745.91 676.64"/><polygon class="cls-20" points="745.91 676.64 709.92 697.72 762.59 728.13 798.58 707.05 745.91 676.64"/><polygon class="cls-21" points="745.91 676.64 710.9 697.14 763.57 727.55 798.58 707.05 745.91 676.64"/><polygon class="cls-22" points="745.91 676.64 711.88 696.57 764.55 726.98 798.58 707.05 745.91 676.64"/><polygon class="cls-23" points="745.91 676.64 712.86 696 765.53 726.41 798.58 707.05 745.91 676.64"/><polygon class="cls-24" points="745.91 676.64 713.84 695.43 766.51 725.84 798.58 707.05 745.91 676.64"/><polygon class="cls-25" points="745.91 676.64 714.82 694.86 767.5 725.27 798.58 707.05 745.91 676.64"/><polygon class="cls-26" points="745.91 676.64 715.8 694.28 768.48 724.7 798.58 707.05 745.91 676.64"/><polygon class="cls-27" points="745.91 676.64 716.79 693.71 769.46 724.12 798.58 707.05 745.91 676.64"/><polygon class="cls-28" points="745.91 676.64 717.77 693.14 770.44 723.55 798.58 707.05 745.91 676.64"/><polygon class="cls-29" points="745.91 676.64 718.75 692.57 771.42 722.98 798.58 707.05 745.91 676.64"/><polygon class="cls-30" points="745.91 676.64 719.73 692 772.4 722.41 798.58 707.05 745.91 676.64"/><polygon class="cls-31" points="745.91 676.64 720.71 691.43 773.38 721.84 798.58 707.05 745.91 676.64"/><polygon class="cls-32" points="745.91 676.64 721.69 690.85 774.37 721.26 798.58 707.05 745.91 676.64"/><polygon class="cls-33" points="745.91 676.64 722.67 690.28 775.35 720.69 798.58 707.05 745.91 676.64"/><polygon class="cls-34" points="745.91 676.64 723.66 689.71 776.33 720.12 798.58 707.05 745.91 676.64"/><polygon class="cls-35" points="745.91 676.64 724.64 689.14 777.31 719.55 798.58 707.05 745.91 676.64"/><polygon class="cls-36" points="745.91 676.64 725.62 688.57 778.29 718.98 798.58 707.05 745.91 676.64"/><polygon class="cls-37" points="745.91 676.64 726.6 688 779.27 718.4 798.58 707.05 745.91 676.64"/><polygon class="cls-38" points="745.91 676.64 727.58 687.42 780.25 717.83 798.58 707.05 745.91 676.64"/><polygon class="cls-39" points="745.91 676.64 728.56 686.85 781.23 717.26 798.58 707.05 745.91 676.64"/><polygon class="cls-40" points="745.91 676.64 729.54 686.28 782.22 716.69 798.58 707.05 745.91 676.64"/><polygon class="cls-41" points="745.91 676.64 730.52 685.71 783.2 716.12 798.58 707.05 745.91 676.64"/><polygon class="cls-42" points="745.91 676.64 731.51 685.14 784.18 715.55 798.58 707.05 745.91 676.64"/><polygon class="cls-43" points="745.91 676.64 732.49 684.57 785.16 714.97 798.58 707.05 745.91 676.64"/><polygon class="cls-44" points="745.91 676.64 733.47 683.99 786.14 714.4 798.58 707.05 745.91 676.64"/><polygon class="cls-45" points="745.91 676.64 734.45 683.42 787.12 713.83 798.58 707.05 745.91 676.64"/><polygon class="cls-46" points="745.91 676.64 735.43 682.85 788.1 713.26 798.58 707.05 745.91 676.64"/><polygon class="cls-47" points="745.91 676.64 736.41 682.28 789.08 712.69 798.58 707.05 745.91 676.64"/><polygon class="cls-48" points="745.91 676.64 737.39 681.71 790.07 712.12 798.58 707.05 745.91 676.64"/><polygon class="cls-49" points="745.91 676.64 738.37 681.13 791.05 711.54 798.58 707.05 745.91 676.64"/><polygon class="cls-50" points="745.91 676.64 739.36 680.56 792.03 710.97 798.58 707.05 745.91 676.64"/><polygon class="cls-51" points="745.91 676.64 740.34 679.99 793.01 710.4 798.58 707.05 745.91 676.64"/><polygon class="cls-52" points="745.91 676.64 741.32 679.42 793.99 709.83 798.58 707.05 745.91 676.64"/><polygon class="cls-53" points="745.91 676.64 742.3 678.85 794.97 709.26 798.58 707.05 745.91 676.64"/><polygon id="_Path_65" data-name="&lt;Path&gt;" class="cls-54" points="745.91 676.64 743.28 678.27 795.95 708.68 798.58 707.05 745.91 676.64"/></g><path id="_Path_66" data-name="&lt;Path&gt;" class="cls-57" d="M732,694.63l22.37,6,12.72,8a5.13,5.13,0,0,1,2.39,4.34V737.7l-6.82,3.94a8.32,8.32,0,0,1-8.33,0l-38.73-22.36a9.64,9.64,0,0,1-4.83-8.36h0A16.86,16.86,0,0,1,732,694.63Z"/><path id="_Path_67" data-name="&lt;Path&gt;" class="cls-58" d="M754.31,735.2l-38.73-22.36a9.59,9.59,0,0,1-4.41-5.6,17.08,17.08,0,0,0-.42,3.68,9.64,9.64,0,0,0,4.83,8.36l38.73,22.36a8.32,8.32,0,0,0,8.33,0l6.82-3.94v-6.44l-6.82,3.94A8.32,8.32,0,0,1,754.31,735.2Z"/><path id="_Path_68" data-name="&lt;Path&gt;" class="cls-58" d="M767.07,708.64l-12.72-8-8.44-2.26v15.33c0,5.08,5,9.2,11.26,9.2s11.25-4.12,11.25-9.2V710A5.11,5.11,0,0,0,767.07,708.64Z"/><path id="_Path_69" data-name="&lt;Path&gt;" class="cls-57" d="M764.83,663.35l22.37,6,12.71,8a5.14,5.14,0,0,1,2.4,4.34v24.73l-6.83,3.94a8.37,8.37,0,0,1-8.33,0L748.42,688a9.63,9.63,0,0,1-4.82-8.35h0A16.87,16.87,0,0,1,764.83,663.35Z"/><path id="_Path_70" data-name="&lt;Path&gt;" class="cls-58" d="M787.15,703.93l-38.73-22.37A9.67,9.67,0,0,1,744,676a17.17,17.17,0,0,0-.41,3.69,9.63,9.63,0,0,0,4.82,8.35l38.73,22.37a8.37,8.37,0,0,0,8.33,0l6.83-3.94V700l-6.83,3.94A8.37,8.37,0,0,1,787.15,703.93Z"/><path id="_Path_71" data-name="&lt;Path&gt;" class="cls-58" d="M799.91,677.36l-12.71-8-8.45-2.26v15.33c0,5.08,5,9.2,11.26,9.2s11.26-4.12,11.26-9.2v-3.74A5.3,5.3,0,0,0,799.91,677.36Z"/><g id="_Group_35" data-name="&lt;Group&gt;"><path id="_Path_72" data-name="&lt;Path&gt;" class="cls-101" d="M757.43,719.69a8.31,8.31,0,0,1-8.32-8.32V608.67a8.32,8.32,0,0,1,16.64,0v102.7A8.32,8.32,0,0,1,757.43,719.69Z"/></g><g id="_Group_36" data-name="&lt;Group&gt;"><path id="_Path_73" data-name="&lt;Path&gt;" class="cls-101" d="M789.84,688.17a8.32,8.32,0,0,1-8.32-8.32v-93a8.32,8.32,0,1,1,16.64,0v93A8.33,8.33,0,0,1,789.84,688.17Z"/></g><g id="_Group_37" data-name="&lt;Group&gt;"><path id="_Path_74" data-name="&lt;Path&gt;" class="cls-117" d="M747.2,425.85l-1.73,0a51.35,51.35,0,0,1-40.12-21.26l-4.66-6.42a8.31,8.31,0,1,1,13.45-9.78l4.67,6.42a35.05,35.05,0,0,0,55.29,1.81l18.7-22.46a8.32,8.32,0,0,1,12.79,10.64l-18.7,22.47A51.35,51.35,0,0,1,747.2,425.85Z"/></g><path id="_Path_75" data-name="&lt;Path&gt;" class="cls-102" d="M756.58,370.38l18.59-11.86a19.48,19.48,0,0,1,29.91,17.67L799.55,462l-.35,25-45.76,17.33-2.54-14.29-2.66-60.17L738.7,417.5l7.77-27.67A21.92,21.92,0,0,1,756.58,370.38Z"/><path class="cls-105" d="M759.66,490.05l-2.45-55.39a15.08,15.08,0,0,0-3.12-8.57l-1.94-2.51a15.29,15.29,0,0,1-2.61-13.48l5.69-20.27a21.94,21.94,0,0,1,10.11-19.45l18.59-11.86A19.35,19.35,0,0,1,790,356a19.08,19.08,0,0,0-14.84,2.54l-18.59,11.86a21.92,21.92,0,0,0-10.11,19.45L738.7,417.5l9.54,12.38,2.66,60.17,2.54,14.29,8.21-3.11Z"/><path class="cls-107" d="M757.43,600.35a8.31,8.31,0,0,0-8.32,8.32v19.46c5.41.7,12.39-.67,16.64-2.21V608.67A8.32,8.32,0,0,0,757.43,600.35Z"/><path class="cls-107" d="M798.16,601.82v-15a8.32,8.32,0,1,0-16.64,0v26.7A97.41,97.41,0,0,1,798.16,601.82Z"/><path id="_Path_76" data-name="&lt;Path&gt;" class="cls-102" d="M750.9,495.25c-4,1.72-7,28.35-7.3,32-1.56,17.17-.09,41.17-.81,58.39-.36,8.6-4.11,25.07-.95,32.95,2.76,6.87,17.81,4.5,24.51,1.89,4.57-1.79,8-5.57,11.55-9a97.16,97.16,0,0,1,26.22-18c4.11-1.93,6.69-4.76,10.19-7.31.58-11.68,1.48-23.38,2.24-35.06A113.63,113.63,0,0,0,808.81,502a114,114,0,0,1-4.79-14.8l-3.3-13.4Z"/><path class="cls-105" d="M752.36,616.81c-3.16-7.88.59-24.36.95-32.95.71-17.22-.75-41.23.8-58.39.33-3.63,3.33-30.25,7.31-32l39.92-17.22-.62-2.52L750.9,495.25c-4,1.72-7,28.35-7.3,32-1.56,17.17-.09,41.17-.81,58.39-.36,8.6-4.11,25.07-.95,32.95,2.46,6.12,14.67,4.9,22,2.72C758.64,621.46,753.81,620.41,752.36,616.81Z"/><path id="_Path_77" data-name="&lt;Path&gt;" class="cls-57" d="M750.9,482.77v12.48c12.94,1.35,44.4-10.23,49.82-21.49L799.55,462C791.57,477.31,757.26,485.63,750.9,482.77Z"/><path class="cls-107" d="M682.93,280.83,525.4,190a8.19,8.19,0,0,0-10,1.41,5.31,5.31,0,0,0-1.49,3.7V323.61a13.22,13.22,0,0,0,6,10.32L682.93,427.7Z"/><path id="_Path_78" data-name="&lt;Path&gt;" class="cls-118" d="M526.89,185.62h0a8.19,8.19,0,0,1,10-1.41l170.92,99a13.23,13.23,0,0,1,5.95,10.33V421.8a5.94,5.94,0,0,1-4.7,5.81l-1,.22a7.87,7.87,0,0,1-5.58-.89L531.35,327.81a13.27,13.27,0,0,1-6-10.33V189.32A5.31,5.31,0,0,1,526.89,185.62Z"/><path id="_Path_79" data-name="&lt;Path&gt;" class="cls-58" d="M525.4,190.31c0-3.78,2.68-5.33,6-3.44L703,286a13.2,13.2,0,0,1,6,10.32V423.85c0,3.79-2.68,5.34-6,3.45L531.36,328.19a13.22,13.22,0,0,1-6-10.32Z"/><path id="_Path_80" data-name="&lt;Path&gt;" class="cls-57" d="M531.36,328.19,703,427.3c3.28,1.89,6,.34,6-3.45V399.61l-.41-.24L525.4,293.47v24.4A13.22,13.22,0,0,0,531.36,328.19Z"/><path id="_Path_81" data-name="&lt;Path&gt;" class="cls-57" d="M641.09,312.17,609,315.47c-3.71.39-8.34-4.49-8.34-8.77V269.65c0-4.28,4.63-4.75,8.34-.85l32.08,33.75c3.71,3.9,3.71,9.24,0,9.62L609,315.47c-3.71.39-8.34-4.49-8.34-8.77V269.65c0-4.28,4.63-4.75,8.34-.85l32.08,33.75C644.8,306.45,644.8,311.79,641.09,312.17Z"/><g id="_Group_38" data-name="&lt;Group&gt;"><path id="_Path_82" data-name="&lt;Path&gt;" class="cls-105" d="M687.08,405.35a2.46,2.46,0,0,1-1.27-.35L544.52,323.43a2.54,2.54,0,0,1,2.54-4.4l141.3,81.57a2.55,2.55,0,0,1-1.28,4.75Z"/></g><g id="_Group_39" data-name="&lt;Group&gt;"><path id="_Path_83" data-name="&lt;Path&gt;" class="cls-101" d="M610.51,361.13a2.42,2.42,0,0,1-1.27-.34l-64.72-37.36a2.54,2.54,0,0,1,2.54-4.4l64.72,37.36a2.54,2.54,0,0,1-1.27,4.74Z"/></g><path id="_Path_84" data-name="&lt;Path&gt;" class="cls-101" d="M614.26,363.09c-1.43,2.48-3.77,2.48-5.2,0a10,10,0,0,1,0-9c1.43-2.48,3.77-2.48,5.2,0A10,10,0,0,1,614.26,363.09Z"/><g id="_Group_40" data-name="&lt;Group&gt;"><path id="_Path_85" data-name="&lt;Path&gt;" class="cls-101" d="M719.89,425.85a51.33,51.33,0,0,1-39.68-18.61l-18.7-22.47a8.31,8.31,0,1,1,12.78-10.64L693,396.59a35.06,35.06,0,0,0,55.3-1.81l4.66-6.42a8.32,8.32,0,0,1,13.46,9.78l-4.67,6.42a51.32,51.32,0,0,1-40.11,21.26Z"/></g><g id="_Group_41" data-name="&lt;Group&gt;"><path id="_Path_86" data-name="&lt;Path&gt;" class="cls-101" d="M776.73,383.6a8.32,8.32,0,0,1-8.32-8.32V347.37a8.32,8.32,0,0,1,16.64,0v27.91A8.32,8.32,0,0,1,776.73,383.6Z"/></g><g id="_Group_42" data-name="&lt;Group&gt;"><path id="_Rectangle_2" data-name="&lt;Rectangle&gt;" class="cls-101" d="M741.19,314.76h30.58a8,8,0,0,1,8,8v44.1a0,0,0,0,1,0,0H741.19a0,0,0,0,1,0,0V314.76A0,0,0,0,1,741.19,314.76Z" transform="translate(1520.91 681.58) rotate(180)"/></g><g id="_Group_43" data-name="&lt;Group&gt;"><path class="cls-57" d="M820.42,406.22c-1.1-3.05-3.2-5.66-4.36-8.69-3-7.83.92-16.19-1.15-24.07s-7.09-14.68-10-22.25c-3.3-8.48-6-17.28-9-25.87-3.1-8.79-8.82-15.47-18-17.85-8.85-2.29-21.64-2.4-30.6-1.37a41,41,0,0,1-4.29.27c-3.52-.07-5.58,3.06-5.26,5,.89,5.37,10.35,9.13,12.39,13.82,2.48,5.71-.36,11.68.8,17.48,1.46,7.28,5.61,13.76,6.86,21.08,1.41,8.22-4.4,15.11-2.68,22.89,1.07,4.89,3.93,9.13,5.12,13.95,1.5,6.07-.47,10.77-2.26,16.54-1.36,4.4-.61,10.23,4.81,10.93,6.45.84,8.24-7.85,14.45-8s10.62,9.1,17.37,6.08c2.79-1.24,4.38-4.44,7-6.18,3-2,6.21-2.21,9.72-3C817.33,415.65,823.14,413.75,820.42,406.22Z"/></g><path class="cls-119" d="M820.42,406.22c-1.1-3.05-3.2-5.66-4.36-8.69-3-7.83.92-16.19-1.15-24.07s-7.09-14.68-10-22.25c-3.3-8.48-6-17.28-9-25.87-3.1-8.79-8.82-15.47-18-17.85-6.19-1.6-14.27-2.12-21.64-1.95a75.9,75.9,0,0,1,16.38,1.95c9.2,2.38,14.92,9.06,18,17.85,3,8.59,5.73,17.39,9,25.87,2.95,7.57,7.95,14.34,10,22.25s-1.85,16.24,1.15,24.07c1.16,3,3.26,5.64,4.36,8.69,2.73,7.53-3.09,9.43-9.2,10.74-3.51.75-6.67.92-9.72,3-2.59,1.74-4.19,4.94-7,6.18l-.1,0a6.51,6.51,0,0,0,5.36,0c2.79-1.24,4.38-4.44,7-6.18,3-2,6.21-2.21,9.72-3C817.33,415.65,823.14,413.75,820.42,406.22Z"/><path id="_Path_87" data-name="&lt;Path&gt;" class="cls-101" d="M676.21,375.28a9.88,9.88,0,1,1-9.88-9.88A9.88,9.88,0,0,1,676.21,375.28Z"/><path class="cls-107" d="M660.69,509.85c0-5.74-4.07-12.78-9-15.65l-167.7-97a6.9,6.9,0,0,0-7.17.17L472.69,400a3.28,3.28,0,0,0-.88.86c-1.83.87-3,2.92-3,6V551L660.69,661.79Z"/><path id="_Path_88" data-name="&lt;Path&gt;" class="cls-55" d="M462.54,413.53v-3.76a3.37,3.37,0,0,1,1.55-2.85l4.09-2.64a6.88,6.88,0,0,1,7.17-.17l167.7,97c5,2.87,9,9.91,9,15.65V692.61a4.4,4.4,0,0,1-2.43,3.93l-3.6,1.8L464.38,593.44Z"/><path id="_Path_89" data-name="&lt;Path&gt;" class="cls-57" d="M460.22,413.75c0-5.74,4.07-8.09,9-5.22l167.53,96.72c5,2.87,9,9.92,9,15.66V698.2L460.22,591Z"/><path id="_Path_90" data-name="&lt;Path&gt;" class="cls-58" d="M636.79,505.25,469.26,408.53c-5-2.87-9-.52-9,5.22V439L645.83,546.19V520.91C645.83,515.17,641.76,508.12,636.79,505.25Z"/><path id="_Path_91" data-name="&lt;Path&gt;" class="cls-54" d="M477.87,429.37c-1.87-1.08-3.4-.19-3.4,2a7.54,7.54,0,0,0,3.4,5.89c1.87,1.08,3.4.2,3.4-2A7.58,7.58,0,0,0,477.87,429.37Z"/><path id="_Path_92" data-name="&lt;Path&gt;" class="cls-54" d="M494.55,439.17c-1.87-1.08-3.4-.19-3.4,2a7.54,7.54,0,0,0,3.4,5.89c1.88,1.08,3.41.2,3.41-2A7.53,7.53,0,0,0,494.55,439.17Z"/><path id="_Path_93" data-name="&lt;Path&gt;" class="cls-54" d="M511.24,449c-1.87-1.08-3.4-.2-3.4,2a7.55,7.55,0,0,0,3.4,5.9c1.87,1.08,3.4.19,3.4-2A7.54,7.54,0,0,0,511.24,449Z"/><polygon id="_Path_94" data-name="&lt;Path&gt;" class="cls-58" points="503.08 478.29 588.04 527.34 588.04 532.9 503.08 483.85 503.08 478.29"/><polygon id="_Path_95" data-name="&lt;Path&gt;" class="cls-58" points="468.79 458.56 497.96 475.5 497.96 481.07 468.79 464.13 468.79 458.56"/><polygon id="_Path_96" data-name="&lt;Path&gt;" class="cls-101" points="483.37 482.93 507.62 496.96 507.62 502.52 483.37 488.49 483.37 482.93"/><polygon id="_Path_97" data-name="&lt;Path&gt;" class="cls-58" points="511.78 499.17 544.78 518.37 544.78 523.94 511.78 504.73 511.78 499.17"/><polygon id="_Path_98" data-name="&lt;Path&gt;" class="cls-58" points="565.05 546.19 637.26 587.89 637.26 593.46 565.05 551.76 565.05 546.19"/><polygon id="_Path_99" data-name="&lt;Path&gt;" class="cls-101" points="538.15 530.72 557.31 541.76 557.31 547.33 538.15 536.28 538.15 530.72"/><polygon id="_Path_100" data-name="&lt;Path&gt;" class="cls-58" points="468.79 490.78 529.45 525.8 529.45 531.37 468.79 496.34 468.79 490.78"/><polygon id="_Path_101" data-name="&lt;Path&gt;" class="cls-58" points="513.47 532.9 572.58 567.04 572.58 572.61 513.47 538.47 513.47 532.9"/><polygon id="_Path_102" data-name="&lt;Path&gt;" class="cls-101" points="496.58 523 509.83 530.72 509.83 536.28 496.58 528.56 496.58 523"/><polygon id="_Path_103" data-name="&lt;Path&gt;" class="cls-58" points="520.55 552.75 624.42 612.56 624.42 618.13 520.55 558.32 520.55 552.75"/><polygon id="_Path_104" data-name="&lt;Path&gt;" class="cls-58" points="477.09 527.93 515.48 549.97 515.48 555.53 477.09 533.5 477.09 527.93"/><polygon id="_Path_105" data-name="&lt;Path&gt;" class="cls-58" points="541.21 581.05 637.26 636.22 637.26 641.78 541.21 586.61 541.21 581.05"/><polygon id="_Path_106" data-name="&lt;Path&gt;" class="cls-58" points="496.29 555.22 536.14 578.26 536.14 583.83 496.29 560.78 496.29 555.22"/><polygon id="_Path_107" data-name="&lt;Path&gt;" class="cls-101" points="468.79 539.11 492.49 552.75 492.49 558.32 468.79 544.67 468.79 539.11"/><polygon id="_Path_108" data-name="&lt;Path&gt;" class="cls-101" points="511.78 580.07 525.42 587.89 525.42 593.46 511.78 585.64 511.78 580.07"/><polygon id="_Path_109" data-name="&lt;Path&gt;" class="cls-58" points="494.44 569.82 507.62 577.29 507.62 582.86 494.44 575.39 494.44 569.82"/><polygon id="_Path_110" data-name="&lt;Path&gt;" class="cls-58" points="545.56 615.34 637.26 668.44 637.26 674 545.56 620.91 545.56 615.34"/><polygon id="_Path_111" data-name="&lt;Path&gt;" class="cls-58" points="504.38 591.71 533.61 608.63 533.61 614.2 504.38 597.28 504.38 591.71"/><polygon id="_Path_112" data-name="&lt;Path&gt;" class="cls-101" points="468.79 571.32 484.11 580.07 484.11 585.64 468.79 576.89 468.79 571.32"/><g class="cls-120"><polygon id="_Path_113" data-name="&lt;Path&gt;" class="cls-3" points="544.19 694.93 479.71 731.94 533.63 762.59 597.49 725.93 544.19 694.93"/><polygon class="cls-61" points="544.19 694.93 481.13 731.13 535.05 761.77 597.49 725.93 544.19 694.93"/><polygon class="cls-62" points="544.19 694.93 482.55 730.32 536.47 760.96 597.49 725.93 544.19 694.93"/><polygon class="cls-63" points="544.19 694.93 483.96 729.5 537.89 760.15 597.49 725.93 544.19 694.93"/><polygon class="cls-64" points="544.19 694.93 485.38 728.69 539.31 759.34 597.49 725.93 544.19 694.93"/><polygon class="cls-65" points="544.19 694.93 486.8 727.88 540.72 758.52 597.49 725.93 544.19 694.93"/><polygon class="cls-66" points="544.19 694.93 488.22 727.07 542.14 757.71 597.49 725.93 544.19 694.93"/><polygon class="cls-67" points="544.19 694.93 489.64 726.25 543.56 756.9 597.49 725.93 544.19 694.93"/><polygon class="cls-68" points="544.19 694.93 491.06 725.44 544.98 756.09 597.49 725.93 544.19 694.93"/><polygon class="cls-69" points="544.19 694.93 492.47 724.63 546.4 755.27 597.49 725.93 544.19 694.93"/><polygon class="cls-70" points="544.19 694.93 493.89 723.82 547.81 754.46 597.49 725.93 544.19 694.93"/><polygon class="cls-71" points="544.19 694.93 495.31 723 549.23 753.65 597.49 725.93 544.19 694.93"/><polygon class="cls-72" points="544.19 694.93 496.73 722.19 550.65 752.84 597.49 725.93 544.19 694.93"/><polygon class="cls-73" points="544.19 694.93 498.14 721.38 552.07 752.02 597.49 725.93 544.19 694.93"/><polygon class="cls-74" points="544.19 694.93 499.56 720.57 553.49 751.21 597.49 725.93 544.19 694.93"/><polygon class="cls-75" points="544.19 694.93 500.98 719.75 554.9 750.4 597.49 725.93 544.19 694.93"/><polygon class="cls-76" points="544.19 694.93 502.4 718.94 556.32 749.59 597.49 725.93 544.19 694.93"/><polygon class="cls-77" points="544.19 694.93 503.82 718.13 557.74 748.77 597.49 725.93 544.19 694.93"/><polygon class="cls-78" points="544.19 694.93 505.24 717.32 559.16 747.96 597.49 725.93 544.19 694.93"/><polygon class="cls-79" points="544.19 694.93 506.65 716.5 560.58 747.15 597.49 725.93 544.19 694.93"/><polygon class="cls-80" points="544.19 694.93 508.07 715.69 561.99 746.34 597.49 725.93 544.19 694.93"/><polygon class="cls-81" points="544.19 694.93 509.49 714.88 563.41 745.52 597.49 725.93 544.19 694.93"/><polygon class="cls-82" points="544.19 694.93 510.91 714.07 564.83 744.71 597.49 725.93 544.19 694.93"/><polygon class="cls-83" points="544.19 694.93 512.33 713.25 566.25 743.9 597.49 725.93 544.19 694.93"/><polygon class="cls-84" points="544.19 694.93 513.74 712.44 567.67 743.08 597.49 725.93 544.19 694.93"/><polygon class="cls-85" points="544.19 694.93 515.16 711.63 569.09 742.27 597.49 725.93 544.19 694.93"/><polygon class="cls-86" points="544.19 694.93 516.58 710.82 570.5 741.46 597.49 725.93 544.19 694.93"/><polygon class="cls-87" points="544.19 694.93 518 710 571.92 740.65 597.49 725.93 544.19 694.93"/><polygon class="cls-88" points="544.19 694.93 519.42 709.19 573.34 739.83 597.49 725.93 544.19 694.93"/><polygon class="cls-89" points="544.19 694.93 520.83 708.38 574.76 739.02 597.49 725.93 544.19 694.93"/><polygon class="cls-90" points="544.19 694.93 522.25 707.57 576.17 738.21 597.49 725.93 544.19 694.93"/><polygon class="cls-91" points="544.19 694.93 523.67 706.75 577.59 737.4 597.49 725.93 544.19 694.93"/><polygon class="cls-92" points="544.19 694.93 525.09 705.94 579.01 736.58 597.49 725.93 544.19 694.93"/><polygon class="cls-93" points="544.19 694.93 526.51 705.13 580.43 735.77 597.49 725.93 544.19 694.93"/><polygon class="cls-94" points="544.19 694.93 527.92 704.32 581.85 734.96 597.49 725.93 544.19 694.93"/><polygon class="cls-95" points="544.19 694.93 529.34 703.5 583.26 734.15 597.49 725.93 544.19 694.93"/><polygon class="cls-96" points="544.19 694.93 530.76 702.69 584.68 733.33 597.49 725.93 544.19 694.93"/><polygon class="cls-97" points="544.19 694.93 532.18 701.88 586.1 732.52 597.49 725.93 544.19 694.93"/><polygon class="cls-98" points="544.19 694.93 533.6 701.07 587.52 731.71 597.49 725.93 544.19 694.93"/><polygon class="cls-99" points="544.19 694.93 535.01 700.25 588.94 730.9 597.49 725.93 544.19 694.93"/><polygon class="cls-100" points="544.19 694.93 536.43 699.44 590.36 730.08 597.49 725.93 544.19 694.93"/><polygon id="_Path_114" data-name="&lt;Path&gt;" class="cls-54" points="544.19 694.93 537.85 698.63 591.77 729.27 597.49 725.93 544.19 694.93"/></g><path class="cls-107" d="M610,599.66c0-5.37-3.81-12-8.46-14.65l-38.17-22c-4.3-2.48-9-2-13.17.46a4,4,0,0,0-1.13.7l0,0,0,0a6.47,6.47,0,0,0-1.8,4.95v72L610,677.45Z"/><path id="_Path_115" data-name="&lt;Path&gt;" class="cls-121" d="M542.67,570.56l-.53.88c-.72.5-1,3.69-1,4.57V687.93c0,5.37,3.63,12.26,8.28,15L591.27,727c.66.38,3.19,1.07,3.91.82l5.45-1.91a4.49,4.49,0,0,0,3-4.24V606c0-5.37-3.8-12-8.46-14.65l-38.16-22C552.31,566.67,547.13,567.47,542.67,570.56Z"/><path id="_Path_116" data-name="&lt;Path&gt;" class="cls-56" d="M549.31,570.66c-4.65-2.68-8.46-.49-8.46,4.89v113c0,5.37,3.81,12,8.46,14.65l41,23.66c4.65,2.68,8.46.49,8.46-4.89V609c0-5.37-3.81-12-8.46-14.65Z"/><polygon id="_Path_117" data-name="&lt;Path&gt;" class="cls-101" points="545.58 589.12 545.58 680.42 594.01 708.38 594.01 617.08 545.58 589.12"/><g id="_Group_44" data-name="&lt;Group&gt;"><path class="cls-54" d="M576.21,597.08a.94.94,0,0,1-.48-.13l-12.83-7.4a1,1,0,0,1,1-1.7l12.83,7.41a1,1,0,0,1-.49,1.82Z"/></g><path id="_Path_118" data-name="&lt;Path&gt;" class="cls-105" d="M569.8,698.17c-2.81-1.65-5.1-.33-5.1,3a11.38,11.38,0,0,0,5.1,8.91c2.81,1.62,5.1.29,5.1-2.95A11.5,11.5,0,0,0,569.8,698.17Z"/><path id="_Path_119" data-name="&lt;Path&gt;" class="cls-58" d="M568.79,634.64c-8-4.61-14.53-.84-14.53,8.39s6.54,20.56,14.53,25.18,14.53.84,14.53-8.39S576.78,639.26,568.79,634.64Z"/><polygon id="_Path_120" data-name="&lt;Path&gt;" class="cls-54" points="563.86 660.33 563.85 646.27 560.96 644.6 567.54 640.41 574.09 652.1 570.98 650.36 570.96 664.43 563.86 660.33"/><g id="_Group_45" data-name="&lt;Group&gt;"><path id="_Path_121" data-name="&lt;Path&gt;" class="cls-54" d="M664.92,137.12,663,138.7H646.52l-1.79-1.65a25.66,25.66,0,0,1-8.29-18.89V111h37.68v6.45A25.68,25.68,0,0,1,664.92,137.12Z"/><path id="_Rectangle_3" data-name="&lt;Rectangle&gt;" class="cls-122" d="M646,138.26h17.12a0,0,0,0,1,0,0V142a1.71,1.71,0,0,1-1.71,1.71H647.75A1.71,1.71,0,0,1,646,142v-3.77A0,0,0,0,1,646,138.26Z"/><path id="_Path_122" data-name="&lt;Path&gt;" class="cls-54" d="M668.53,103.32c-7.32-4.23-19.29-4.23-26.61,0s-7.31,11.13,0,15.36,19.29,4.22,26.61,0S675.85,107.54,668.53,103.32Z"/><path id="_Path_123" data-name="&lt;Path&gt;" class="cls-123" d="M655.28,40.28a34.43,34.43,0,0,0-18.83,63.27v7.79h0c.11,2.68,2.09,5.38,5.61,7.41,7.25,4.19,19.26,4.14,26.52,0,3.51-2,5.31-4.68,5.42-7.36h.12v-7.79a34.44,34.44,0,0,0-18.84-63.27Z"/><path id="_Path_124" data-name="&lt;Path&gt;" class="cls-58" d="M636,78.48A22.53,22.53,0,0,1,658.55,56c11.51,0,10.62-9.61-4.06-9.61a26.58,26.58,0,0,0-26.58,26.58C627.91,82.25,636,86.37,636,78.48Z"/><path id="_Path_125" data-name="&lt;Path&gt;" class="cls-124" d="M668.58,121.71c-7.26,4.19-19.27,4.24-26.52.05-3.52-2-5.5-4.73-5.61-7.41v2.58c.11,2.68,2.09,5.38,5.61,7.41,7.25,4.19,19.26,4.14,26.52,0,3.51-2,5.31-4.68,5.42-7.36h.12v-2.58H674C673.89,117,672.09,119.68,668.58,121.71Z"/><path id="_Path_126" data-name="&lt;Path&gt;" class="cls-124" d="M668.48,129.21c-7.26,4.19-19.27,4.24-26.52,0a12.78,12.78,0,0,1-4.53-4.14,25.33,25.33,0,0,0,1.91,4.82,14.61,14.61,0,0,0,2.62,1.9c7.25,4.19,19.26,4.14,26.52-.05a14.59,14.59,0,0,0,2.17-1.52A25.74,25.74,0,0,0,673,125,11.8,11.8,0,0,1,668.48,129.21Z"/><g class="cls-125"><path class="cls-101" d="M655.16,37.42h0a2.82,2.82,0,0,1-2.8-2.82l.11-21.52a2.81,2.81,0,0,1,2.81-2.8h0a2.81,2.81,0,0,1,2.79,2.83L658,34.63A2.81,2.81,0,0,1,655.16,37.42Z"/></g><g class="cls-125"><path class="cls-101" d="M675.74,42.89a2.8,2.8,0,0,1-2.42-4.23l10.86-18.57A2.81,2.81,0,1,1,689,22.92L678.16,41.5A2.81,2.81,0,0,1,675.74,42.89Z"/></g><g class="cls-125"><path class="cls-101" d="M690.81,57.93a2.81,2.81,0,0,1-1.39-5.25l18.71-10.63a2.81,2.81,0,0,1,2.78,4.88L692.2,57.56A2.81,2.81,0,0,1,690.81,57.93Z"/></g><g class="cls-125"><path class="cls-101" d="M619.89,57.65a2.79,2.79,0,0,1-1.44-.39L600,46.21a2.81,2.81,0,1,1,2.88-4.82l18.47,11a2.8,2.8,0,0,1-1.44,5.21Z"/></g><g class="cls-125"><path class="cls-101" d="M635.08,42.73a2.81,2.81,0,0,1-2.46-1.44L622.17,22.47a2.8,2.8,0,0,1,4.9-2.72l10.46,18.81a2.82,2.82,0,0,1-1.09,3.82A2.78,2.78,0,0,1,635.08,42.73Z"/></g></g><path class="cls-107" d="M370.85,299.22l59.89,34.58a3,3,0,0,0,3.46.12v0l3.28-1.44a4.5,4.5,0,0,0,2.69-4.12l0-25.53h.36a3.66,3.66,0,0,0,2.82-1.33h0l4.21-3.21v0a3.7,3.7,0,0,0,1.27-4.57l-8.66-19.14V259.47a10.13,10.13,0,0,0-4.55-7.89l-64.8-37.46Z"/><path class="cls-126" d="M441.85,279.71l-8.66-19.14V245.44a10.09,10.09,0,0,0-4.56-7.88L268.09,144.74a7.15,7.15,0,0,0-8.6,1.09,2.2,2.2,0,0,0-.66,1.57v69.3c0,2.89,2.43,6.25,4.93,7.69L426.6,318.5c.27.16.59,1.41.59,1.41l3.28-1.44a4.49,4.49,0,0,0,2.69-4.11l0-29.38h.66l2.53,2.53,4.21-3.22h0A3.72,3.72,0,0,0,441.85,279.71Z"/><path id="_Path_127" data-name="&lt;Path&gt;" class="cls-55" d="M257.07,150.45c0-2.89,2.05-4.07,4.56-2.62l162.1,93.59a10.09,10.09,0,0,1,4.55,7.88v15.12l8.66,19.14a3.73,3.73,0,0,1-3.39,5.27h-5.27v28.31c0,2.89-2,4.07-4.55,2.63l-162.1-93.59a10.11,10.11,0,0,1-4.56-7.89Z"/><g id="_Group_46" data-name="&lt;Group&gt;"><polygon class="cls-59" points="412.51 255.71 318.74 201.74 318.73 195.67 412.51 249.54 412.51 255.71"/></g><g id="_Group_47" data-name="&lt;Group&gt;"><polygon class="cls-59" points="412.51 276.34 318.73 222.54 318.73 216.47 412.51 270.34 412.51 276.34"/></g><g id="_Group_48" data-name="&lt;Group&gt;"><polygon class="cls-59" points="370.9 273.19 318.73 243.35 318.73 237.28 370.9 267.19 370.9 273.19"/></g><polygon id="_Path_128" data-name="&lt;Path&gt;" class="cls-57" points="265.46 159.93 265.59 218.35 307.69 242.44 307.69 183.9 265.46 159.93"/><path id="_Path_129" data-name="&lt;Path&gt;" class="cls-55" d="M765.71,3.49l-.52.71a7.78,7.78,0,0,0-1.52,4.63v98.09a14.48,14.48,0,0,0,6.53,11.31l125.06,72a8.42,8.42,0,0,0,5.54,1l.27-.05A8.28,8.28,0,0,0,908,183V83.5a14.42,14.42,0,0,0-6.55-11.29L776.83,1.12A8.54,8.54,0,0,0,765.71,3.49Z"/><path id="_Path_130" data-name="&lt;Path&gt;" class="cls-58" d="M770.22,4.38c-3.6-2.06-6.55-.35-6.55,3.8v98.23a14.48,14.48,0,0,0,6.53,11.31L895.44,190c3.59,2.08,6.53.38,6.53-3.77v-99A14.39,14.39,0,0,0,895.42,76Z"/><path id="_Path_131" data-name="&lt;Path&gt;" class="cls-101" d="M874.3,83.82c-6.18-3.57-11.23-.74-11.23,6.29s5,15.92,11.23,19.76,11.24,1,11.24-6.29S880.48,87.38,874.3,83.82Z"/><path id="_Path_132" data-name="&lt;Path&gt;" class="cls-57" d="M847.63,109.17l-14.81,9.46L806.66,63.68l-43,24.82v17.91a14.51,14.51,0,0,0,6.53,11.31L895.44,190c3.59,2.08,6.53.38,6.53-3.77V170.33L873.71,154Z"/><g class="cls-2"><polygon id="_Path_133" data-name="&lt;Path&gt;" class="cls-3" points="669.14 899.83 641.48 916.03 550.23 863.35 577.9 847.15 669.14 899.83"/><polygon class="cls-4" points="669.14 899.83 641.94 915.76 550.7 863.08 577.9 847.15 669.14 899.83"/><polygon class="cls-5" points="669.14 899.83 642.41 915.48 551.16 862.8 577.9 847.15 669.14 899.83"/><polygon class="cls-6" points="669.14 899.83 642.87 915.21 551.63 862.53 577.9 847.15 669.14 899.83"/><polygon class="cls-7" points="669.14 899.83 643.34 914.93 552.09 862.25 577.9 847.15 669.14 899.83"/><polygon class="cls-8" points="669.14 899.83 643.8 914.66 552.56 861.98 577.9 847.15 669.14 899.83"/><polygon class="cls-9" points="669.14 899.83 644.27 914.38 553.02 861.7 577.9 847.15 669.14 899.83"/><polygon class="cls-10" points="669.14 899.83 644.73 914.11 553.49 861.43 577.9 847.15 669.14 899.83"/><polygon class="cls-11" points="669.14 899.83 645.2 913.83 553.95 861.15 577.9 847.15 669.14 899.83"/><polygon class="cls-12" points="669.14 899.83 645.66 913.56 554.42 860.88 577.9 847.15 669.14 899.83"/><polygon class="cls-13" points="669.14 899.83 646.13 913.28 554.88 860.6 577.9 847.15 669.14 899.83"/><polygon class="cls-14" points="669.14 899.83 646.59 913.01 555.35 860.33 577.9 847.15 669.14 899.83"/><polygon class="cls-15" points="669.14 899.83 647.06 912.73 555.81 860.05 577.9 847.15 669.14 899.83"/><polygon class="cls-16" points="669.14 899.83 647.52 912.46 556.28 859.78 577.9 847.15 669.14 899.83"/><polygon class="cls-17" points="669.14 899.83 647.99 912.18 556.74 859.5 577.9 847.15 669.14 899.83"/><polygon class="cls-18" points="669.14 899.83 648.45 911.91 557.21 859.23 577.9 847.15 669.14 899.83"/><polygon class="cls-19" points="669.14 899.83 648.92 911.63 557.67 858.95 577.9 847.15 669.14 899.83"/><polygon class="cls-20" points="669.14 899.83 649.38 911.36 558.14 858.68 577.9 847.15 669.14 899.83"/><polygon class="cls-21" points="669.14 899.83 649.85 911.08 558.6 858.4 577.9 847.15 669.14 899.83"/><polygon class="cls-22" points="669.14 899.83 650.31 910.81 559.07 858.13 577.9 847.15 669.14 899.83"/><polygon class="cls-23" points="669.14 899.83 650.78 910.53 559.53 857.85 577.9 847.15 669.14 899.83"/><polygon class="cls-24" points="669.14 899.83 651.24 910.26 560 857.58 577.9 847.15 669.14 899.83"/><polygon class="cls-25" points="669.14 899.83 651.71 909.98 560.46 857.3 577.9 847.15 669.14 899.83"/><polygon class="cls-26" points="669.14 899.83 652.17 909.71 560.93 857.03 577.9 847.15 669.14 899.83"/><polygon class="cls-27" points="669.14 899.83 652.64 909.43 561.39 856.75 577.9 847.15 669.14 899.83"/><polygon class="cls-28" points="669.14 899.83 653.1 909.16 561.86 856.48 577.9 847.15 669.14 899.83"/><polygon class="cls-29" points="669.14 899.83 653.57 908.88 562.32 856.2 577.9 847.15 669.14 899.83"/><polygon class="cls-30" points="669.14 899.83 654.03 908.61 562.79 855.93 577.9 847.15 669.14 899.83"/><polygon class="cls-31" points="669.14 899.83 654.5 908.33 563.25 855.65 577.9 847.15 669.14 899.83"/><polygon class="cls-32" points="669.14 899.83 654.96 908.06 563.72 855.38 577.9 847.15 669.14 899.83"/><polygon class="cls-33" points="669.14 899.83 655.43 907.78 564.18 855.1 577.9 847.15 669.14 899.83"/><polygon class="cls-34" points="669.14 899.83 655.89 907.51 564.65 854.83 577.9 847.15 669.14 899.83"/><polygon class="cls-35" points="669.14 899.83 656.36 907.23 565.11 854.55 577.9 847.15 669.14 899.83"/><polygon class="cls-36" points="669.14 899.83 656.82 906.96 565.58 854.28 577.9 847.15 669.14 899.83"/><polygon class="cls-37" points="669.14 899.83 657.29 906.68 566.04 854 577.9 847.15 669.14 899.83"/><polygon class="cls-38" points="669.14 899.83 657.75 906.41 566.51 853.73 577.9 847.15 669.14 899.83"/><polygon class="cls-39" points="669.14 899.83 658.22 906.13 566.97 853.45 577.9 847.15 669.14 899.83"/><polygon class="cls-40" points="669.14 899.83 658.68 905.86 567.44 853.18 577.9 847.15 669.14 899.83"/><polygon class="cls-41" points="669.14 899.83 659.15 905.58 567.9 852.9 577.9 847.15 669.14 899.83"/><polygon class="cls-42" points="669.14 899.83 659.61 905.31 568.37 852.63 577.9 847.15 669.14 899.83"/><polygon class="cls-43" points="669.14 899.83 660.08 905.03 568.83 852.35 577.9 847.15 669.14 899.83"/><polygon class="cls-44" points="669.14 899.83 660.54 904.76 569.3 852.08 577.9 847.15 669.14 899.83"/><polygon class="cls-45" points="669.14 899.83 661.01 904.48 569.76 851.8 577.9 847.15 669.14 899.83"/><polygon class="cls-46" points="669.14 899.83 661.47 904.21 570.23 851.53 577.9 847.15 669.14 899.83"/><polygon class="cls-47" points="669.14 899.83 661.94 903.93 570.69 851.25 577.9 847.15 669.14 899.83"/><polygon class="cls-48" points="669.14 899.83 662.4 903.66 571.16 850.98 577.9 847.15 669.14 899.83"/><polygon class="cls-49" points="669.14 899.83 662.87 903.38 571.62 850.7 577.9 847.15 669.14 899.83"/><polygon class="cls-50" points="669.14 899.83 663.33 903.11 572.09 850.43 577.9 847.15 669.14 899.83"/><polygon class="cls-51" points="669.14 899.83 663.8 902.83 572.55 850.15 577.9 847.15 669.14 899.83"/><polygon class="cls-52" points="669.14 899.83 664.26 902.56 573.02 849.88 577.9 847.15 669.14 899.83"/><polygon class="cls-53" points="669.14 899.83 664.73 902.28 573.48 849.6 577.9 847.15 669.14 899.83"/><polygon id="_Path_134" data-name="&lt;Path&gt;" class="cls-54" points="669.14 899.83 665.19 902.01 573.95 849.33 577.9 847.15 669.14 899.83"/></g><path id="_Path_135" data-name="&lt;Path&gt;" class="cls-55" d="M698,781.75c5.44,3.13,9.88,10.83,9.88,17.11v96.31a6.7,6.7,0,0,1-4.58,6.36l-4.95,1.64a6.15,6.15,0,0,1-5-.48l-83.88-47.51c-5.43-3.14-9.88-10.84-9.88-17.11V741.36a6.3,6.3,0,0,1,2.71-5.18l1.46-1a11,11,0,0,1,11.75-.52Z"/><path id="_Path_136" data-name="&lt;Path&gt;" class="cls-58" d="M691.14,785.17C696.57,788.3,701,796,701,802.28v94.3c0,6.28-4.45,8.84-9.88,5.71l-81.67-47.16C604,852,599.59,844.3,599.59,838v-94.3c0-6.28,4.45-8.84,9.88-5.71Z"/><path id="_Path_137" data-name="&lt;Path&gt;" class="cls-57" d="M691.14,785.17,609.47,738c-5.43-3.13-9.88-.57-9.88,5.71V762.5L701,822.37V802.28C701,796,696.57,788.3,691.14,785.17Z"/><path class="cls-107" d="M422.52,153.73c.68-4.14,2.38-7.27,4.91-9l-4-5.76c-.22.16-2-.17-2.19,0-4.12,2.88-6.83,7.6-7.82,13.66l6.92,1.13Z"/><path class="cls-107" d="M431.72,199.22c.23.23,2-.22,2.2,0l4.89-5c-9.79-9.5-16.62-24.36-16.62-36.14H413C413,171.79,420.51,188.34,431.72,199.22Z"/><path class="cls-107" d="M459.1,201.84a9.67,9.67,0,0,1-4.06,1.21,21.32,21.32,0,0,1-8.6-3h-2.19l-3.51,6.08a27,27,0,0,0,13.31,4c.42,0,.83-.05,1.24-.08s.64.08,1,.08a16.9,16.9,0,0,0,8.56-2.23c6.06-3.5,9.39-10.54,9.39-19.84,0-17.68-12.45-39.25-27.76-48.09a26.42,26.42,0,0,0-13.93-3.89,19.31,19.31,0,0,0-4.31.1l1,6.94a12.19,12.19,0,0,1,2.19-.07v.07c.25,0,.54,0,.8,0a21.5,21.5,0,0,1,8.51,3c13.14,7.59,24.25,26.83,24.25,42C465,194.76,462.9,199.65,459.1,201.84Z"/><path class="cls-107" d="M370.85,157.53v5l2.33-2.86C372.37,159,371.62,158.26,370.85,157.53Z"/><path class="cls-107" d="M387,173c.25,0,.52.06.77.06a16.9,16.9,0,0,0,8.56-2.23c6.06-3.49,9.39-10.54,9.39-19.83a47.52,47.52,0,0,0-2-13.05H402l-6.75,1.94A40.45,40.45,0,0,1,396.93,151c0,6.68-2.09,11.56-5.89,13.75a9.74,9.74,0,0,1-4.21,1.23,21,21,0,0,1-8.89-3h-1.76l-3.51,6.08a27,27,0,0,0,13.32,4C386.33,173.08,386.65,173,387,173Z"/><path class="cls-107" d="M392.89,133.38c.05.1,1.71-.1,1.76,0l6.44-2.78c-5.15-11.93-13.8-22.27-23.15-27.67a31.35,31.35,0,0,0-7.09-3.05v8.18c.6.29,1.21.59,1.82,1C380.76,113.68,388.32,122.79,392.89,133.38Z"/><path class="cls-127" d="M363.58,161.68c-.21-.17-1.54.18-1.75,0-12.47-10.51-20.32-29.24-20.32-44.14,0-9.29,3.33-16.34,9.39-19.83s13.83-2.87,21.88,1.78c9.35,5.4,18,15.74,23.15,27.67l-6.44,2.78c0-.1-1.71.1-1.76,0-4.58-10.47-10.45-19.75-18.46-24.37-5.79-3.34-11.06-4-14.86-1.79s-5.88,7.08-5.88,13.76c0,13.22,8.19,29.5,19.49,38.7Zm27.57,5.73c6.06-3.49,9.39-10.54,9.39-19.83a47.52,47.52,0,0,0-2-13.05h-1.75l-5,1.94a40.08,40.08,0,0,1,1.69,11.11c0,6.68-2.09,11.56-5.88,13.76s-9.07,1.55-14.86-1.79H371l-1.76,6.08a26.94,26.94,0,0,0,13.32,4A16.91,16.91,0,0,0,391.15,167.41Z"/><path class="cls-128" d="M283,81.8h-7c0-9.29,3.34-16.34,9.4-19.83s13.82-2.87,21.87,1.78a44.91,44.91,0,0,1,7.45,5.45l-4.68,5.23c-.21-.18-1.55.18-1.76,0-1.85-1.6-2.61-3.5-4.52-4.6-5.78-3.34-11.06-4-14.85-1.78S283,75.12,283,81.8Zm36.67-7.53H318l-3.55,4.6c8.28,9.54,13.63,22.48,13.63,33h7C335.06,99.57,329.18,85.18,319.71,74.27Zm4.8,58c5.35-2.53,8.94-7.84,10.12-15l-6.15-1-2.53-.13c-.8,4.84-1.19,8.22-4.45,9.76-3.73,1.76-8.78,1-14.21-2.13-11.5-6.64-21.51-21.94-23.79-36.38h-1.75l-5.18,1.1c2.58,16.35,14,33.75,27.21,41.36a27,27,0,0,0,13.33,4A17.1,17.1,0,0,0,324.51,132.28Z"/><g id="_Group_49" data-name="&lt;Group&gt;"><path id="_Path_138" data-name="&lt;Path&gt;" class="cls-57" d="M361.83,161.68c-12.79-10.42-22.08-29-22.08-44.14,0-9.29,3.34-16.34,9.4-19.83S363,94.84,371,99.49c9.34,5.4,18,15.74,23.15,27.67l-6.45,2.78c-4.57-10.59-12.13-19.7-20.21-24.37-5.79-3.34-11.07-4-14.86-1.79s-5.89,7.08-5.89,13.76c0,13.22,8.2,29.5,19.49,38.7Z"/></g><g id="_Group_50" data-name="&lt;Group&gt;"><path id="_Path_139" data-name="&lt;Path&gt;" class="cls-102" d="M380.83,169.65a26.94,26.94,0,0,1-13.31-4l3.51-6.08c5.78,3.34,11.06,4,14.85,1.79s5.89-7.08,5.89-13.76a40.45,40.45,0,0,0-1.69-11.11l6.75-1.94a47.52,47.52,0,0,1,2,13.05c0,9.29-3.34,16.34-9.4,19.83A16.91,16.91,0,0,1,380.83,169.65Z"/></g><g id="_Group_51" data-name="&lt;Group&gt;"><path id="_Path_140" data-name="&lt;Path&gt;" class="cls-129" d="M281.29,81.8h-7c0-9.29,3.33-16.34,9.39-19.83s13.83-2.87,21.88,1.78A44.85,44.85,0,0,1,313,69.2l-4.68,5.23a38.29,38.29,0,0,0-6.27-4.6c-5.79-3.34-11.06-4-14.86-1.78S281.29,75.12,281.29,81.8Z"/></g><g id="_Group_52" data-name="&lt;Group&gt;"><path id="_Path_141" data-name="&lt;Path&gt;" class="cls-57" d="M333.3,111.84h-7c0-10.49-5.35-23.43-13.62-33l5.3-4.6C327.42,85.18,333.3,99.57,333.3,111.84Z"/></g><g id="_Group_53" data-name="&lt;Group&gt;"><path id="_Path_142" data-name="&lt;Path&gt;" class="cls-102" d="M315.35,133.89a27,27,0,0,1-13.32-4c-13.19-7.61-24.63-25-27.22-41.36l6.94-1.1c2.28,14.44,12.28,29.74,23.79,36.38C311,127,316,127.7,319.75,125.94c3.25-1.54,5.4-4.92,6.2-9.76l6.92,1.14c-1.17,7.12-4.77,12.43-10.12,15A17.07,17.07,0,0,1,315.35,133.89Z"/></g><path class="cls-130" d="M417.36,150.29h-2.19l-4.74-1.13c.94-5.73,1.87-10.75,5.63-13.66.21-.16,2,.16,2.19,0l4,5.76C419.74,143,418,146.15,417.36,150.29Zm42.29,54.19c6.06-3.5,9.39-10.54,9.39-19.84,0-17.67-12.45-39.25-27.76-48.09-5.57-3.21-11.12-4.52-16-3.79l1,6.94c3.34-.49,7.32.52,11.5,2.93,13.15,7.59,24.25,26.83,24.25,42,0,6.68-2.09,11.57-5.88,13.76s-9.07,1.56-14.86-1.78h-2.19l-1.32,6.08a26.92,26.92,0,0,0,13.32,4A16.9,16.9,0,0,0,459.65,204.48Zm-26-13.73c-9.79-9.5-16.62-24.36-16.62-36.14h-7c0,13.46,5.72,30.29,16.55,41.17.23.23,2-.22,2.2,0Z"/><g id="_Group_54" data-name="&lt;Group&gt;"><path id="_Path_143" data-name="&lt;Path&gt;" class="cls-102" d="M415.17,150.29l-6.93-1.13c1-6.06,3.7-10.78,7.82-13.66l4,5.76C417.54,143,415.85,146.15,415.17,150.29Z"/></g><g id="_Group_55" data-name="&lt;Group&gt;"><path id="_Path_144" data-name="&lt;Path&gt;" class="cls-57" d="M448.89,206.71a26.92,26.92,0,0,1-13.31-4l3.51-6.08c5.78,3.34,11.06,4,14.86,1.78s5.88-7.08,5.88-13.76c0-15.18-11.11-34.42-24.25-42-4.19-2.41-8.17-3.42-11.51-2.93l-1-6.94c4.93-.73,10.48.58,16,3.79,15.31,8.84,27.76,30.42,27.76,48.09,0,9.3-3.34,16.34-9.39,19.84A17,17,0,0,1,448.89,206.71Z"/></g><g id="_Group_56" data-name="&lt;Group&gt;"><path id="_Path_145" data-name="&lt;Path&gt;" class="cls-101" d="M426.56,195.78c-11.21-10.88-18.75-27.43-18.75-41.17h7c0,11.78,6.84,26.64,16.62,36.14Z"/></g><path class="cls-107" d="M370.85,381.28l29.34,17.15a4.45,4.45,0,0,0,1.75.57l.13.08h5.4a4.75,4.75,0,0,0,4.75-4.74V343a8.18,8.18,0,0,0-4.08-7.07l-37.29-21.37Z"/><path id="_Path_146" data-name="&lt;Path&gt;" class="cls-131" d="M401.26,323.89l-93.41-53.56a5.3,5.3,0,0,0-6.84,1.39l-3.16,4.17a4.68,4.68,0,0,0-.94,2.81l1.63,46.17c0,2.92.52,4.78,3,6.24l41.36,25.15,21.44,12.54L395.19,387h5.4a4.74,4.74,0,0,0,4.75-4.74V331A8.16,8.16,0,0,0,401.26,323.89Z"/><path id="_Path_147" data-name="&lt;Path&gt;" class="cls-57" d="M296.91,278.36v47a8.18,8.18,0,0,0,4.07,7.07l92.33,54a4.6,4.6,0,0,0,6.95-4V334.76a8.16,8.16,0,0,0-4.08-7.07l-92.36-53.32A4.6,4.6,0,0,0,296.91,278.36Z"/><path id="_Path_148" data-name="&lt;Path&gt;" class="cls-58" d="M322.64,310.08c-.3-3.85-2.59-7.7-5.12-8.6a2.57,2.57,0,0,0-3.12.92,7.15,7.15,0,0,0-3.43-3.26c-2.53-.91-4.35,1.47-4.06,5.32a12.63,12.63,0,0,0,1.65,5.28L315.87,322l6-7.72.22-.4A7.34,7.34,0,0,0,322.64,310.08Z"/><g id="_Group_57" data-name="&lt;Group&gt;"><path id="_Compound_Path_2" data-name="&lt;Compound Path&gt;" class="cls-58" d="M327.52,318.88a2.66,2.66,0,0,0,.57-1.24,2.74,2.74,0,0,0-.08-1.31,1.5,1.5,0,0,0-.62-.87c-.53-.3-1.13,0-1.81,1l-1.24-2.31a4.42,4.42,0,0,1,1.67-1.52,2.07,2.07,0,0,1,1.91.27,4.18,4.18,0,0,1,1.7,2.23,6.52,6.52,0,0,1,.29,3.54,5.1,5.1,0,0,1-.68,1.84,8.8,8.8,0,0,1-1.65,1.78l-1.94,1.7,3.29,1.91-.48,2.74-5.88-3.4.39-2.28,3.17-2.7A10.65,10.65,0,0,0,327.52,318.88Z"/><path id="_Compound_Path_3" data-name="&lt;Compound Path&gt;" class="cls-58" d="M337.51,318.78l-.46,2.65-3.29-1.91-.4,2.3a2.17,2.17,0,0,1,.88.31,4.63,4.63,0,0,1,1.87,2.4,7,7,0,0,1,.31,3.74,4.18,4.18,0,0,1-1.49,2.83,2.11,2.11,0,0,1-2.45,0,5.89,5.89,0,0,1-2.47-3.7l1.37-1.67q.08.24.21.6a8.16,8.16,0,0,0,.54,1.06,2.56,2.56,0,0,0,.88,1,.87.87,0,0,0,.93,0,1.59,1.59,0,0,0,.61-1.18,2.92,2.92,0,0,0-.16-1.65,2.22,2.22,0,0,0-.94-1.1,2,2,0,0,0-1.6-.1l-.53-1.83,1.16-6.69Z"/></g><g id="_Group_58" data-name="&lt;Group&gt;"><path id="_Compound_Path_4" data-name="&lt;Compound Path&gt;" class="cls-58" d="M374.12,342.51l3.95,2.25L378,357.63l-2.09-1.19L376,346,374.11,345Z"/><path id="_Compound_Path_5" data-name="&lt;Compound Path&gt;" class="cls-58" d="M384.18,353.28a1.82,1.82,0,0,0,.37-1.12,2.61,2.61,0,0,0-.31-1.26,2.06,2.06,0,0,0-.82-.9c-.61-.35-1.2-.11-1.75.73l-1.74-2.36a3,3,0,0,1,1.52-1.26,2.76,2.76,0,0,1,2.08.47,6.28,6.28,0,0,1,2.21,2.32,6.56,6.56,0,0,1,.93,3.43,3.41,3.41,0,0,1-.39,1.69,5.72,5.72,0,0,1-1.43,1.52L383.07,358l3.85,2.19,0,2.58L380,358.8l0-2.14,2.88-2.23A7.39,7.39,0,0,0,384.18,353.28Z"/></g><path id="_Path_149" data-name="&lt;Path&gt;" class="cls-58" d="M362.83,331.13c-4.34-2.51-7.9-.46-7.9,4.56a16,16,0,0,0,2.19,7.53v3.67a.5.5,0,0,0,.5.5h2.66a13.32,13.32,0,0,0,2.55,2c4.34,2.51,7.89.45,7.89-4.56S367.17,333.64,362.83,331.13Z"/><path class="cls-57" d="M846.33,168.41,716.75,94.12a6.12,6.12,0,0,0-9.19,5.3v70.92a10.84,10.84,0,0,0,5.42,9.4l55.8,31.73,28.51,16.67,45.22,26.77a6.13,6.13,0,0,0,9.25-5.28V177.81A10.85,10.85,0,0,0,846.33,168.41Z"/><path id="_Path_150" data-name="&lt;Path&gt;" class="cls-57" d="M707.56,107.86v62.48a10.84,10.84,0,0,0,5.42,9.4l49,28.35,5.81,21.3a5.14,5.14,0,0,0,7.29,3.23l15.4-7.86,45.23,26.77a6.13,6.13,0,0,0,9.25-5.27V182.87a10.85,10.85,0,0,0-5.43-9.4L716.75,102.56A6.12,6.12,0,0,0,707.56,107.86Z"/><g id="_Group_59" data-name="&lt;Group&gt;"><polygon class="cls-58" points="831.66 188.53 724.35 126.38 724.43 118.26 831.66 180.16 831.66 188.53"/></g><g id="_Group_60" data-name="&lt;Group&gt;"><polygon class="cls-58" points="831.66 209.44 724.35 147.63 724.43 139.51 831.66 201.42 831.66 209.44"/></g><g id="_Group_61" data-name="&lt;Group&gt;"><polygon class="cls-58" points="776.28 198.84 724.35 168.88 724.43 160.76 776.29 190.7 776.28 198.84"/></g></g></g></g></svg>