<svg xmlns="http://www.w3.org/2000/svg" xmlns:xlink="http://www.w3.org/1999/xlink" viewBox="0 0 59.95 59.95"><defs><style>.cls-1{fill:none;}.cls-2{clip-path:url(#clip-path);}.cls-3{fill:#cdcdcd;}</style><clipPath id="clip-path" transform="translate(0 -0.04)"><rect class="cls-1" x="0.01" width="60" height="60.06"/></clipPath></defs><title>qq</title><g id="Layer_2" data-name="Layer 2"><g id="图层_13" data-name="图层 13"><g class="cls-2"><path class="cls-3" d="M18.39,27.19l-.06-.2-.06-.26,0-.14V26l.06-.23.06-.25.09-.25.11-.28.15-.3.21-.29V24l0-.26.09-.29.08-.32L19.2,23l.08-.14.1-.15.1-.11v-.73l.06-.38L19.6,21l.12-.52.15-.54.11-.3.11-.33.12-.3.15-.32.15-.36.17-.33.19-.36.25-.36.11-.2.12-.17.26-.37.27-.38.3-.38.33-.38.35-.37.37-.38.45-.41L24,14l.35-.27.35-.24.38-.23.37-.2.41-.17.43-.2.44-.15.43-.14.47-.15.47-.11.49-.1.5-.08.49-.06.49-.07.53,0H32.1l.52.07.52.06.53.06.49.11.52.11.48.13.54.14.48.18.47.19.5.21.45.23.45.25.43.28.37.26.18.15.18.11.35.29.29.28.29.3.28.32.24.32.28.32.19.35.19.31.21.36.18.32.29.66.14.35.12.32.11.34.1.33.07.28.09.33.16.59.1.51.06.5.06.4.09.61,0,.09.07.12.2.31.12.21.11.22.14.24.12.29.08.29.09.32.07.33,0,.16,0,.2v.18l0,.17v.21l0,.21-.09.4-.11.2-.08.23v.06l0,.07.1.17.46.67.36.51L45,29l.23.37.2.41.24.43.23.49.26.55.15.34.14.33.11.35.12.32.09.33.09.31.11.6.09.62.06.55v.77L47,36l-.06.47-.08.42-.13.39,0,.16-.09.18-.07.14-.1.16-.09.1-.11.13-.1.11-.1.09-.13.06-.11.05-.09,0h-.15l-.09,0-.17-.08-.08-.06-.08-.06-.09-.08L45,38.09l-.16-.17-.18-.24-.14-.24-.14-.2L44.24,37,44,36.6l-.22-.42h-.06l-.09.06-.05.12-.08.13-.15.41-.23.59-.28.7-.22.35-.23.36-.27.41-.28.41-.15.18-.17.2-.41.4,0,0,.06.06.2.12.85.41.37.2.35.21.35.25.31.27.15.11.12.14.11.16.1.17.05.14.06.17,0,.15,0,.17,0,.12v.12l0,.12-.06.11,0,.09-.06.1-.16.21-.14.17-.11.13-.09.09-.23.17-.27.15-.28.14-.3.14-.34.13L42,45.3l-.16,0-.39.09-.41.09-.4.08-.44.08-.46,0-.47,0H37.84l-.52,0-.49,0-.53-.08-.52-.05-.55-.08-.53-.13-.52-.1-.51-.15-.53-.19-.52-.15-.27-.09-.25-.09L32,44.51l-.15,0h-.44l-.49,0-.25,0-.33,0-.21.19-.28.18-.39.19-.42.23-.26.13-.27.1-.6.24-.32.08-.35.09-.47.09-.29,0-.32,0-.32,0-.38,0H23.85L23,46l-.85-.09-.43-.06-.42-.06-.41-.06-.4-.08-.38-.12-.37-.09-.34-.13-.32-.13-.3-.14-.26-.16-.26-.19-.09-.09L18,44.48l-.09-.1-.08-.11-.07-.11-.06-.11-.08-.24,0-.12,0-.14v-.13l0-.14v-.14l0-.15v-.28l0-.15.06-.17.06-.18.1-.2.07-.09.07-.09.16-.2.13-.1.12-.07.11-.09.18-.06.14-.08.18-.09.2-.06.2-.06.23-.05.23,0,.26,0,.29,0,.08,0h0l0,0v0l-.05-.07-.16-.08L20,40.32l-.25-.21-.3-.26-.3-.29-.31-.37-.35-.41-.14-.23-.17-.23L18,38.05l-.14-.29-.18-.28-.13-.32-.14-.32-.14-.36-.11-.34-.09-.42h-.06l0,0h0l-.06,0h0l0,.07v.09l0,.07-.06.13-.17.31-.09.19-.14.16-.16.2-.16.22-.18.19-.21.19-.19.17-.21.14L15,38l-.22.09-.27.06-.26,0H14.2l-.06,0,0-.1L14,38l-.1-.24-.06-.14-.07-.18,0-.2,0-.19-.09-.45,0-.25v-.86l0-.63.06-.33.06-.33,0-.36.1-.34.11-.38.11-.38.15-.39.15-.37.19-.37.19-.41.22-.38.27-.41.26-.37.28-.41.24-.29.3-.33.31-.33.15-.15.17-.18.26-.22.27-.23.43-.39.32-.24Z" transform="translate(0 -0.04)"/><path class="cls-3" d="M30,0A30,30,0,1,0,60,30,30,30,0,0,0,30,0m0,58.22A28.25,28.25,0,1,1,58.22,30,28.25,28.25,0,0,1,30,58.26" transform="translate(0 -0.04)"/></g></g></g></svg>