<svg xmlns="http://www.w3.org/2000/svg" viewBox="0 0 21.12 23.05"><defs><style>.cls-1{fill:#623fe9;}</style></defs><title>Asset 2</title><g id="Layer_2" data-name="Layer 2"><g id="图层_72" data-name="图层 72"><path class="cls-1" d="M-539.45-219.88a12,12,0,0,0-2.32-3.79,11,11,0,0,0-3.47-2.58c-.25-.11-.5-.22-.75-.31a7.33,7.33,0,0,0,1.54-1.18,7.18,7.18,0,0,0,0-10.16,7.18,7.18,0,0,0-10.15,0,7.18,7.18,0,0,0,0,10.16,7.14,7.14,0,0,0,1.55,1.18c-.26.09-.51.2-.75.31a10.93,10.93,0,0,0-3.48,2.58,11,11,0,0,0-2.32,3.79,9.22,9.22,0,0,0-.4,2.93h1.69a9,9,0,0,1,8.79-8.56c5.09,0,8.94,4.79,8.95,8.56h1.69a6.62,6.62,0,0,0-.56-2.93ZM-555-232.82a5.5,5.5,0,0,1,5.5-5.49,5.5,5.5,0,0,1,5.49,5.49,5.5,5.5,0,0,1-5.49,5.49,5.5,5.5,0,0,1-5.5-5.49Z" transform="translate(560 240)"/></g></g></svg>