<svg xmlns="http://www.w3.org/2000/svg" viewBox="0 0 60 60"><defs><style>.cls-1{fill:#cdcdcd;}</style></defs><title>wechat</title><g id="Layer_2" data-name="Layer 2"><g id="图层_13" data-name="图层 13"><path class="cls-1" d="M-530-180a30,30,0,0,1-30-30,30,30,0,0,1,30-30,30,30,0,0,1,30,30,30,30,0,0,1-30,30Zm0-58.85A28.88,28.88,0,0,0-558.85-210,28.87,28.87,0,0,0-530-181.16,28.88,28.88,0,0,0-501.15-210,28.89,28.89,0,0,0-530-238.85Zm6.87,24.44a10.7,10.7,0,0,1,1.39.09c-1.26-5.84-7.49-10.17-14.6-10.17-8,0-14.48,5.43-14.48,12.31,0,4,2.17,7.24,5.79,9.78l-1.44,4.35,5.06-2.54a24.61,24.61,0,0,0,5.07.73c.45,0,.9,0,1.34-.06a10.88,10.88,0,0,1-.44-3c0-6.33,5.43-11.46,12.31-11.46Zm-7.78-3.92a1.7,1.7,0,0,1,1.81,1.8,1.71,1.71,0,0,1-1.81,1.81,2,2,0,0,1-2.18-1.81,2,2,0,0,1,2.18-1.8ZM-541-214.72a2,2,0,0,1-2.18-1.81,2,2,0,0,1,2.18-1.8,1.7,1.7,0,0,1,1.81,1.8,1.71,1.71,0,0,1-1.81,1.81Zm31.13,11.59c0-5.79-5.79-10.5-12.29-10.5-6.89,0-12.32,4.71-12.32,10.5s5.43,10.5,12.32,10.5a18.31,18.31,0,0,0,4.34-.72l4,2.18-1.09-3.62c2.91-2.18,5.07-5.07,5.07-8.34Zm-16.29-1.81a1.56,1.56,0,0,1-1.45-1.45,1.56,1.56,0,0,1,1.45-1.44,1.64,1.64,0,0,1,1.81,1.44,1.64,1.64,0,0,1-1.81,1.45Zm8,0a1.55,1.55,0,0,1-1.43-1.45,1.55,1.55,0,0,1,1.43-1.44,1.66,1.66,0,0,1,1.82,1.44,1.66,1.66,0,0,1-1.82,1.45Z" transform="translate(560 240)"/></g></g></svg>