<svg xmlns="http://www.w3.org/2000/svg" xmlns:xlink="http://www.w3.org/1999/xlink" viewBox="0 0 59.95 59.95"><defs><style>.cls-1{fill:none;}.cls-2{fill:#cdcdcd;}.cls-3{clip-path:url(#clip-path);}</style><clipPath id="clip-path" transform="translate(0 -0.04)"><rect class="cls-1" x="0.01" width="60" height="60.06"/></clipPath></defs><title>weibo</title><g id="Layer_2" data-name="Layer 2"><g id="图层_13" data-name="图层 13"><path class="cls-2" d="M26.12,37a.85.85,0,0,1-1.29-.12,1.1,1.1,0,0,1,.31-1.42.9.9,0,0,1,1.37.13A1.15,1.15,0,0,1,26.12,37Zm-4.37,3.73a2,2,0,0,1-2.5-1.79,2.66,2.66,0,0,1,2.38-2.51c1.59-.15,2.62.77,2.62,1.92a2.68,2.68,0,0,1-2.5,2.38ZM23.62,31c-7.42.87-6.57,7.82-6.57,7.82a3.85,3.85,0,0,0,2,3.32,8.6,8.6,0,0,0,11.07-2c2.26-2.92.94-10-6.49-9.15Z" transform="translate(0 -0.04)"/><path class="cls-2" d="M25.09,45.21c-7.37.34-13.34-3.36-13.34-8.28s6-8.87,13.34-9.21,13.36,2.7,13.36,7.62-6,9.53-13.36,9.87Zm15.71-16c-1.76-.34-.9-1.28-.9-1.28s1.71-2.83-.34-4.88c-2.55-2.54-8.73.32-8.73.32-2.36.74-1.74-.33-1.41-2.14,0-2.14-.73-5.77-7-3.62s-11.68,9.67-11.68,9.67c-3.76,5-3.26,8.88-3.26,8.88.93,8.55,10,10.89,17.08,11.45,7.43.58,17.46-2.56,20.5-9s-2.48-9-4.24-9.38Zm3.61-3a1.22,1.22,0,0,0,1.2-1,.53.53,0,0,0,0-.13c.91-8.14-6.67-6.74-6.67-6.74a1.22,1.22,0,0,0,0,2.43c5.44-1.2,4.24,4.25,4.24,4.25a1.21,1.21,0,0,0,1.22,1.21Z" transform="translate(0 -0.04)"/><g class="cls-3"><path class="cls-2" d="M43.53,12a14.91,14.91,0,0,0-6.07.06c-.07,0-.12.06-.17.07a.07.07,0,0,0,0,0,1.78,1.78,0,0,0,.49,3.48,8.75,8.75,0,0,0,1.6-.38,9.35,9.35,0,0,1,8.77,4.34,7.85,7.85,0,0,1,.54,5.87,5.22,5.22,0,0,0-.35,1.7,1.62,1.62,0,0,0,1.76,1.59c.82,0,1.5-.11,1.71-1.49h0c2.89-9.65-3.54-14.18-8.23-15.27Z" transform="translate(0 -0.04)"/><path class="cls-2" d="M30,0A30,30,0,1,0,60,30,30,30,0,0,0,30,0Zm-.05,1.6A28.33,28.33,0,1,1,1.6,30,28.36,28.36,0,0,1,29.93,1.64Z" transform="translate(0 -0.04)"/></g></g></g></svg>